/* XPM */
static char *result[] = {
/* columns rows colors chars-per-pixel */
"64 64 187 2 ",
"   c #33608C",
".  c #34618C",
"X  c #34628D",
"o  c #34638E",
"O  c #34648E",
"+  c #35648E",
"@  c #35648F",
"#  c #35658F",
"$  c #356690",
"%  c #366690",
"&  c #366791",
"*  c #366792",
"=  c #366892",
"-  c #376992",
";  c #376993",
":  c #376A93",
">  c #376A94",
",  c #376B94",
"<  c #386A94",
"1  c #386C95",
"2  c #386D96",
"3  c #3A6D97",
"4  c #3A6E98",
"5  c #3A6F98",
"6  c #3A6F99",
"7  c #3B709A",
"8  c #3B719A",
"9  c #3B719B",
"0  c #3B729B",
"q  c #3C719B",
"w  c #3C729B",
"e  c #3C729C",
"r  c #3C739C",
"t  c #3C739D",
"y  c #3C759C",
"u  c #3D749D",
"i  c #3C769D",
"p  c #3C779E",
"a  c #3D789F",
"s  c #3D799F",
"d  c #3D79A0",
"f  c #3E7AA1",
"g  c #3E7BA1",
"h  c #3E7BA2",
"j  c #3E7CA2",
"k  c #3F7CA2",
"l  c #3E7DA2",
"z  c #3F7DA3",
"x  c #3F7EA3",
"c  c #3F7EA4",
"v  c #3F7FA4",
"b  c #4079A2",
"n  c #407AA3",
"m  c #407BA4",
"M  c #417CA4",
"N  c #417DA5",
"B  c #407FA4",
"V  c #407FA5",
"C  c #417DA6",
"Z  c #427DA6",
"A  c #427EA6",
"S  c #427EA7",
"D  c #427FA7",
"F  c #4080A5",
"G  c #4281A7",
"H  c #4282A8",
"J  c #4283A9",
"K  c #4384A9",
"L  c #4384AA",
"P  c #4584AC",
"I  c #4585AD",
"U  c #4685AD",
"Y  c #4686AE",
"T  c #4687AF",
"R  c #4787AF",
"E  c #448AAD",
"W  c #448AAE",
"Q  c #448BAE",
"!  c #458CAF",
"~  c #4788B0",
"^  c #4789B0",
"/  c #4789B1",
"(  c #458DB0",
")  c #468EB1",
"_  c #488AB1",
"`  c #488AB2",
"'  c #488BB2",
"]  c #488CB3",
"[  c #498DB3",
"{  c #498DB4",
"}  c #4B8FB6",
"|  c #4B8FB7",
" . c #4690B2",
".. c #4791B3",
"X. c #4792B4",
"o. c #4893B5",
"O. c #4B90B7",
"+. c #4B91B7",
"@. c #4894B5",
"#. c #4B90B8",
"$. c #4B91B8",
"%. c #4C91B8",
"&. c #4C92B8",
"*. c #4C92B9",
"=. c #4D93BA",
"-. c #4D94BB",
";. c #4D95BB",
":. c #4D95BC",
">. c #4E95BC",
",. c #4E96BC",
"<. c #4E96BD",
"1. c #4C9EBE",
"2. c #4C9FBE",
"3. c #4D9FBF",
"4. c #4DA0BF",
"5. c #519BC1",
"6. c #519CC2",
"7. c #519DC3",
"8. c #529DC3",
"9. c #529EC4",
"0. c #529FC4",
"q. c #529FC5",
"w. c #539FC5",
"e. c #4DA0C0",
"r. c #4DA1C0",
"t. c #4EA3C1",
"y. c #4EA3C2",
"u. c #4FA3C2",
"i. c #4EA4C2",
"p. c #4FA4C3",
"a. c #4FA5C3",
"s. c #4FA5C4",
"d. c #4FA6C4",
"f. c #53A0C5",
"g. c #53A0C6",
"h. c #53A1C7",
"j. c #54A1C7",
"k. c #50A6C5",
"l. c #50A7C5",
"z. c #50A8C6",
"x. c #51A9C7",
"c. c #51AAC7",
"v. c #51AAC8",
"b. c #54B2CE",
"n. c #54B3CF",
"m. c #55B3CF",
"M. c #55B4CF",
"N. c #55B4D0",
"B. c #55B5D0",
"V. c #55B5D1",
"C. c #56B5D1",
"Z. c #56B6D1",
"A. c #56B6D2",
"S. c #56B7D2",
"D. c #57B9D4",
"F. c #57BAD4",
"G. c #57BAD5",
"H. c #58BBD5",
"J. c #58BBD6",
"K. c #58BCD6",
"L. c #58BDD7",
"P. c #59BDD7",
"I. c #59BED8",
"U. c #59BFD8",
"Y. c #5DC8E0",
"T. c #5DC9E0",
"R. c #5DC9E1",
"E. c #5EC9E1",
"W. c #5ECAE1",
"Q. c #5ECAE2",
"!. c #5ECCE3",
"~. c #5FCDE4",
"^. c #5FCEE4",
"/. c #5FCEE5",
"(. c #60CEE5",
"). c #60CFE5",
"_. c #60CFE6",
"`. c #60D0E6",
"'. c #60D1E7",
"]. c #61D1E7",
"[. c #61D1E8",
"{. c #61D2E8",
"}. c #61D3E8",
"|. c #61D3E9",
" X c #62D3E9",
".X c #62D4EA",
"XX c None",
/* pixels */
"XXXXXXXXXXXXXXXXXXXXXXXXXXXXXXXXXXXXXXXXXXXXXXXXXXXXXXXXXXXXXXXXXXXXXXXXXXXXXXXXXXXXXXXXXXXXXXXXXXXXXXXXXXXXXXXXXXXXXXXXXXXXXXXX",
"XXXXXXXXXXXXXXXXXXXXXXXXXXXXXXXXXXXXXXXXXXXXXXXXXXXXXXXXXXXXXXXXXXXXXXXXXXXXXXXXXXXXXXXXXXXXXXXXXXXXXXXXXXXXXXXXXXXXXXXXXXXXXXXX",
"XXXXXXXXXXXXXXXXXXXXXXXXXXXXXXXXXXXXXXXXXXXXXXXXXXXXXXXXXXXXXXXXXXXXXXXXXXXXXXXXXXXXXXXXXXXXXXXXXXXXXXXXXXXXXXXXXXXXXXXXXXXXXXXX",
"XXXXXXXXXXXXXXXXXXXXXXXXXXXXXXXXXXXXXXXXXXXXXXXXXXXXXXXXXXXXXXXXXXXXXXXXXXXXXXXXXXXXXXXXXXXXXXXXXXXXXXXXXXXXXXXXXXXXXXXXXXXXXXXX",
"XXXXXXXXXXXXXXXXXXXXXXXXXXXXXXXXXXXXXXXXXXXXXXXXXXXXXXXXXXXXXXXXXXXXXXXXXXXXXXXXXXXXXXXXXXXXXXXXXXXXXXXXXXXXXXXXXXXXXXXXXXXXXXXX",
"XXXXXXXXXXXXXXXXXXXXXXXXXXXXXXXXXXXXXXXXXXXXXXXXXXXXXXXXXXXXXXXXXXXXXXXXXXXXXXXXXXXXXXXXXXXXXXXXXXXXXXXXXXXXXXXXXXXXXXXXXXXXXXXX",
"XXXXXXXXXXXXXXXXXXXXXXXXXXXXXXXXXXXXXXXXXXXXXXXXXXXXXXXXXXXXXXXXXXXXXXXXXXXXXXXXXXXXXXXXXXXXXXXXXXXXXXXXXXXXXXXXXXXXXXXXXXXXXXXX",
"XXXXXXXXXXXXXXXXXXXXXXXXXXXXXXXXXXXXXXXXXXXXXXXXXXXXXXXXXXXXXXXXXXXXXXXXXXXXXXXXXXXXXXXXXXXXXXXXXXXXXXXXXXXXXXXXXXXXXXXXXXXXXXXX",
"XXXXXXXXXXXXXXXXXXXXXXXXXXXXXXXXXXXXXXXXXXXXXXXXXXXXXXXXXXXXXXXXXXXXXXXXXXXXXXXXXXXXXXXXXXXXXXXXXXXXXXXXXXXXXXXXXXXXXXXXXXXXXXXX",
"XXXXXXXXXXXXXXXXXXXXXXXXXXXXXXXXXXXXXXXXXXXXXXXXXXXXXXXXXXXXXXXXXXXXXXXXXXXXXXXXXXXXXXXXXXXXXXXXXXXXXXXXXXXXXXXXXXXXXXXXXXXXXXXX",
"XXXXXXXXXXXXXXXXXXXXXXXXXXXXXXXXXXXXXXXXXXXXXXXXXXXXXXXXXXXXXXXXXXXXXXXXXXXXXXXXXXXXXXXXXXXXXXXXXXXXXXXXXXXXXXXXXXXXXXXXXXXXXXXX",
"XXXXXXXXXXXXXXXXXXXXXXXXXXXXXXXXXXXXXXXXXXXXXXXXXXXXXXXXXXXXXXXXXXXXXXXXXXXXXXXXXXXXXXXXXXXXXXXXXXXXXXXXXXXXXXXXXXXXXXXXXXXXXXXX",
"XXXXXXXXXXXXXXXXXXXXXXXXXXXXXXXXXXXXXXXXXXXXXXXXXXXXXXXXXXXXXXXXXXXXXXXXXXXXXXXXXXXXXXXXXXXXXXXXXXXXXXXXXXXXXXXXXXXXXXXXXXXXXXXX",
"XXXXXXXXXXXXXXXXXXXXXXXXXXXXXXXXXXXXXXXXXXXXXXXXXXXXXXXXXXXXXXXXXXXXXXXXXXXXXXXXXXXXXXXXXXXXXXXXXXXXXXXXXXXXXXXXXXXXXXXXXXXXXXXX",
"XXXXXXXXXXXXXXXXXXXXXXXXXXXXXXXXXXXXXXXXXXXXXXXXXXXXXXXXXXXXXXXXXXXXXXXXXXXXXXXXXXXXXXXXXXXXXXXXXXXXXXXXXXXXXXXXXXXXXXXXXXXXXXXX",
"XXXXXXXXXXXXXXXXXXXXXXXXXXXXXXXXXXXXXXXXXXXXXXXXXXXXXXXXXXXXXXXXXXXXXXXXXXXXXXXXXXXXXXXXXXXXXXXXXXXXXXXXXXXXXXXXXXXXXXXXXXXXXXXX",
"XXXXXXXXXXXXXXXXXXXXXXXXXXXXXXXXXXXXXXXXXXXXXXXX+ + + + + + + + + + + + + + + + XXXXXXXXXXXXXXXXXXXXXXXXXXXXXXXXXXXXXXXXXXXXXXXX",
"XXXXXXXXXXXXXXXXXXXXXXXXXXXXXXXXXXXXXXXXXXXXXXXXz V V V V V V V V V V V V V V z XXXXXXXXXXXXXXXXXXXXXXXXXXXXXXXXXXXXXXXXXXXXXXXX",
"XXXXXXXXXXXXXXXXXXXXXXXXXXXXXXXXXXXXXXXX# @ @ c a.B.N.m.m.m.m.m.m.m.m.m.m.N.B.a.c + o + XXXXXXXXXXXXXXXXXXXXXXXXXXXXXXXXXXXXXXXX",
"XXXXXXXXXXXXXXXXXXXXXXXXXXXXXXXXXXXXXXXXr 6 * V A. X}.].].].].].].].].].].}. XZ.c : a x XXXXXXXXXXXXXXXXXXXXXXXXXXXXXXXXXXXXXXXX",
"XXXXXXXXXXXXXXXXXXXXXXXXXXXXXXXXXXXXo r ^ U 4 c Z. X}.].].].].].].].].].].}. XV.z i e.s.k   XXXXXXXXXXXXXXXXXXXXXXXXXXXXXXXXXXXX",
"XXXXXXXXXXXXXXXXXXXXXXXXXXXXXXXXXXXX0 D >.>.A J p.Z.N.n.n.m.m.m.m.m.m.n.n.N.V.l.Q o.P.P.o.g XXXXXXXXXXXXXXXXXXXXXXXXXXXXXXXXXXXX",
"XXXXXXXXXXXXXXXXXXXXXXXXXXXXXXXXo 0 T ;.6.6.;.] K v x z z z z z z z z z z z c ! l.K.W.E.J.t.g   XXXXXXXXXXXXXXXXXXXXXXXXXXXXXXXX",
"XXXXXXXXXXXXXXXXXXXXXXXXXXXXXXXX0 A -.g.q.w.g.$.e ; i c x z z z z z z x c i = c V.]._.).'.H.X.g XXXXXXXXXXXXXXXXXXXXXXXXXXXXXXXX",
"XXXXXXXXXXXXXXXXXXXXXXXXXXXXo 0 T -.6.q.9.w.g.O.w p 3.B.N.m.m.m.m.m.m.N.B.2.i z N.'._./.).T.H.t.g   XXXXXXXXXXXXXXXXXXXXXXXXXXXX",
"XXXXXXXXXXXXXXXXXXXXXXXXXXXX0 A -.g.q.9.9.w.g.| 9 x B.{.]._._._._._._.].{.N.z k M.'._.~.~.).].H.X.g XXXXXXXXXXXXXXXXXXXXXXXXXXXX",
"XXXXXXXXXXXXXXXXXXXXXXXX# r R -.6.q.9.9.9.w.g.O.7 z N.].`.).).).).).).`.].m.j j N.[._.~.~./.).T.H.y.z + XXXXXXXXXXXXXXXXXXXXXXXX",
"XXXXXXXXXXXXXXXXXXXXXXXX@ t $.g.w.9.9.9.9.5.-.' H X.G.)./.~.~.~.~.~.~./.).F...W d.K.Y.^.~.~.~._.[.N.c X XXXXXXXXXXXXXXXXXXXXXXXX",
"XXXXXXXXXXXXXXXXXXXXXXXXO r O.g.w.9.9.q.q.=.N H p.K.Y.^.~.~.~.~.~.~.~.~.^.Y.K.d.W ..F.)./.~.~._.'.M.z . XXXXXXXXXXXXXXXXXXXXXXXX",
"XXXXXXXXXXXXXXXXXXXXXXXXr D -.f.q.9.9.w.g.} 7 l B.[._.~.~.~.~.~.~.~.~.~.~._.[.M.g g m.'._.~.~.).`.J.@.z XXXXXXXXXXXXXXXXXXXXXXXX",
"XXXXXXXXXXXXXXXXXXXX# r ^ <.7.w.0.9.9.w.g.| 7 j M.'._.~.~.~.~.~.~.~.~.~.~._.'.m.g g M.[._.~.~./._.Q.I.d.x + XXXXXXXXXXXXXXXXXXXX",
"XXXXXXXXXXXXXXXXXXXX$ 8 Y *.+.=.5.w.w.6.;.' H X.G.)./.~.~.~.~.~.~.~.~.~.~./.).F...W d.K.R.`.`.Y.D.N.Z.r.d # XXXXXXXXXXXXXXXXXXXX",
"XXXXXXXXXXXXXXXXXXXX& < 8 r e A ;.j.j.-.C H p.K.Y.^.~.~.~.~.~.~.~.~.~.~.~.~.^.Y.K.d.W X.J.{.{.K...j x s 2 % XXXXXXXXXXXXXXXXXXXX",
"XXXXXXXXXXXXXXXXXXXX& < 8 t r n ^ $.%.P 3 v A.|.'.(.)./.~.~.~.~.~.~.~.~./.).(.'.|.Z.z y 1.Z.V.d.W z c s 2 % XXXXXXXXXXXXXXXXXXXX",
"XXXXXXXXXXXXXXXXXXXX$ 8 Y *.&.^ n e r 4 & F S.|.[._._.).^.~.~.~.~.~.~.^.)._._.[.|.S.B - i z k W d.Z.S.r.d # XXXXXXXXXXXXXXXXXXXX",
"XXXXXXXXXXXXXXXXXXXX# r ~ <.9.,.A w r 5 * s r.Z.N.b.b.F.Y._._.).)._._.Y.F.b.b.N.Z.r.a ; i z j X.P.~.U.s.x + XXXXXXXXXXXXXXXXXXXX",
"XXXXXXXXXXXXXXXXXXXXXXXXr D ,.8.-.O.$.I 6 , s F c j g ..K.[.'._._.'.[.K...g j c F a ; p 4.N.m.J.!.P.@.k XXXXXXXXXXXXXXXXXXXXXXXX",
"XXXXXXXXXXXXXXXXXXXXXXXXo 0 T ;.7.h.h.:.D 6 & > p z k W d.N.M.m.m.M.N.d.W k z p : ; p o.L.{.{.Q.K.t.g   XXXXXXXXXXXXXXXXXXXXXXXX",
"XXXXXXXXXXXXXXXXXXXXXXXXXXXX0 S :.j.g.6.:.I 4 p 4.C.V.d.W j k z z k j W d.V.C.3.i i 4.L.E.].|.K.X.g XXXXXXXXXXXXXXXXXXXXXXXXXXXX",
"XXXXXXXXXXXXXXXXXXXXXXXXXXXXo 0 T -.6.g.h.O.q v Z..X XK...h j z z j h ..K. X.XC.z z N.{.].T.H.t.g   XXXXXXXXXXXXXXXXXXXXXXXXXXXX",
"XXXXXXXXXXXXXXXXXXXXXXXXXXXXXXXX0 A -.j.h.| 9 c Z. X[.Y.F.b.b.m.m.b.b.F.Y.[. XV.k j m.{.|.H.X.g XXXXXXXXXXXXXXXXXXXXXXXXXXXXXXXX",
"XXXXXXXXXXXXXXXXXXXXXXXXXXXXXXXXo 0 T :.7.-.Z H p.K.Y./._._._._._._._._./.Y.K.d.W X.J.Q.K.t.g   XXXXXXXXXXXXXXXXXXXXXXXXXXXXXXXX",
"XXXXXXXXXXXXXXXXXXXXXXXXXXXXXXXXXXXX0 S ;.8.>.' H X.F._._.).).).).).)._._.F...W d.P.!.K.X.g XXXXXXXXXXXXXXXXXXXXXXXXXXXXXXXXXXXX",
"XXXXXXXXXXXXXXXXXXXXXXXXXXXXXXXXXXXXo 0 T ,.9.#.7 j M.'._.~.~.~.~.~.~._.'.m.f j Z.~.P.t.g   XXXXXXXXXXXXXXXXXXXXXXXXXXXXXXXXXXXX",
"XXXXXXXXXXXXXXXXXXXXXXXXXXXXXXXXXXXXXXXX0 D <.%.8 l B.[._.~.~.~.~.~.~._.[.M.g k S.U.@.g XXXXXXXXXXXXXXXXXXXXXXXXXXXXXXXXXXXXXXXX",
"XXXXXXXXXXXXXXXXXXXXXXXXXXXXXXXXXXXXXXXXo w ~ _ m J u.K.R.)./.~.~./.).T.H.s.! ( z.p.j   XXXXXXXXXXXXXXXXXXXXXXXXXXXXXXXXXXXXXXXX",
"XXXXXXXXXXXXXXXXXXXXXXXXXXXXXXXXXXXXXXXXXXXXw m ' [ H ..K.'.).~.~.).].H. .E x.v.( g XXXXXXXXXXXXXXXXXXXXXXXXXXXXXXXXXXXXXXXXXXXX",
"XXXXXXXXXXXXXXXXXXXXXXXXXXXXXXXXXXXXXXXXXXXXo r / ` b G y.K.R.`.`.T.H.a.E ! x.k.z   XXXXXXXXXXXXXXXXXXXXXXXXXXXXXXXXXXXXXXXXXXXX",
"XXXXXXXXXXXXXXXXXXXXXXXXXXXXXXXXXXXXXXXXXXXXXXXXr M ` ] G ..K.}.}.H. .E z.x.) z XXXXXXXXXXXXXXXXXXXXXXXXXXXXXXXXXXXXXXXXXXXXXXXX",
"XXXXXXXXXXXXXXXXXXXXXXXXXXXXXXXXXXXXXXXXXXXXXXXXo r / ` b H p.S.S.l.W ! x.k.z   XXXXXXXXXXXXXXXXXXXXXXXXXXXXXXXXXXXXXXXXXXXXXXXX",
"XXXXXXXXXXXXXXXXXXXXXXXXXXXXXXXXXXXXXXXXXXXXXXXXXXXXr M ` { L c c ( c.x.) z XXXXXXXXXXXXXXXXXXXXXXXXXXXXXXXXXXXXXXXXXXXXXXXXXXXX",
"XXXXXXXXXXXXXXXXXXXXXXXXXXXXXXXXXXXXXXXXXXXXXXXXXXXXo r _ R 7 X X d i.l.z   XXXXXXXXXXXXXXXXXXXXXXXXXXXXXXXXXXXXXXXXXXXXXXXXXXXX",
"XXXXXXXXXXXXXXXXXXXXXXXXXXXXXXXXXXXXXXXXXXXXXXXXXXXXXXXXu 9 ; # # 1 f B XXXXXXXXXXXXXXXXXXXXXXXXXXXXXXXXXXXXXXXXXXXXXXXXXXXXXXXX",
"XXXXXXXXXXXXXXXXXXXXXXXXXXXXXXXXXXXXXXXXXXXXXXXXXXXXXXXX# $ & & & % # + XXXXXXXXXXXXXXXXXXXXXXXXXXXXXXXXXXXXXXXXXXXXXXXXXXXXXXXX",
"XXXXXXXXXXXXXXXXXXXXXXXXXXXXXXXXXXXXXXXXXXXXXXXXXXXXXXXXXXXXXXXXXXXXXXXXXXXXXXXXXXXXXXXXXXXXXXXXXXXXXXXXXXXXXXXXXXXXXXXXXXXXXXXX",
"XXXXXXXXXXXXXXXXXXXXXXXXXXXXXXXXXXXXXXXXXXXXXXXXXXXXXXXXXXXXXXXXXXXXXXXXXXXXXXXXXXXXXXXXXXXXXXXXXXXXXXXXXXXXXXXXXXXXXXXXXXXXXXXX",
"XXXXXXXXXXXXXXXXXXXXXXXXXXXXXXXXXXXXXXXXXXXXXXXXXXXXXXXXXXXXXXXXXXXXXXXXXXXXXXXXXXXXXXXXXXXXXXXXXXXXXXXXXXXXXXXXXXXXXXXXXXXXXXXX",
"XXXXXXXXXXXXXXXXXXXXXXXXXXXXXXXXXXXXXXXXXXXXXXXXXXXXXXXXXXXXXXXXXXXXXXXXXXXXXXXXXXXXXXXXXXXXXXXXXXXXXXXXXXXXXXXXXXXXXXXXXXXXXXXX",
"XXXXXXXXXXXXXXXXXXXXXXXXXXXXXXXXXXXXXXXXXXXXXXXXXXXXXXXXXXXXXXXXXXXXXXXXXXXXXXXXXXXXXXXXXXXXXXXXXXXXXXXXXXXXXXXXXXXXXXXXXXXXXXXX",
"XXXXXXXXXXXXXXXXXXXXXXXXXXXXXXXXXXXXXXXXXXXXXXXXXXXXXXXXXXXXXXXXXXXXXXXXXXXXXXXXXXXXXXXXXXXXXXXXXXXXXXXXXXXXXXXXXXXXXXXXXXXXXXXX",
"XXXXXXXXXXXXXXXXXXXXXXXXXXXXXXXXXXXXXXXXXXXXXXXXXXXXXXXXXXXXXXXXXXXXXXXXXXXXXXXXXXXXXXXXXXXXXXXXXXXXXXXXXXXXXXXXXXXXXXXXXXXXXXXX",
"XXXXXXXXXXXXXXXXXXXXXXXXXXXXXXXXXXXXXXXXXXXXXXXXXXXXXXXXXXXXXXXXXXXXXXXXXXXXXXXXXXXXXXXXXXXXXXXXXXXXXXXXXXXXXXXXXXXXXXXXXXXXXXXX",
"XXXXXXXXXXXXXXXXXXXXXXXXXXXXXXXXXXXXXXXXXXXXXXXXXXXXXXXXXXXXXXXXXXXXXXXXXXXXXXXXXXXXXXXXXXXXXXXXXXXXXXXXXXXXXXXXXXXXXXXXXXXXXXXX",
"XXXXXXXXXXXXXXXXXXXXXXXXXXXXXXXXXXXXXXXXXXXXXXXXXXXXXXXXXXXXXXXXXXXXXXXXXXXXXXXXXXXXXXXXXXXXXXXXXXXXXXXXXXXXXXXXXXXXXXXXXXXXXXXX"
};
