/* XPM */
static char *result[] = {
/* columns rows colors chars-per-pixel */
"64 64 69 1 ",
"  c #325E8B",
". c #34648E",
"X c #366791",
"o c #376993",
"O c #396C95",
"+ c #3A6F98",
"@ c #3C739C",
"# c #3D799F",
"$ c #3F7DA3",
"% c #437E9F",
"& c #417EA5",
"* c #4483A5",
"= c #4485AC",
"- c #448AAE",
"; c #4B92AF",
": c #478AB1",
"> c #498CB3",
", c #4791B3",
"< c #4B93B4",
"1 c #4D94BB",
"2 c #4D9FBF",
"3 c #509DB7",
"4 c #529FB8",
"5 c #4DA0BF",
"6 c #54A2B9",
"7 c #529EC4",
"8 c #4FA5C3",
"9 c #53A1C6",
"0 c #51A8C6",
"q c #53ACC8",
"w c #59B2C7",
"e c #55B3CF",
"r c #5BB5CA",
"t c #55B5D1",
"y c #57BAD4",
"u c #58BCD6",
"i c #63BBC6",
"p c #65BEC9",
"a c #5FC3D7",
"s c #5DC3D9",
"d c #66C2CC",
"f c #61C5D7",
"g c #62C7D9",
"h c #64CBDB",
"j c #68CDD9",
"k c #67D1DF",
"l c #6ED5DC",
"z c #70D5DA",
"x c #73DBDE",
"c c #5FCCE4",
"v c #60CFE6",
"b c #61D1E7",
"n c #69D4E2",
"m c #69D8E6",
"M c #62D3E9",
"N c #66D9EB",
"B c #6ADCEA",
"V c #74DEE0",
"C c #6FE5EF",
"Z c #73E4EA",
"A c #75EAEE",
"S c #7AEDEE",
"D c #7EF1ED",
"F c #6EE4F1",
"G c #70E6F0",
"H c #73EAF1",
"J c #7BF3F3",
"K c #81F8F1",
"L c None",
/* pixels */
"LLLLLLLLLLLLLLLLLLLLLLLLLLLLLLLLLLLLLLLLLLLLLLLLLLLLLLLLLLLLLLLL",
"LLLLLLLLLLLLLLLLLLLLLLLLLLLLLLLLLLLLLLLLLLLLLLLLLLLLLLLLLLLLLLLL",
"LLLLLLLLLLLLLLLLLLLLLLLLLLLLLLLLLLLLLLLLLLLLLLLLLLLLLLLLLLLLLLLL",
"LLLLLLLLLLLLLLLLLLLLLLLLLLLLLLLLLLLLLLLLLLLLLLLLLLLLLLLLLLLLLLLL",
"LLLLLLLLLLLLLLLLLLLLLLLLLLLLLLLLLLLLLLLLLLLLLLLLLLLLLLLLLLLLLLLL",
"LLLLLLLLLLLLLLLLLLLLLLLLLLLLLLLLLLLLLLLLLLLLLLLLLLLLLLLLLLLLLLLL",
"LLLLLLLLLLLLLLLLLLLLLLLLLLLLLLLLLLLLLLLLLLLLLLLLLLLLLLLLLLLLLLLL",
"LLLLLLLLLLLLLLLLLLLLLLLLLLLLLLLLLLLLLLLLLLLLLLLLLLLLLLLLLLLLLLLL",
"LLLLLLLLLLLLLLLLLLLLLLLLLLLLLLLLLLLLLLLLLLLLLLLLLLLLLLLLLLLLLLLL",
"LLLLLLLLLLLLLLLLLLLLLLLLLLLLLLLLLLLLLLLLLLLLLLLLLLLLLLLLLLLLLLLL",
"LLLLLLLLLLLLLLLLLLLLLLLLLLLLLLLLLLLLLLLLLLLLLLLLLLLLLLLLLLLLLLLL",
"LLLLLLLLLLLLLLLLLLLLLLLLLLLLLLLLLLLLLLLLLLLLLLLLLLLLLLLLLLLLLLLL",
"LLLLLLLLLLLLLLLLLLLLLLLLLLLLLLLLLLLLLLLLLLLLLLLLLLLLLLLLLLLLLLLL",
"LLLLLLLLLLLLLLLLLLLLLLLLLLLLLLLLLLLLLLLLLLLLLLLLLLLLLLLLLLLLLLLL",
"LLLLLLLLLLLLLLLLLLLLLLLL.X..X....X.XX...LLLLLLLLLLLLLLLLLLLLLLLL",
"LLLLLLLLLLLLLLLLLLLLLLLL$$$*&&$**$$$&*=*LLLLLLLLLLLLLLLLLLLLLLLL",
"LLLLLLLLLLLLLLLLLLLLXX.&8tteeeeeeeeeeuar*...LLLLLLLLLLLLLLLLLLLL",
"LLLLLLLLLLLLLLLLLLLL@+X&tMMbbbbbbbbbbNGh*o**LLLLLLLLLLLLLLLLLLLL",
"LLLLLLLLLLLLLLLLLLX@:=+$tMMbbbbbbbbbbMNu&*pp* LLLLLLLLLLLLLLLLLL",
"LLLLLLLLLLLLLLLLLL@&11&=8tteeeteeeeeeet8=3xV6*LLLLLLLLLLLLLLLLLL",
"LLLLLLLLLLLLLLLLX@:1771>=$$$$$$$$&$$$$$-8aCSxp*.LLLLLLLLLLLLLLLL",
"LLLLLLLLLLLLLLLL+&177771@o#$$$$$$$$$$#o$eNCZDx6*LLLLLLLLLLLLLLLL",
"LLLLLLLLLLLLLL $:1777771@@7tttteeeete5@*ebbNAAxi* LLLLLLLLLLLLLL",
"LLLLLLLLLLLLLL+&17777771@$ebbvbbcbbMMe$#ebvbBSKV6*LLLLLLLLLLLLLL",
"LLLLLLLLLLLLX@:17777779>@$tbMvvvbcbbbt$$ebbcbCDDlr*.LLLLLLLLLLLL",
"LLLLLLLLLLLL $177777771>=,yccccccccbct,-8usbcbZSJh*.LLLLLLLLLLLL",
"LLLLLLLLLLLL +17777771$=8uccvcccccccbsu8-,tbccMBGh*.LLLLLLLLLLLL",
"LLLLLLLLLLLL%&1777779>+$tMcccccccbcccbMe$$tbbccNCn6*LLLLLLLLLLLL",
"LLLLLLLLLL.@:177977771+$tcMccccbcccccbvt$$ebcccNCAVp*.LLLLLLLLLL",
"LLLLLLLLLLX+=1>177771>=,ybcccccccvcccbcy,-8ucbcchjli*.LLLLLLLLLL",
"LLLLLLLLLLXO@@@&7771&&9uccccccbccbcvccccu0-,ybMu<***+.LLLLLLLLLL",
"LLLLLLLLLLXO@@@&=11=+&tMccMccccccccccbcvMt$@2te8-$*&OXLLLLLLLLLL",
"LLLLLLLLLLX+=11=$$$+X$tMbbcbccccccccbccMMt&o#$$-8uhw&.LLLLLLLLLL",
"LLLLLLLLLLX$:171$+++X$8teeeyccbbbbccyeett8#o@$$,amkr*.LLLLLLLLLL",
"LLLLLLLLLLLL+&771>>=+o$$$$$:uMbccbMy:$$$&#o#5eeaZl6*LLLLLLLLLLLL",
"LLLLLLLLLLLL @=77777$+Xo#$$-8ttetet8-$$#oo@,sbMNld* LLLLLLLLLLLL",
"LLLLLLLLLLLLLL$&77771=+$5tt8-$$$$$$-8ty8@@5scMFj6*LLLLLLLLLLLLLL",
"LLLLLLLLLLLLLL +&77791@$tMMu:$$$$$$,yMMe$$eMNNjr*.LLLLLLLLLLLLLL",
"LLLLLLLLLLLLLLLL@&779>+$tMMcyeeteeeycMMt$$eBAl4*LLLLLLLLLLLLLLLL",
"LLLLLLLLLLLLLLLL.@=>71$=8yccMccbccccccy8-<umlp* LLLLLLLLLLLLLLLL",
"LLLLLLLLLLLLLLLLLL@&771:=>ycbcbccMccvy,-8smk6*LLLLLLLLLLLLLLLLLL",
"LLLLLLLLLLLLLLLLLL $&77>+$tbMccbcccMbe#$amkr*.LLLLLLLLLLLLLLLLLL",
"LLLLLLLLLLLLLLLLLLLL@&7>+$tMccccccccce$*jx5*LLLLLLLLLLLLLLLLLLLL",
"LLLLLLLLLLLLLLLLLLLL.@=>$=8uccccccccs8-<dd* LLLLLLLLLLLLLLLLLLLL",
"LLLLLLLLLLLLLLLLLLLLLL$&:>&>ybvccMbu,-0q;*LLLLLLLLLLLLLLLLLLLLLL",
"LLLLLLLLLLLLLLLLLLLLLL +:>&&8ycvccu8;;q8#.LLLLLLLLLLLLLLLLLLLLLL",
"LLLLLLLLLLLLLLLLLLLLLLLL+&::*>uMMu,;dd<$LLLLLLLLLLLLLLLLLLLLLLLL",
"LLLLLLLLLLLLLLLLLLLLLLLLX@::$=8tt8:,dd*.LLLLLLLLLLLLLLLLLLLLLLLL",
"LLLLLLLLLLLLLLLLLLLLLLLLLL@&>>=&&-0q<*LLLLLLLLLLLLLLLLLLLLLLLLLL",
"LLLLLLLLLLLLLLLLLLLLLLLLLL.@:=@..#80$.LLLLLLLLLLLLLLLLLLLLLLLLLL",
"LLLLLLLLLLLLLLLLLLLLLLLLLLLL@@O..O&$LLLLLLLLLLLLLLLLLLLLLLLLLLLL",
"LLLLLLLLLLLLLLLLLLLLLLLLLLLL.XXXoX..LLLLLLLLLLLLLLLLLLLLLLLLLLLL",
"LLLLLLLLLLLLLLLLLLLLLLLLLLLLLLLLLLLLLLLLLLLLLLLLLLLLLLLLLLLLLLLL",
"LLLLLLLLLLLLLLLLLLLLLLLLLLLLLLLLLLLLLLLLLLLLLLLLLLLLLLLLLLLLLLLL",
"LLLLLLLLLLLLLLLLLLLLLLLLLLLLLLLLLLLLLLLLLLLLLLLLLLLLLLLLLLLLLLLL",
"LLLLLLLLLLLLLLLLLLLLLLLLLLLLLLLLLLLLLLLLLLLLLLLLLLLLLLLLLLLLLLLL",
"LLLLLLLLLLLLLLLLLLLLLLLLLLLLLLLLLLLLLLLLLLLLLLLLLLLLLLLLLLLLLLLL",
"LLLLLLLLLLLLLLLLLLLLLLLLLLLLLLLLLLLLLLLLLLLLLLLLLLLLLLLLLLLLLLLL",
"LLLLLLLLLLLLLLLLLLLLLLLLLLLLLLLLLLLLLLLLLLLLLLLLLLLLLLLLLLLLLLLL",
"LLLLLLLLLLLLLLLLLLLLLLLLLLLLLLLLLLLLLLLLLLLLLLLLLLLLLLLLLLLLLLLL",
"LLLLLLLLLLLLLLLLLLLLLLLLLLLLLLLLLLLLLLLLLLLLLLLLLLLLLLLLLLLLLLLL",
"LLLLLLLLLLLLLLLLLLLLLLLLLLLLLLLLLLLLLLLLLLLLLLLLLLLLLLLLLLLLLLLL",
"LLLLLLLLLLLLLLLLLLLLLLLLLLLLLLLLLLLLLLLLLLLLLLLLLLLLLLLLLLLLLLLL",
"LLLLLLLLLLLLLLLLLLLLLLLLLLLLLLLLLLLLLLLLLLLLLLLLLLLLLLLLLLLLLLLL"
};
