/* XPM */
static char *result[] = {
/* columns rows colors chars-per-pixel */
"64 64 35 1 ",
"  c black",
". c #020202",
"X c #3C1F0D",
"o c #3D200D",
"O c #3F210D",
"+ c #45250D",
"@ c #46260D",
"# c #47260D",
"$ c #51250A",
"% c #593609",
"& c #6B300C",
"* c #693F0A",
"= c #723C05",
"- c #76470A",
"; c #77470B",
": c #71420C",
"> c #76460C",
", c #79490A",
"< c #7B4A0A",
"1 c #7C4B0A",
"2 c #7E4C0B",
"3 c #7F4D0B",
"4 c #804D0B",
"5 c #814D0B",
"6 c #824E0B",
"7 c #85500B",
"8 c #86500B",
"9 c #86510B",
"0 c #87510B",
"q c #88510B",
"w c #88520B",
"e c #89520B",
"r c #89530B",
"t c #8A530B",
"y c None",
/* pixels */
"yyyyyyyyyyyyyyyyyyyyyyyyyyyyyyyyyyyyyyyyyyyyyyyyyyyyyyyyyyyyyyyy",
"yyyyyyyyyyyyyyyyyyyyyyyyyyyyyyyyyyyyyyyyyyyyyyyyyyyyyyyyyyyyyyyy",
"yyyyyyyyyyyyyyyyyyyyyyyyyyyyyyyyyyyyyyyyyyyyyyyyyyyyyyyyyyyyyyyy",
"yyyyyyyyyyyyyyyyyyyyyyyyyyyyyyyyyyyyyyyyyyyyyyyyyyyyyyyyyyyyyyyy",
"yyyyyyyyyyyyyyyyyyyyyyyyyyyyyyyyyyyyyyyyyyyyyyyyyyyyyyyyyyyyyyyy",
"yyyyyyyyyyyyyyyyyyyyyyyyyyyyyyyyyyyyyyyyyyyyyyyyyyyyyyyyyyyyyyyy",
"yyyyyyyyyyyyyyyyyyyyyyyyyyyyyyyyyyyyyyyyyyyyyyyyyyyyyyyyyyyyyyyy",
"yyyyyyyyyyyyyyyyyyyyyyyyyyyyyyyyyyyyyyyyyyyyyyyyyyyyyyyyyyyyyyyy",
"yyyyyyyyyyyyyyyyyyyyyyyyyyyyy     .yyyyyyyyyyyyyyyyyyyyyyyyyyyyy",
"yyyyyyyyyyyyyyyyyyyyyyyyyyyyy tttt. yyyyyyyyyyyyyyyyyyyyyyyyyyyy",
"yyyyyyyyyyyyyyyyyyyyyyyyyyyyy.ttttt yyyyyyyyyyyyyyyyyyyyyyyyyyyy",
"yyyyyyyyyyyyyyyyyyyyyyyyyyyyy.tttt$ yyyyyyyyyyyyyyyyyyyyyyyyyyyy",
"yyy            .  yyyyyyyyyyy.tttt$ yyyyyyyyyyyyyyyyyyyyyyyyyyyy",
"yy  ttttttttttttt                  ......                   yyyy",
"y.ttttttttt=========tttttttttttttttttttttttttttttttttttttttt    ",
"yy =ttttttttttttttttttttttttttttttttttttttttttttttttt=======ttt ",
"yy  $=ttttttXXXXXXXXttXX5ttttttttrXXttXXXXXXXXXttXXXXXXXXXqettt ",
"yyy  $=ttttt7X%262,XtttXXttttttttXXtttXtttXtttXttXtttXtttXttttt.",
"yyyy  .$$$tttX6tttt4ttttXXtttttrXXttttttttXttttttttttXttttttttt.",
"y    ttttttttX3tttttttttXX:ttttXXtttttttttXttttttttttXttttttt=.y",
"  tttttttttttX4ttttttttttXX5ttXXttttttttttXttttttttttXttttt=$.yy",
" ttttttt===ttX6tttttttttt>XXtOXwttt=======Xttttttttt=Xt$$$$... y",
" ttttttttttttX*ttXtttttttttXX#ttttttttttttX======ttttXtttttttt.y",
".$tt========tXXXXXttttttttt0XettttttttttttXtttttt==ttXttttttttt.",
"  $=tttttttttX<6-Xttttttttt@Xo8tttttttttttXttttttttttXttttttttt.",
"yy  $$=ttttttX5tt7ttttttttX+tXX9ttttttttttXttttttttttXtttttttt.y",
"y. ttttttttttXettttttttttXXtttXX9tttttttttXttttttttttXtttttt=.yy",
".ttttttttttttXttttttttttXXtttttXXtttttttttXttttttttttXtttt=$  yy",
".=$$====tttttX0ttttXtttXXtttttttXXttttXtttXtttXt====tXttttttt   ",
"y. tttttttttXXXXXXXX==XX=ttttttt;XXrttXXXXXXXXX=tt=XXXXX=tttttt ",
"yy ====$$$tt5360861<ttttttttttttttttttttttttttttttttttttttttttt.",
"yy        ===========================$$$$$====tttttttttttttttt  ",
"yyyyyyyyy               ...........       $$$$$$$$$$$$$$$$$$$$ y",
"yyyyyyyyyyyyyyyyyyyyyyyyyyyyy $$$$$ yyyyyy.....................y",
"yyyyyyyyyyyyyyyyyyyyyyyyyyyyy $===$ yyyyyyyyyyyyyyyyyyyyyyyyyyyy",
"yyyyyyyyyyyyyyyyyyyyyyyyyyyyy $ttt$ yyyyyyyyyyyyyyyyyyyyyyyyyyyy",
"yyyyyyyyyyyyyyyyyyyyyyyyyyyyy &ttt$ yyyyyyyyyyyyyyyyyyyyyyyyyyyy",
"yyyyyyyyyyyyyyyyyyyyyyyyyyyyy =ttt$ yyyyyyyyyyyyyyyyyyyyyyyyyyyy",
"yyyyyyyyyyyyyyyyyyyyyyyyyyyyy =ttt$ yyyyyyyyyyyyyyyyyyyyyyyyyyyy",
"yyyyyyyyyyyyyyyyyyyyyyyyyyyyy =ttt= yyyyyyyyyyyyyyyyyyyyyyyyyyyy",
"yyyyyyyyyyyyyyyyyyyyyyyyyyyyy tttt= yyyyyyyyyyyyyyyyyyyyyyyyyyyy",
"yyyyyyyyyyyyyyyyyyyyyyyyyyyyy tttt= yyyyyyyyyyyyyyyyyyyyyyyyyyyy",
"yyyyyyyyyyyyyyyyyyyyyyyyyyyyy tttt= yyyyyyyyyyyyyyyyyyyyyyyyyyyy",
"yyyyyyyyyyyyyyyyyyyyyyyyyyyyy tttt= yyyyyyyyyyyyyyyyyyyyyyyyyyyy",
"yyyyyyyyyyyyyyyyyyyyyyyyyyyyy tttt=.yyyyyyyyyyyyyyyyyyyyyyyyyyyy",
"yyyyyyyyyyyyyyyyyyyyyyyyyyyyy tttt=.yyyyyyyyyyyyyyyyyyyyyyyyyyyy",
"yyyyyyyyyyyyyyyyyyyyyyyyyyyyy tttt=.yyyyyyyyyyyyyyyyyyyyyyyyyyyy",
"yyyyyyyyyyyyyyyyyyyyyyyyyyyyy tt=t=.yyyyyyyyyyyyyyyyyyyyyyyyyyyy",
"yyyyyyyyyyyyyyyyyyyyyyyyyyyyy tt=t= yyyyyyyyyyyyyyyyyyyyyyyyyyyy",
"yyyyyyyyyyyyyyyyyyyyyyyyyyyyy tt=t= yyyyyyyyyyyyyyyyyyyyyyyyyyyy",
"yyyyyyyyyyyyyyyyyyyyyyyyyyyyy tt=t= yyyyyyyyyyyyyyyyyyyyyyyyyyyy",
"yyyyyyyyyyyyyyyyyyyyyyyyyyyyy tttt= yyyyyyyyyyyyyyyyyyyyyyyyyyyy",
"yyyyyyyyyyyyyyyyyyyyyyyyyyyyy tttt= yyyyyyyyyyyyyyyyyyyyyyyyyyyy",
"yyyyyyyyyyyyyyyyyyyyyyyyyyyyy tttt= yyyyyyyyyyyyyyyyyyyyyyyyyyyy",
"yyyyyyyyyyyyyyyyyyyyyyyyyyyyy tttt= yyyyyyyyyyyyyyyyyyyyyyyyyyyy",
"yyyyyyyyyyyyyyyyyyyyyyyyyyyyy tttt= yyyyyyyyyyyyyyyyyyyyyyyyyyyy",
"yyyyyyyyyyyyyyyyyyyyyyyyyyyyy tttt= yyyyyyyyyyyyyyyyyyyyyyyyyyyy",
"yyyyyyyyyyyyyyyyyyyyyyyyyyyyy tttt= yyyyyyyyyyyyyyyyyyyyyyyyyyyy",
"yyyyyyyyyyyyyyyyyyyyyyyyyyyyy tttt$ yyyyyyyyyyyyyyyyyyyyyyyyyyyy",
"yyyyyyyyyyyyyyyyyyyyyyyyyyyyy tt=t$ yyyyyyyyyyyyyyyyyyyyyyyyyyyy",
"yyyyyyyyyyyyyyyyyyyyyyyyyyyyy $t==$ yyyyyyyyyyyyyyyyyyyyyyyyyyyy",
"yyyyyyyyyyyyyyyyyyyyyyyyyyyyy $tt=$ yyyyyyyyyyyyyyyyyyyyyyyyyyyy",
"yyyyyyyyyyyyyyyyyyyyyyyyyyyyy $tt$$ yyyyyyyyyyyyyyyyyyyyyyyyyyyy",
"yyyyyyyyyyyyyyyyyyyyyyyyyyyyy    .  yyyyyyyyyyyyyyyyyyyyyyyyyyyy"
};
