/* XPM */
static char *result[] = {
/* columns rows colors chars-per-pixel */
"64 64 177 2 ",
"   c #0F040B",
".  c #0F050B",
"X  c #110605",
"o  c #120709",
"O  c #10060A",
"+  c #12080A",
"@  c #140F0F",
"#  c #161715",
"$  c #1A1E17",
"%  c #16121B",
"&  c #16131B",
"*  c #17141B",
"=  c #17151B",
"-  c #17181C",
";  c #181D18",
":  c #181C19",
">  c #181D19",
",  c #191E1A",
"<  c #191F1A",
"1  c #18191C",
"2  c #19241F",
"3  c #1B2426",
"4  c #1E352C",
"5  c #1E372D",
"6  c #1E382E",
"7  c #233320",
"8  c #4A1C1B",
"9  c #711F20",
"0  c #2A4427",
"q  c #314B22",
"w  c #314A23",
"e  c #214235",
"r  c #284734",
"t  c #212A4A",
"y  c #222B4A",
"u  c #222C4A",
"i  c #2D365E",
"p  c #2F3A5D",
"a  c #272F62",
"s  c #293361",
"d  c #293461",
"f  c #293C6C",
"g  c #293D6C",
"h  c #452149",
"j  c #255040",
"k  c #265140",
"l  c #275745",
"z  c #285340",
"x  c #275946",
"c  c #32765A",
"v  c #32775A",
"b  c #32785A",
"n  c #33795C",
"m  c #337B5C",
"M  c #274465",
"N  c #294A65",
"B  c #2B4769",
"V  c #2D5366",
"C  c #2D5466",
"Z  c #2D5F65",
"A  c #2D4777",
"S  c #2D4977",
"D  c #2E4E75",
"F  c #2D4C76",
"G  c #2D4D76",
"H  c #2B4079",
"J  c #2C4179",
"K  c #2C4578",
"L  c #2D457D",
"P  c #2E4E78",
"I  c #2F5B72",
"U  c #2F507A",
"Y  c #326964",
"T  c #32686E",
"R  c #32696E",
"E  c #317866",
"W  c #347A66",
"Q  c #357E66",
"!  c #3E7B66",
"~  c #35776A",
"^  c #367F68",
"/  c #367F69",
"(  c #357C6D",
")  c #316470",
"_  c #316074",
"`  c #56444D",
"'  c #4E5E58",
"]  c #6A5F47",
"[  c #447C4E",
"{  c #426856",
"}  c #416559",
"|  c #966720",
" . c #9B6C22",
".. c #8C663B",
"X. c #8A653C",
"o. c #8A673D",
"O. c #8C6D3D",
"+. c #398057",
"@. c #368366",
"#. c #368467",
"$. c #378766",
"%. c #378A65",
"&. c #378B65",
"*. c #348866",
"=. c #378866",
"-. c #378966",
";. c #368A66",
":. c #378A66",
">. c #378B66",
",. c #3D8E65",
"<. c #368168",
"1. c #438B50",
"2. c #428953",
"3. c #4F8B5B",
"4. c #548259",
"5. c #4F9059",
"6. c #529358",
"7. c #519558",
"8. c #51955A",
"9. c #55975E",
"0. c #5AA343",
"q. c #5BA34D",
"w. c #5CA44C",
"e. c #5FAB4B",
"r. c #5EB04B",
"t. c #56A753",
"y. c #53A454",
"u. c #54A654",
"i. c #54A754",
"p. c #57AB54",
"a. c #57AD54",
"s. c #57AC55",
"d. c #5FA55C",
"f. c #5CB352",
"g. c #65BA47",
"h. c #63B74B",
"j. c #65B749",
"k. c #65B948",
"l. c #64B849",
"z. c #65B849",
"x. c #65B949",
"c. c #66B948",
"v. c #66B949",
"b. c #66BA49",
"n. c #67BC48",
"m. c #67BC4A",
"M. c #6AB94A",
"N. c #6ABA4A",
"B. c #6BBA4A",
"V. c #6BBB4A",
"C. c #6DBF48",
"Z. c #75BD4E",
"A. c #75BF4E",
"S. c #68A35F",
"D. c #6AAF5D",
"F. c #63B258",
"G. c #70B357",
"H. c #78BF56",
"J. c #438F62",
"K. c #449163",
"L. c #439264",
"P. c #449B60",
"I. c #5AA562",
"U. c #5DA964",
"Y. c #74C049",
"T. c #79C24A",
"R. c #79C44A",
"E. c #7EC050",
"W. c #A88029",
"Q. c #BA8521",
"!. c #898143",
"~. c #85C54F",
"^. c #8DC84F",
"/. c #84C054",
"(. c #85C154",
"). c #8BC650",
"_. c None",
/* pixels */
"_._._._._._._._._._._._._._._._._._._._._._._._._._._._._._._._._._._._._._._._._._._._._._._._._._._._._._._._._._._._._._._._.",
"_._._._._._._._._._._._._._._._._._._._._._._._._._._._._._._._._._._._._._._._._._._._._._._._._._._._._._._._._._._._._._._._.",
"_._._._._._._._._._._._._._._._._._._._._._._._._._._._._._._._._._._._._._._._._._._._._._._._._._._._._._._._._._._._._._._._.",
"_._._._._._._._._._._._._._._._._._._._._._._._._._._._._._._._._._._._._._._._._._._._._._._._._._._._._._._._._._._._._._._._.",
"_._._._._._._._._._._._._._._._._._._._._._._._._._._._._._._._._._._._._._._._._._._._._._._._._._._._._._._._._._._._._._._._.",
"_._._._._._._._._._._._._._._._._._._._._._._._._._._._._._._._._._._._._._._._._._._._._._._._._._._._._._._._._._._._._._._._.",
"_._._._._._._._._._._._._._._._._._._._._._._._._._._._._._._._._._._._._._._._._._._._._._._._._._._._._._._._._._._._._._._._.",
"_._._._._._._._._._._._._._._._._._._._._._._._._._._._._._._._._._._._._._._._._._._._._._._._._._._._._._._._._._._._._._._._.",
"_._._._._._._._._._._._._._._._._._._._._._._._._._._._._._._._._._._._._._._._._._._._._._._._._._._._._._._._._._._._._._._._.",
"_._._._._._._._._._._._._._._._._._._._._._._._._._._._._._._._._._._._._._._._._._._._._._._._._._._._._._._._._._._._._._._._.",
"_._._._._._._._._._._._._._._._._._._._._._._._._._._._._._._._._._._._._._._._._._._._._._._._._._._._._._._._._._._._._._._._.",
"_._._._._._._._._._._._._._._._._._._._._._._._._._._._._._._._._._._._._._._._._._._._._._._._._._._._._._._._._._._._._._._._.",
"_._._._._._._._._._._._._._._._._._._._._._._._._._._._._._._._._._._._._._._._._._._._._._._._._._._._._._._._._._._._._._._._.",
"_._._._._._._._._._._._._._._._._._._._._._._._._._._._._._._._._._._._._._._._._._._._._._._._._._._._._._._._._._._._._._._._.",
"_._._._._._._._._._._._._._._._._._._._._._._._._._._._._._._._._._._._._._._._._._._._._._._._._._._._._._._._._._._._._._._._.",
"_._._._._._._._._._._._._._._._._._._._._._._._._._._._._._._._._._._._._._._._._._._._._._._._._._._._._._._._._._._._._._._._.",
"_._._._._._._._._._._._._._._._._._._._._._._._._._._._._._._._._._._._._._._._._._._._._._._._._._._._._._._._._._._._._._._._.",
"_._._._._._._._._._._._._._._._._._._._._._._._._._._._._._._._._._._._._._._._._._._._._._._._._._._._._._._._._._._._._._._._.",
"_._._._._._._._._._._._._._._._._._._._._._._._._._._._._._._._._._._._._._._._._._._._._._._._._._._._._._._._._._._._._._._._.",
"_._._._._._._._._._._._._._._._._._._._._._._._._._._._._._._._._._._._._._._._._._._._._._._._._._._._._._._._._._._._._._._._.",
"_._._._._._._._._._._._._._._._._._._._._._._._._._._._._._._._._._._._._._._._._._._._._._._._._._._._._._._._._._._._._._._._.",
"_._._._._._._._._._._._._._._._._._._._._._._._._._._._.o O   . .   O o _._._._._._._._._._._._._._._._._._._._._._._._._._._._.",
"_._._._._._._._._._._._._._._._._._._._._._._._._._._._.4 0 q w w q 0 4 _._._._._._._._._._._._._._._._._._._._._._._._._._._._.",
"_._._._._._._._._._._._._._._._._._._._._._._._._.: $ 7 +.p.c.j.j.c.p.+.7 $ : _._._._._._._._._._._._._._._._._._._._._._._._._.",
"_._._._._._._._._._._._._._._._._._._._._._._._.@ k 2.0.r.h.v.x.x.v.h.r.0.2.k @ _._._._._._._._._._._._._._._._._._._._._._._._.",
"_._._._._._._._._._._._._._._._._._._._._._._.> z 1.f.m.b.z.z.z.z.z.z.b.m.f.1.z > _._._._._._._._._._._._._._._._._._._._._._._.",
"_._._._._._._._._._._._._._._._._._._._._._.X ; m F.Y.l.z.b.n.n.n.n.b.z.l.Y.F.m ; X _._._._._._._._._._._._._._._._._._._._._._.",
"_._._._._._._._._._._._._._._._._._._._._.= % 3 n D.E.B.v.e.q.w.w.q.e.v.B.E.D.n 3 % = _._._._._._._._._._._._._._._._._._._._._.",
"_._._._._._._._._._._._._._._._._._._._.@ u f B Q ,.d.~.M.{ i p p i { M.~.d.,.Q B f u @ _._._._._._._._._._._._._._._._._._._._.",
"_._._._._._._._._._._._._._._._._._._.* t g L P / *.L.9.} ] X.o.o.X.] } 9.L.*./ P L g t * _._._._._._._._._._._._._._._._._._._.",
"_._._._._._._._._._._._._._._._._._._.1 V U J G ^ %.;.E a ..Q.| | Q...a E ;.%.^ G J U V 1 _._._._._._._._._._._._._._._._._._._.",
"_._._._._._._._._._._._._._._._._._._.< c _ H G ^ :.>.W s O. .8 8  .O.s W >.:.^ G H _ c < _._._._._._._._._._._._._._._._._._._.",
"_._._._._._._._._._._._._._._._._._._.< v _ H G ^ :.>.W d !.W.9 9 W.!.d W >.:.^ G H _ v < _._._._._._._._._._._._._._._._._._._.",
"_._._._._._._._._._._._._._._._._._._.< v ( I D <.&.-.@.Y ' ` h h ` ' Y @.-.&.<.D I ( v < _._._._._._._._._._._._._._._._._._._.",
"_._._._._._._._._._._._._._._._._._._., v P.! S R <.%.-.>.Z M N N M Z >.-.%.<.R S ! P.v , _._._._._._._._._._._._._._._._._._._.",
"_._._._._._._._._._._._._._._._._._._., b a.6.F K T #.=.=.$.$.$.$.$.$.=.=.#.T K F 6.a.b , _._._._._._._._._._._._._._._._._._._.",
"_._._._._._._._._._._._._._._._._._._., v s.t.~ F A ) =.-.-.-.-.-.-.-.-.=.) A F ~ t.s.v , _._._._._._._._._._._._._._._._._._._.",
"_._._._._._._._._._._._._._._._._._._.- C S.A.y.5.3.7.u.i.u.u.u.u.u.u.i.u.7.3.5.y.A.S.C - _._._._._._._._._._._._._._._._._._._.",
"_._._._._._._._._._._._._._._._._._._.& y 4.H.T.R.C.g.k.k.k.k.k.k.k.k.k.k.g.C.R.T.H.4.y & _._._._._._._._._._._._._._._._._._._.",
"_._._._._._._._._._._._._._._._._._._._.@ j 8./.(.Z.N.V.V.V.V.V.V.V.V.V.V.N.Z.(./.8.j @ _._._._._._._._._._._._._._._._._._._._.",
"_._._._._._._._._._._._._._._._._._._._._.# r J.K.G.^.).).).).).).).).).).^.G.K.J.r # _._._._._._._._._._._._._._._._._._._._._.",
"_._._._._._._._._._._._._._._._._._._._._._.2 5 6 [ U.I.I.I.I.I.I.I.I.I.I.U.[ 6 5 2 _._._._._._._._._._._._._._._._._._._._._._.",
"_._._._._._._._._._._._._._._._._._._._._._._.o + e x l l l l l l l l l l x e + o _._._._._._._._._._._._._._._._._._._._._._._.",
"_._._._._._._._._._._._._._._._._._._._._._._._._.@ @ @ @ @ @ @ @ @ @ @ @ @ @ _._._._._._._._._._._._._._._._._._._._._._._._._.",
"_._._._._._._._._._._._._._._._._._._._._._._._._._._._._._._._._._._._._._._._._._._._._._._._._._._._._._._._._._._._._._._._.",
"_._._._._._._._._._._._._._._._._._._._._._._._._._._._._._._._._._._._._._._._._._._._._._._._._._._._._._._._._._._._._._._._.",
"_._._._._._._._._._._._._._._._._._._._._._._._._._._._._._._._._._._._._._._._._._._._._._._._._._._._._._._._._._._._._._._._.",
"_._._._._._._._._._._._._._._._._._._._._._._._._._._._._._._._._._._._._._._._._._._._._._._._._._._._._._._._._._._._._._._._.",
"_._._._._._._._._._._._._._._._._._._._._._._._._._._._._._._._._._._._._._._._._._._._._._._._._._._._._._._._._._._._._._._._.",
"_._._._._._._._._._._._._._._._._._._._._._._._._._._._._._._._._._._._._._._._._._._._._._._._._._._._._._._._._._._._._._._._.",
"_._._._._._._._._._._._._._._._._._._._._._._._._._._._._._._._._._._._._._._._._._._._._._._._._._._._._._._._._._._._._._._._.",
"_._._._._._._._._._._._._._._._._._._._._._._._._._._._._._._._._._._._._._._._._._._._._._._._._._._._._._._._._._._._._._._._.",
"_._._._._._._._._._._._._._._._._._._._._._._._._._._._._._._._._._._._._._._._._._._._._._._._._._._._._._._._._._._._._._._._.",
"_._._._._._._._._._._._._._._._._._._._._._._._._._._._._._._._._._._._._._._._._._._._._._._._._._._._._._._._._._._._._._._._.",
"_._._._._._._._._._._._._._._._._._._._._._._._._._._._._._._._._._._._._._._._._._._._._._._._._._._._._._._._._._._._._._._._.",
"_._._._._._._._._._._._._._._._._._._._._._._._._._._._._._._._._._._._._._._._._._._._._._._._._._._._._._._._._._._._._._._._.",
"_._._._._._._._._._._._._._._._._._._._._._._._._._._._._._._._._._._._._._._._._._._._._._._._._._._._._._._._._._._._._._._._.",
"_._._._._._._._._._._._._._._._._._._._._._._._._._._._._._._._._._._._._._._._._._._._._._._._._._._._._._._._._._._._._._._._.",
"_._._._._._._._._._._._._._._._._._._._._._._._._._._._._._._._._._._._._._._._._._._._._._._._._._._._._._._._._._._._._._._._.",
"_._._._._._._._._._._._._._._._._._._._._._._._._._._._._._._._._._._._._._._._._._._._._._._._._._._._._._._._._._._._._._._._.",
"_._._._._._._._._._._._._._._._._._._._._._._._._._._._._._._._._._._._._._._._._._._._._._._._._._._._._._._._._._._._._._._._.",
"_._._._._._._._._._._._._._._._._._._._._._._._._._._._._._._._._._._._._._._._._._._._._._._._._._._._._._._._._._._._._._._._.",
"_._._._._._._._._._._._._._._._._._._._._._._._._._._._._._._._._._._._._._._._._._._._._._._._._._._._._._._._._._._._._._._._.",
"_._._._._._._._._._._._._._._._._._._._._._._._._._._._._._._._._._._._._._._._._._._._._._._._._._._._._._._._._._._._._._._._."
};
