/* XPM */
static char *result[] = {
/* columns rows colors chars-per-pixel */
"64 64 104 2 ",
"   c #120522",
".  c #150C23",
"X  c #171224",
"o  c #191425",
"O  c #181827",
"+  c #171E2D",
"@  c #191C2A",
"#  c #211827",
"$  c #251B29",
"%  c #2B1D2B",
"&  c #1A222C",
"*  c #1C2A2F",
"=  c #182630",
"-  c #192C34",
";  c #1A3337",
":  c #16363D",
">  c #193439",
",  c #17383E",
"<  c #193C3E",
"1  c #202729",
"2  c #222C2B",
"3  c #33222E",
"4  c #23342E",
"5  c #27382D",
"6  c #293B2E",
"7  c #3B2631",
"8  c #332E35",
"9  c #3F2832",
"0  c #253C31",
"q  c #25363A",
"w  c #20383C",
"e  c #412932",
"r  c #4C2E33",
"t  c #533034",
"y  c #5C3435",
"u  c #633736",
"i  c #6D3C38",
"p  c #703D39",
"a  c #1D453F",
"s  c #2B422F",
"d  c #2A4431",
"f  c #2E4D33",
"g  c #314F33",
"h  c #2E5237",
"j  c #2F5C3B",
"k  c #335433",
"l  c #365B35",
"z  c #385F36",
"x  c #315D3A",
"c  c #396237",
"v  c #32633D",
"b  c #346A3F",
"n  c #3C6B3A",
"m  c #3E743D",
"M  c #764039",
"N  c #40743B",
"B  c #427A3D",
"V  c #193E40",
"C  c #1F4B41",
"Z  c #214D40",
"A  c #245341",
"S  c #275A42",
"D  c #295E43",
"F  c #2B6243",
"G  c #2F6A44",
"H  c #316E44",
"J  c #347445",
"K  c #3A7741",
"L  c #377A46",
"P  c #397E47",
"I  c #47833E",
"U  c #49883F",
"Y  c #3B8347",
"T  c #3F8947",
"R  c #3D8648",
"E  c #3E8A48",
"W  c #418443",
"Q  c #458E46",
"!  c #4A8B40",
"~  c #418D48",
"^  c #4E9542",
"/  c #4F9A44",
"(  c #459449",
")  c #479849",
"_  c #499B49",
"`  c #519B43",
"'  c #4DA34A",
"]  c #55A546",
"[  c #57AB47",
"{  c #58AD47",
"}  c #50A74A",
"|  c #53AC4B",
" . c #59AF48",
".. c #56B14B",
"X. c #5AB64B",
"o. c #5CBA4C",
"O. c #60BF4B",
"+. c #5FC04C",
"@. c #63C64D",
"#. c #64C94D",
"$. c #67D14F",
"%. c #64CD50",
"&. c #68D350",
"*. c None",
/* pixels */
"*.*.*.*.*.*.*.*.*.*.*.*.*.*.*.*.*.*.*.*.*.*.*.*.*.*.*.*.*.*.*.*.*.*.*.*.*.*.*.*.*.*.*.*.*.*.*.*.*.*.*.*.*.*.*.*.*.*.*.*.*.*.*.*.",
"*.*.*.*.*.*.*.*.*.*.*.*.*.*.*.*.*.*.*.*.*.*.*.*.*.*.*.*.*.*.*.*.*.*.*.*.*.*.*.*.*.*.*.*.*.*.*.*.*.*.*.*.*.*.*.*.*.*.*.*.*.*.*.*.",
"*.*.*.*.*.*.*.*.*.*.*.*.*.*.*.*.*.*.*.*.*.*.*.*.*.*.*.*.*.*.*.*.*.*.*.*.*.*.*.*.*.*.*.*.*.*.*.*.*.*.*.*.*.*.*.*.*.*.*.*.*.*.*.*.",
"*.*.*.*.*.*.*.*.*.*.*.*.*.*.*.*.*.*.*.*.*.*.*.*.*.*.*.*.*.*.*.*.*.*.*.*.*.*.*.*.*.*.*.*.*.*.*.*.*.*.*.*.*.*.*.*.*.*.*.*.*.*.*.*.",
"*.*.*.*.*.*.*.*.*.*.*.*.*.*.*.*.*.*.*.*.*.*.*.*.*.*.*.*.*.*.*.*.*.*.*.*.*.*.*.*.*.*.*.*.*.*.*.*.*.*.*.*.*.*.*.*.*.*.*.*.*.*.*.*.",
"*.*.*.*.*.*.*.*.*.*.*.*.*.*.*.*.*.*.*.*.*.*.*.*.*.*.*.*.*.*.*.*.*.*.*.*.*.*.*.*.*.*.*.*.*.*.*.*.*.*.*.*.*.*.*.*.*.*.*.*.*.*.*.*.",
"*.*.*.*.*.*.*.*.*.*.*.*.*.*.*.*.*.*.*.*.*.*.*.*.*.*.*.*.*.*.*.*.*.*.*.*.*.*.*.*.*.*.*.*.*.*.*.*.*.*.*.*.*.*.*.*.*.*.*.*.*.*.*.*.",
"*.*.*.*.*.*.*.*.*.*.*.*.*.*.*.*.*.*.*.*.*.*.*.*.*.*.*.*.*.*.*.*.*.*.*.O *.*.*.*.*.*.*.*.*.*.*.*.*.*.*.*.*.*.*.*.*.*.*.*.*.*.*.*.",
"*.*.*.*.*.*.*.*.*.*.*.*.*.*.*.*.*.*.*.*.*.*.*.*.*.*.*.*.*.o o o o . l ` 2 *.*.*.*.*.*.*.*.*.*.*.*.*.*.*.*.*.*.*.*.*.*.*.*.*.*.*.",
"*.*.*.*.*.*.*.*.*.*.*.*.*.*.*.*.*.*.*.*.*.*.*.*.*.*.*.X o B  .[ [ [ X.@.{ k . *.*.*.*.*.*.*.*.*.*.*.*.*.*.*.*.*.*.*.*.*.*.*.*.*.",
"*.*.*.*.*.*.*.*.*.*.*.*.*.*.*.*.*.*.*.*.*.*.*.*.*.. d Y W ..%.#.#.#.@.@.@.k . *.*.*.*.*.*.*.*.*.*.*.*.*.*.*.*.*.*.*.*.*.*.*.*.*.",
"*.*.*.*.*.*.*.*.*.*.*.*.*.*.*.*.*.*.*.*.*.*.*.*.o x Q _ _ ' ' | @.#.@.@.#.X.m o *.*.*.*.*.*.*.*.*.*.*.*.*.*.*.*.*.*.*.*.*.*.*.*.",
"*.*.*.*.*.*.*.*.*.*.*.*.*.*.*.*.*.*.*.*.*.*.*.*.o x ) _ _ _ } o.@.@.#.#.@.#.I o *.*.*.*.*.*.*.*.*.*.*.*.*.*.*.*.*.*.*.*.*.*.*.*.",
"*.*.*.*.*.*.*.*.*.*.*.*.*.*.*.*.*.*.*.*.*.*.*.*.o x ( _ _ ) | @.#.| | @.#.#.I o *.*.*.*.*.*.*.*.*.*.*.*.*.*.*.*.*.*.*.*.*.*.*.*.",
"*.*.*.*.*.*.*.*.*.*.*.*.*.*.*.*.*.*.*.*.*.*.*.*.o j E ( ) _ _ ' ' _ | @.#.#.I o *.*.*.*.*.*.*.*.*.*.*.*.*.*.*.*.*.*.*.*.*.*.*.*.",
"*.*.*.*.*.*.*.*.*.*.*.*.*.*.*.*.*.*.*.*.*.*.*.*.o > G E ( ) _ _ _ ..@.@.#.o.n O *.*.*.*.*.*.*.*.*.*.*.*.*.*.*.*.*.*.*.*.*.*.*.*.",
"*.*.*.*.*.*.*.*.*.*.*.*.*.*.*.*.*.*.*.*.*.*.*.*.X X - h C J ( ) _ o.#.@.[ x @ X X . *.*.*.*.*.*.*.*.*.*.*.*.*.*.*.*.*.*.*.*.*.*.",
"*.*.*.*.*.*.*.*.*.*.*.*.*.*.*.*.*.*.*.*.*.*.*.& v H b J J E ) E ~ _ } | X.] ^ ` ^ ^ N . *.*.*.*.*.*.*.*.*.*.*.*.*.*.*.*.*.*.*.*.",
"*.*.*.*.*.*.*.*.*.*.*.*.*.*.*.*.*.*.*.*.. . 5 b R E ~ ) ) ) ) ) ) | o.o.@.#.#.#.@.#.o.I 1 *.*.*.*.*.*.*.*.*.*.*.*.*.*.*.*.*.*.*.",
"*.*.*.*.*.*.*.*.*.*.*.*.*.*.*.*.*.*.*.@ x v J ~ E Q ) _ ) _ _ ' ..@.@.#.@.@.@.#.@.#.@.@.` g *.*.*.*.*.*.*.*.*.*.*.*.*.*.*.*.*.*.",
"*.*.*.*.*.*.*.*.*.*.*.*.*.*.*.*.*.*.4 b R E E E ( ) _ _ _ _ ) ' @.#.#.@.@.@.#.@.@.@.#.O.z 4 *.*.*.*.*.*.*.*.*.*.*.*.*.*.*.*.*.*.",
"*.*.*.*.*.*.*.*.*.*.*.*.*.*.*.*.*.. d E T T E ~ _ _ _ _ _ _ _ ' o.#.#.@.@.@.@.@.@.#.#.[ 1 *.*.*.*.*.*.*.*.*.*.*.*.*.*.*.*.*.*.*.",
"*.*.*.*.*.*.*.*.*.*.*.*.*.*.*.*.*.X * S Y E ~ ) _ _ _ _ _ _ _ _ } } X.@.@.@.@.#.#.@.#.O.^ d *.*.*.*.*.*.*.*.*.*.*.*.*.*.*.*.*.*.",
"*.*.*.*.*.*.*.*.*.*.*.*.*.*.*.*.*.X + a P T ( _ _ _ _ _ _ _ _ _ _ _ ' | @.#.@.@.@.@.@.@.#.k   . *.*.*.*.*.*.*.*.*.*.*.*.*.*.*.*.",
"*.*.*.*.*.*.*.*.*.*.*.*.*.*.*.*.*.X + a P E E ( _ _ _ _ ) ( ( _ _ _ ' o.@.@.@.@.#.#.@.@.@.` I B 2 *.*.*.*.*.*.*.*.*.*.*.*.*.*.*.",
"*.*.*.*.*.*.*.*.*.*.*.*.*.*.*.*.o = : d P ~ E E ~ ) _ _ ~ ( ) ) _ _ ' | | | o.#.#.X.X.@.#.&.] l 1 *.*.*.*.*.*.*.*.*.*.*.*.*.*.*.",
"*.*.*.*.*.*.*.*.*.*.*.*.*.*.*.*.O - V V A L ~ E E ~ ( ~ E ) _ _ _ _ _ _ _ ) ' | | ..o.#.@.B s *.*.*.*.*.*.*.*.*.*.*.*.*.*.*.*.*.",
"*.*.*.*.*.*.*.*.*.*.*.*.*.*.*.*.*.+ - V < H ~ R E E E E T ) _ _ _ _ _ _ _ _ _ _ _ ' o.#.#.^ z *.*.*.*.*.*.*.*.*.*.*.*.*.*.*.*.*.",
"*.*.*.*.*.*.*.*.*.*.*.*.*.*.*.*.*.*.@ = < Z H ~ E H G E E ~ ) ) _ _ _ _ ( ) _ _ _ ) ' | ..%.U o *.*.*.*.*.*.*.*.*.*.*.*.*.*.*.*.",
"*.*.*.*.*.*.*.*.*.*.*.*.*.*.*.*.*.*.*.o > V C D D F J E E E ~ ) ( ( ~ ~ R ( _ _ ) ) ) _ _ m k *.*.*.*.*.*.*.*.*.*.*.*.*.*.*.*.*.",
"*.*.*.*.*.*.*.*.*.*.*.*.*.*.*.*.*.*.+ - < < < < < A F F F F D F Y E R ~ R ~ ( ( _ ) K h h 4 *.*.*.*.*.*.*.*.*.*.*.*.*.*.*.*.*.*.",
"*.*.*.*.*.*.*.*.*.*.*.*.*.*.*.*.*.X = V < < < < < : : : , : a F Y E R ~ ~ ( ( ~ ) | / z o *.*.*.*.*.*.*.*.*.*.*.*.*.*.*.*.*.*.*.",
"*.*.*.*.*.*.*.*.*.*.*.*.*.*.*.*.*.. & < V : V V S F F F D D J ( E ~ ( ( _ _ _ _ | +.#.@.B 5 *.*.*.*.*.*.*.*.*.*.*.*.*.*.*.*.*.*.",
"*.*.*.*.*.*.*.*.*.*.*.*.*.*.*.*.*.& - V < A D G R ~ E ~ ( ( ) _ ( _ _ _ _ _ _ _ +.#.#.#.#.U c c & *.*.*.*.*.*.*.*.*.*.*.*.*.*.*.",
"*.*.*.*.*.*.*.*.*.*.*.*.*.*.+ = = > C D D L ~ E E R E ( _ _ _ _ _ _ _ _ _ _ ' ..@.@.@.@.#.#.$.o.N 6 *.*.*.*.*.*.*.*.*.*.*.*.*.*.",
"*.*.*.*.*.*.*.*.*.*.*.*.*.X & V V V S E ~ E E E ~ ~ ) _ _ _ _ _ _ _ _ _ _ } o.#.#.@.#.#.#.@.#.#.$.k . *.*.*.*.*.*.*.*.*.*.*.*.*.",
"*.*.*.*.*.*.*.*.*.*.*.*.*.X & V < , Z G R E P G ~ ) _ _ _ _ _ _ _ _ _ _ _ o.#.@.#.#.+.X.@.#.#.o.I d *.*.*.*.*.*.*.*.*.*.*.*.*.*.",
"*.*.*.*.*.*.*.*.*.*.*.*.*.*.+ - < < < < F H F F ~ ) _ _ _ _ _ _ _ ) ) _ _ [ ..o.@.o...| @.#.#.[ 1 *.*.*.*.*.*.*.*.*.*.*.*.*.*.*.",
"*.*.*.*.*.*.*.*.*.*.*.*.*.*.O = > < < < A A G E R ( ( ( ( ( ) _ ( ~ ( _ _ _ _ _ ..' | #.@.@.%.o.n 5 *.*.*.*.*.*.*.*.*.*.*.*.*.*.",
"*.*.*.*.*.*.*.*.*.*.*.*.*.X = V V : C F R ~ E E E E E W R E ( _ ~ ) _ _ _ _ _ _ _ _ ' X.@.@.@.o.@.k . *.*.*.*.*.*.*.*.*.*.*.*.*.",
"*.*.*.*.*.*.*.*.*.*.*.*.*.X = < < Z H E E E E E E R E E R ) _ _ _ _ _ _ _ _ _ _ _ _ _ _ ..o.[ _ ..g . *.*.*.*.*.*.*.*.*.*.*.*.*.",
"*.*.*.*.*.*.*.*.*.*.*.*.*.X & < < D P E E E E E E E E E E ~ ) _ _ _ _ _ _ _ _ _ _ _ _ _ _ _ ) _ _ d . *.*.*.*.*.*.*.*.*.*.*.*.*.",
"*.*.*.*.*.*.*.*.*.*.*.*.*.X & < < , Z H H Y E R J P E E E R ~ ) _ _ _ _ ( ) _ _ _ _ _ _ _ _ _ _ _ d . *.*.*.*.*.*.*.*.*.*.*.*.*.",
"*.*.*.*.*.*.*.*.*.*.*.*.*.X & V < < < < , S P Y S J E E E E R E ( ( ) ) ~ ) _ _ _ _ _ _ _ _ _ _ _ d . *.*.*.*.*.*.*.*.*.*.*.*.*.",
"*.*.*.*.*.*.*.*.*.*.*.*.*.*.& ; < < < < V C F E ~ E E E E E E E E R E E _ _ _ _ _ _ ) ) _ _ _ ) K 6 *.*.*.*.*.*.*.*.*.*.*.*.*.*.",
"*.*.*.*.*.*.*.*.*.*.*.*.*.*.*.O - < < < < H ~ E R E R E E L L E E E E E ( _ _ _ _ ) ~ ~ ( _ _ Q d 1 *.*.*.*.*.*.*.*.*.*.*.*.*.*.",
"*.*.*.*.*.*.*.*.*.*.*.*.*.*.*.*.o - < < < F P E R E ~ R L Z Z L R E E E E ( ) ) ) ~ R E R ~ ) _ ) d . *.*.*.*.*.*.*.*.*.*.*.*.*.",
"*.*.*.*.*.*.*.*.*.*.*.*.*.*.*.*.o - V < < , A J L L J H V V > a P ~ E R R E R E R E E E ~ E P b H 0 *.*.*.*.*.*.*.*.*.*.*.*.*.*.",
"*.*.*.*.*.*.*.*.*.*.*.*.*.*.*.*.o - > < V < < < < , < < < < < C H R W ~ ~ R R R E E ~ R L J f X X *.*.*.*.*.*.*.*.*.*.*.*.*.*.*.",
"*.*.*.*.*.*.*.*.*.*.*.*.*.*.*.*.*.*.& > > > > < < < < < < < < < V F L L J Y ~ ~ E P L J < + *.*.*.*.*.*.*.*.*.*.*.*.*.*.*.*.*.*.",
"*.*.*.*.*.*.*.*.*.*.*.*.*.*.*.*.*.*.*.X X X & w < < < V < < < < < < < < < F L L L A > - O *.*.*.*.*.*.*.*.*.*.*.*.*.*.*.*.*.*.*.",
"*.*.*.*.*.*.*.*.*.*.*.*.*.*.*.*.*.*.*.*.*.X $ 9 q w > > > > > w w w < < < < < < > > = O *.*.*.*.*.*.*.*.*.*.*.*.*.*.*.*.*.*.*.*.",
"*.*.*.*.*.*.*.*.*.*.*.*.*.*.*.*.*.*.*.*.*.X $ e e e 3 O # # % e e e 8 w w > > > O X o *.*.*.*.*.*.*.*.*.*.*.*.*.*.*.*.*.*.*.*.*.",
"*.*.*.*.*.*.*.*.*.*.*.*.*.*.*.*.*.*.*.*.*.X $ 7 9 9 9 9 7 e e e y r e 7 7 $ o o *.*.*.*.*.*.*.*.*.*.*.*.*.*.*.*.*.*.*.*.*.*.*.*.",
"*.*.*.*.*.*.*.*.*.*.*.*.*.*.*.*.*.*.*.*.*.*.*.O 3 7 9 9 e e r y y u y 7 O *.*.*.*.*.*.*.*.*.*.*.*.*.*.*.*.*.*.*.*.*.*.*.*.*.*.*.",
"*.*.*.*.*.*.*.*.*.*.*.*.*.*.*.*.*.*.*.*.*.*.*.*.o 3 7 7 9 r y y y i i t # *.*.*.*.*.*.*.*.*.*.*.*.*.*.*.*.*.*.*.*.*.*.*.*.*.*.*.",
"*.*.*.*.*.*.*.*.*.*.*.*.*.*.*.*.*.*.*.*.*.*.*.*.*.o o O 7 9 r y p p i t # *.*.*.*.*.*.*.*.*.*.*.*.*.*.*.*.*.*.*.*.*.*.*.*.*.*.*.",
"*.*.*.*.*.*.*.*.*.*.*.*.*.*.*.*.*.*.*.*.*.*.*.*.*.*.*.# 7 t t r p p p t # *.*.*.*.*.*.*.*.*.*.*.*.*.*.*.*.*.*.*.*.*.*.*.*.*.*.*.",
"*.*.*.*.*.*.*.*.*.*.*.*.*.*.*.*.*.*.*.*.*.*.*.*.*.o % 7 7 t y y p p p u $ *.*.*.*.*.*.*.*.*.*.*.*.*.*.*.*.*.*.*.*.*.*.*.*.*.*.*.",
"*.*.*.*.*.*.*.*.*.*.*.*.*.*.*.*.*.*.*.*.*.*.*.*.o 3 9 9 9 t y y e e e e e $ X *.*.*.*.*.*.*.*.*.*.*.*.*.*.*.*.*.*.*.*.*.*.*.*.*.",
"*.*.*.*.*.*.*.*.*.*.*.*.*.*.*.*.*.*.*.*.*.*.*.*.*.*.*.*.*.*.*.*.*.*.*.*.*.*.*.*.*.*.*.*.*.*.*.*.*.*.*.*.*.*.*.*.*.*.*.*.*.*.*.*.",
"*.*.*.*.*.*.*.*.*.*.*.*.*.*.*.*.*.*.*.*.*.*.*.*.*.*.*.*.*.*.*.*.*.*.*.*.*.*.*.*.*.*.*.*.*.*.*.*.*.*.*.*.*.*.*.*.*.*.*.*.*.*.*.*.",
"*.*.*.*.*.*.*.*.*.*.*.*.*.*.*.*.*.*.*.*.*.*.*.*.*.*.*.*.*.*.*.*.*.*.*.*.*.*.*.*.*.*.*.*.*.*.*.*.*.*.*.*.*.*.*.*.*.*.*.*.*.*.*.*.",
"*.*.*.*.*.*.*.*.*.*.*.*.*.*.*.*.*.*.*.*.*.*.*.*.*.*.*.*.*.*.*.*.*.*.*.*.*.*.*.*.*.*.*.*.*.*.*.*.*.*.*.*.*.*.*.*.*.*.*.*.*.*.*.*."
};
