/* XPM */
static char *result[] = {
/* columns rows colors chars-per-pixel */
"64 64 69 1 ",
"  c #325F8B",
". c #34638E",
"X c #366791",
"o c #376A93",
"O c #396C95",
"+ c #3A6F98",
"@ c #3C739C",
"# c #3E7A9F",
"$ c #3E7CA2",
"% c #437E9F",
"& c #417EA5",
"* c #4383A5",
"= c #4887A5",
"- c #4485AC",
"; c #458BAE",
": c #4B92AF",
"> c #478AB1",
", c #498CB3",
"< c #4791B3",
"1 c #4A93B5",
"2 c #4D99B5",
"3 c #4D94BB",
"4 c #4C9FBE",
"5 c #4DA0BF",
"6 c #53A1B9",
"7 c #529EC4",
"8 c #4EA4C2",
"9 c #53A1C6",
"0 c #51A8C5",
"q c #58AEC5",
"w c #58B0C6",
"e c #55B3CF",
"r c #5AB4CA",
"t c #5DBACE",
"y c #55B5D1",
"u c #57BAD5",
"i c #58BBD5",
"p c #59BFD8",
"a c #62B8C5",
"s c #64BECA",
"d c #5BC0D7",
"f c #5CC3DA",
"g c #61C4D6",
"h c #6CCFD7",
"j c #61C6D9",
"k c #66CCDB",
"l c #68CDD9",
"z c #6DD3DA",
"x c #72D5D7",
"c c #72D5D8",
"v c #72DBDF",
"b c #5FCCE4",
"n c #60CFE6",
"m c #61D1E7",
"M c #6BD6E1",
"N c #69D9E7",
"B c #62D3E9",
"V c #66DAEC",
"C c #6ADCEB",
"Z c #73DDE0",
"A c #6EE3EF",
"S c #75E6EB",
"D c #75E9ED",
"F c #7AEFEF",
"G c #70E7F1",
"H c #73EAF2",
"J c #7FF6F2",
"K c #82F9F2",
"L c None",
/* pixels */
"LLLLLLLLLLLLLLLLLLLLLLLLLLLLLLLLLLLLLLLLLLLLLLLLLLLLLLLLLLLLLLLL",
"LLLLLLLLLLLLLLLLLLLLLLLLLLLLLLLLLLLLLLLLLLLLLLLLLLLLLLLLLLLLLLLL",
"LLLLLLLLLLLLLLLLLLLLLLLLLLLLLLLLLLLLLLLLLLLLLLLLLLLLLLLLLLLLLLLL",
"LLLLLLLLLLLLLLLLLLLLLLLLLLLLLLLLLLLLLLLLLLLLLLLLLLLLLLLLLLLLLLLL",
"LLLLLLLLLLLLLLLLLLLLLLLLLLLLLLLLLLLLLLLLLLLLLLLLLLLLLLLLLLLLLLLL",
"LLLLLLLLLLLLLLLLLLLLLLLLLLLLLLLLLLLLLLLLLLLLLLLLLLLLLLLLLLLLLLLL",
"LLLLLLLLLLLLLLLLLLLLLLLLLLLLLLLLLLLLLLLLLLLLLLLLLLLLLLLLLLLLLLLL",
"LLLLLLLLLLLLLLLLLLLLLLLLLLLLLLLLLLLLLLLLLLLLLLLLLLLLLLLLLLLLLLLL",
"LLLLLLLLLLLLLLLLLLLLLLLLLLLLLLLLLLLLLLLLLLLLLLLLLLLLLLLLLLLLLLLL",
"LLLLLLLLLLLLLLLLLLLLLLLLLLLLLLLLLLLLLLLLLLLLLLLLLLLLLLLLLLLLLLLL",
"LLLLLLLLLLLLLLLLLLLLLLLLLLLLLLLLLLLLLLLLLLLLLLLLLLLLLLLLLLLLLLLL",
"LLLLLLLLLLLLLLLLLLLLLLLLLLLLLLLLLLLLLLLLLLLLLLLLLLLLLLLLLLLLLLLL",
"LLLLLLLLLLLLLLLLLLLLLLLL..X.X.....X.....LLLLLLLLLLLLLLLLLLLLLLLL",
"LLLLLLLLLLLLLLLLLLLLLLLL&&**&$&&&*=*&$&$LLLLLLLLLLLLLLLLLLLLLLLL",
"LLLLLLLLLLLLLLLLLLLL.X.&8yeeyeeyeyggyey8*...LLLLLLLLLLLLLLLLLLLL",
"LLLLLLLLLLLLLLLLLLLL@@o&yBBnmmnmnVAAAVVu&o#$LLLLLLLLLLLLLLLLLLLL",
"LLLLLLLLLLLLLLLLLLX+>>+&yBBnmmBnnnNCAHHg$#88$ LLLLLLLLLLLLLLLLLL",
"LLLLLLLLLLLLLLLLLL@&33&&8yyyeyyyeeeyfkkt<1pp1$LLLLLLLLLLLLLLLLLL",
"LLLLLLLLLLLLLLLLX@>3773,-$$$$$$$$&$****2tkbbu8$ LLLLLLLLLLLLLLLL",
"LLLLLLLLLLLLLLLL@&377773@o#$$$$$*$$&&@o*lHNbni<$LLLLLLLLLLLLLLLL",
"LLLLLLLLLLLLLLX+>3777793@#4yyyyyeeeyy4@=zFNbmbu8$.LLLLLLLLLLLLLL",
"LLLLLLLLLLLLLL+&37777773@$ymBbbmbnnnBy$*cKCmbbmu<#LLLLLLLLLLLLLL",
"LLLLLLLLLLLLX$>377777773+$yBbmBbnnnnme$=cKDCmbbbu8$.LLLLLLLLLLLL",
"LLLLLLLLLLLLX+377777773>-,umbbbbbbbnbu<<sZSSBbbmBy$.LLLLLLLLLLLL",
"LLLLLLLLLLLL +37777777$&9ubbbbbbnbbbnbu0:6lANbbmny$.LLLLLLLLLLLL",
"LLLLLLLLLLLL%&3777777,+$ymbbbbmbbbnbbnne#*lDCmbbni1$LLLLLLLLLLLL",
"LLLLLLLLLL.@>377777773+$ymbbbbbbnbbbbnny#*zJDCBmnbp8$.LLLLLLLLLL",
"LLLLLLLLLLX@>3,377773,-<ummbmbbbbbnbbnbu::gvDANfuye8$.LLLLLLLLLL",
"LLLLLLLLLLXO@@@&3973&&8ubbbbbbbbnbbbbbnbu0<6MHVu<$$#OoLLLLLLLLLL",
"LLLLLLLLLLXo@@+&>37&+&yBbbmbbbbbbbbbnnbnBy$#wfu8;$$#OXLLLLLLLLLL",
"LLLLLLLLLLX@-33>&+++X&yBBbbbmbbbbbbbnbnmmy*o#*&;8yy8$.LLLLLLLLLL",
"LLLLLLLLLL.@>373&%@+X$7yyyyubbbmnnbbueeyy5#O#*$<pbd8$.LLLLLLLLLL",
"LLLLLLLLLLLL$&37733&+o$$$$$<umBnnBmu<$$$*#.%qgyubu1$LLLLLLLLLLLL",
"LLLLLLLLLLLL @&77777&+XX#$$>8yeeeey8>$$#oo*6MDVbp8$.LLLLLLLLLLLL",
"LLLLLLLLLLLLLL@&,7777&+$5yy8>$$$$$$;0ey5@*avDGNu<$LLLLLLLLLLLLLL",
"LLLLLLLLLLLLLL $&77773$$yVBu<$$$$$$<uBBe&*cKHNd8$.LLLLLLLLLLLLLL",
"LLLLLLLLLLLLLLLL@$777,@$ymmbueeyeeeubnBe#*lHAi<$LLLLLLLLLLLLLLLL",
"LLLLLLLLLLLLLLLL.@&773&&8ubbnnbmnnnnbbu0:6kCd4$.LLLLLLLLLLLLLLLL",
"LLLLLLLLLLLLLLLLLL+$377,*<ybbmmmnnnnny<<gxNi1$LLLLLLLLLLLLLLLLLL",
"LLLLLLLLLLLLLLLLLL.@-37<@$ymmbbbbbbnBe$*hSf8$ LLLLLLLLLLLLLLLLLL",
"LLLLLLLLLLLLLLLLLLLL$&73+$yBnbbbbbbnmy$*if2$LLLLLLLLLLLLLLLLLLLL",
"LLLLLLLLLLLLLLLLLLLL.@>&&-7ubnbbnnbbu8<<05$.LLLLLLLLLLLLLLLLLLLL",
"LLLLLLLLLLLLLLLLLLLLLL@&,,&1uBbbbbnu>:tt<#LLLLLLLLLLLLLLLLLLLLLL",
"LLLLLLLLLLLLLLLLLLLLLL.@>>&&8ubbnbu0:2tt*.LLLLLLLLLLLLLLLLLLLLLL",
"LLLLLLLLLLLLLLLLLLLLLLLL@&>,*<immu::rt2*LLLLLLLLLLLLLLLLLLLLLLLL",
"LLLLLLLLLLLLLLLLLLLLLLLLX@>>$-8yy0::tt*.LLLLLLLLLLLLLLLLLLLLLLLL",
"LLLLLLLLLLLLLLLLLLLLLLLLLL+&>,-$$<td2*LLLLLLLLLLLLLLLLLLLLLLLLLL",
"LLLLLLLLLLLLLLLLLLLLLLLLLL.@>>@..*ry* LLLLLLLLLLLLLLLLLLLLLLLLLL",
"LLLLLLLLLLLLLLLLLLLLLLLLLLLL@@o..O**LLLLLLLLLLLLLLLLLLLLLLLLLLLL",
"LLLLLLLLLLLLLLLLLLLLLLLLLLLL.XoXoX..LLLLLLLLLLLLLLLLLLLLLLLLLLLL",
"LLLLLLLLLLLLLLLLLLLLLLLLLLLLLLLLLLLLLLLLLLLLLLLLLLLLLLLLLLLLLLLL",
"LLLLLLLLLLLLLLLLLLLLLLLLLLLLLLLLLLLLLLLLLLLLLLLLLLLLLLLLLLLLLLLL",
"LLLLLLLLLLLLLLLLLLLLLLLLLLLLLLLLLLLLLLLLLLLLLLLLLLLLLLLLLLLLLLLL",
"LLLLLLLLLLLLLLLLLLLLLLLLLLLLLLLLLLLLLLLLLLLLLLLLLLLLLLLLLLLLLLLL",
"LLLLLLLLLLLLLLLLLLLLLLLLLLLLLLLLLLLLLLLLLLLLLLLLLLLLLLLLLLLLLLLL",
"LLLLLLLLLLLLLLLLLLLLLLLLLLLLLLLLLLLLLLLLLLLLLLLLLLLLLLLLLLLLLLLL",
"LLLLLLLLLLLLLLLLLLLLLLLLLLLLLLLLLLLLLLLLLLLLLLLLLLLLLLLLLLLLLLLL",
"LLLLLLLLLLLLLLLLLLLLLLLLLLLLLLLLLLLLLLLLLLLLLLLLLLLLLLLLLLLLLLLL",
"LLLLLLLLLLLLLLLLLLLLLLLLLLLLLLLLLLLLLLLLLLLLLLLLLLLLLLLLLLLLLLLL",
"LLLLLLLLLLLLLLLLLLLLLLLLLLLLLLLLLLLLLLLLLLLLLLLLLLLLLLLLLLLLLLLL",
"LLLLLLLLLLLLLLLLLLLLLLLLLLLLLLLLLLLLLLLLLLLLLLLLLLLLLLLLLLLLLLLL",
"LLLLLLLLLLLLLLLLLLLLLLLLLLLLLLLLLLLLLLLLLLLLLLLLLLLLLLLLLLLLLLLL",
"LLLLLLLLLLLLLLLLLLLLLLLLLLLLLLLLLLLLLLLLLLLLLLLLLLLLLLLLLLLLLLLL",
"LLLLLLLLLLLLLLLLLLLLLLLLLLLLLLLLLLLLLLLLLLLLLLLLLLLLLLLLLLLLLLLL"
};
