/* XPM */
static char *result[] = {
/* columns rows colors chars-per-pixel */
"64 64 63 1 ",
"  c #34638E",
". c #366791",
"X c #376993",
"o c #386C95",
"O c #3A6F98",
"+ c #3C739C",
"@ c #3D799F",
"# c #3F7CA2",
"$ c #417EA5",
"% c #4382A5",
"& c #4485AB",
"* c #448AAE",
"= c #4B92AF",
"- c #478AB0",
"; c #498CB3",
": c #4791B4",
"> c #4992B5",
", c #4F9BB6",
"< c #4D94BB",
"1 c #4D9FBF",
"2 c #4DA0BF",
"3 c #529EC4",
"4 c #4EA4C3",
"5 c #52A2C6",
"6 c #51A9C7",
"7 c #52ABC8",
"8 c #54B3CF",
"9 c #5BB7CC",
"0 c #55B5D1",
"q c #58B7D1",
"w c #57BAD4",
"e c #58BCD5",
"r c #59BFD8",
"t c #65BFCA",
"y c #5DC1D6",
"u c #5DC2D8",
"i c #60C3D6",
"p c #6ACBD4",
"a c #62C7D9",
"s c #66CBD8",
"d c #6ED1D7",
"f c #6BD2DC",
"g c #71DADE",
"h c #5DC7E0",
"j c #5FCCE3",
"k c #60CFE6",
"l c #62D2E7",
"z c #68D8E7",
"x c #62D3E8",
"c c #67D9EA",
"v c #6ADCEA",
"b c #6EE3ED",
"n c #71E6ED",
"m c #75E9EE",
"M c #7AEEED",
"N c #7DF2EF",
"B c #70E6F0",
"V c #75EBF1",
"C c #78EEF0",
"Z c #7BF2F1",
"A c #80F5EF",
"S c #81F8F3",
"D c None",
/* pixels */
"DDDDDDDDDDDDDDDDDDDDDDDDDDDDDDDDDDDDDDDDDDDDDDDDDDDDDDDDDDDDDDDD",
"DDDDDDDDDDDDDDDDDDDDDDDDDDDDDDDDDDDDDDDDDDDDDDDDDDDDDDDDDDDDDDDD",
"DDDDDDDDDDDDDDDDDDDDDDDDDDDDDDDDDDDDDDDDDDDDDDDDDDDDDDDDDDDDDDDD",
"DDDDDDDDDDDDDDDDDDDDDDDDDDDDDDDDDDDDDDDDDDDDDDDDDDDDDDDDDDDDDDDD",
"DDDDDDDDDDDDDDDDDDDDDDDDDDDDDDDDDDDDDDDDDDDDDDDDDDDDDDDDDDDDDDDD",
"DDDDDDDDDDDDDDDDDDDDDDDDDDDDDDDDDDDDDDDDDDDDDDDDDDDDDDDDDDDDDDDD",
"DDDDDDDDDDDDDDDDDDDDDDDDDDDDDDDDDDDDDDDDDDDDDDDDDDDDDDDDDDDDDDDD",
"DDDDDDDDDDDDDDDDDDDDDDDDDDDDDDDDDDDDDDDDDDDDDDDDDDDDDDDDDDDDDDDD",
"DDDDDDDDDDDDDDDDDDDDDDDD .      ...    .DDDDDDDDDDDDDDDDDDDDDDDD",
"DDDDDDDDDDDDDDDDDDDDDDDD#$$$%%%&%%%#$#$$DDDDDDDDDDDDDDDDDDDDDDDD",
"DDDDDDDDDDDDDDDDDDDD.. #40888wuasi008084#   DDDDDDDDDDDDDDDDDDDD",
"DDDDDDDDDDDDDDDDDDDD+O.$wxlllxbVCVcjlxxw$X##DDDDDDDDDDDDDDDDDDDD",
"DDDDDDDDDDDDDDDDDD +-*O$0xxxkxxbZZvllxx0#@44# DDDDDDDDDDDDDDDDDD",
"DDDDDDDDDDDDDDDDDD+$<<$%4088000qps988806*:uu;#DDDDDDDDDDDDDDDDDD",
"DDDDDDDDDDDDDDDD +-<33<;&######%%&%$###*6ejuw4# DDDDDDDDDDDDDDDD",
"DDDDDDDDDDDDDDDD+$<5335>+X@#####%%$##@X#8xljkw:#DDDDDDDDDDDDDDDD",
"DDDDDDDDDDDDDD +&333333<++40000wyy0882@#0kkkxuw4# DDDDDDDDDDDDDD",
"DDDDDDDDDDDDDD+$<333333;+#0jkjjcnmbcx8##8xkjkkxw:#DDDDDDDDDDDDDD",
"DDDDDDDDDDDD.O&<3333333<+#8lkkjxnCMmc8##0xkkkjkhe4# DDDDDDDDDDDD",
"DDDDDDDDDDDD $<33333333;%:wlkjxcbmMmxw:*4whjjkjkx0# DDDDDDDDDDDD",
"DDDDDDDDDDDD +<333333<$$4ehjjlbnVbczkhy4*:wjkjjkj0# DDDDDDDDDDDD",
"DDDDDDDDDDDD+$<333333;O$0lljjlvbBBblkkx8##0kkjkkle:#DDDDDDDDDDDD",
"DDDDDDDDDD +-<3333333<O$8lljjllzbMMnxjj8##0kkjkkjjr4# DDDDDDDDDD",
"DDDDDDDDDD +&<<<3333<-&;wkjjjklcnMNmcjjw:*4yjkkhw004# DDDDDDDDDD",
"DDDDDDDDDD.X+++$<33<#&4ehjjjjxvnMNCnljkue6*:exxe:##@o.DDDDDDDDDD",
"DDDDDDDDDDXXO++$;<<-O#0xkjkkjxbCANCbxkkxk0#+2004*#$+o.DDDDDDDDDD",
"DDDDDDDDDD.+&<<-$+OO.#0xjjxjjxbCAANbxjxxxw#X+##*60w4# DDDDDDDDDD",
"DDDDDDDDDD +-<3<$++O.#30000ehlbVNNNby88884@X@##:eju4# DDDDDDDDDD",
"DDDDDDDDDDDD+$<3<;;&Oo#$###;wxxcCZAg,@##$@X@288rje:#DDDDDDDDDDDD",
"DDDDDDDDDDDD +-<3333$O.X###*400wypdi=##@XX@:exxhe4# DDDDDDDDDDDD",
"DDDDDDDDDDDDDD+$33333&OO4004-###%%%=6002+@4rhxxe:#DDDDDDDDDDDDDD",
"DDDDDDDDDDDDDD +&<333;$$0xxe:#$%%%#:wxx0##8kxhw2# DDDDDDDDDDDDDD",
"DDDDDDDDDDDDDDDD+$<33<O$0xxhw0usdd90ukx0##8xxe:#DDDDDDDDDDDDDDDD",
"DDDDDDDDDDDDDDDD +&33<$$4rhjjcBZNNbzxjw4*:ehe4# DDDDDDDDDDDDDDDD",
"DDDDDDDDDDDDDDDDDDO$<3<;%:wkjcBVCCNmxw:*4eje:#DDDDDDDDDDDDDDDDDD",
"DDDDDDDDDDDDDDDDDD.O-<3<O#0kjxvbBCNMc0##wje2# DDDDDDDDDDDDDDDDDD",
"DDDDDDDDDDDDDDDDDDDDO$3;+#0jkjxcbVCVc8##0r>#DDDDDDDDDDDDDDDDDDDD",
"DDDDDDDDDDDDDDDDDDDD.+--$%4rjjjcbVbxy4*-64# DDDDDDDDDDDDDDDDDDDD",
"DDDDDDDDDDDDDDDDDDDDDDO#;;&;ejkxbbbw:*67*#DDDDDDDDDDDDDDDDDDDDDD",
"DDDDDDDDDDDDDDDDDDDDDD.+-;#$4rucbbu4*-74# DDDDDDDDDDDDDDDDDDDDDD",
"DDDDDDDDDDDDDDDDDDDDDDDD+$-;$>ecVf,*46:#DDDDDDDDDDDDDDDDDDDDDDDD",
"DDDDDDDDDDDDDDDDDDDDDDDD +--$&5euq:*66# DDDDDDDDDDDDDDDDDDDDDDDD",
"DDDDDDDDDDDDDDDDDDDDDDDDDD+$-;&$%:66*$DDDDDDDDDDDDDDDDDDDDDDDDDD",
"DDDDDDDDDDDDDDDDDDDDDDDDDD +-&O  @46# DDDDDDDDDDDDDDDDDDDDDDDDDD",
"DDDDDDDDDDDDDDDDDDDDDDDDDDDD++X .X@%DDDDDDDDDDDDDDDDDDDDDDDDDDDD",
"DDDDDDDDDDDDDDDDDDDDDDDDDDDD .X.....DDDDDDDDDDDDDDDDDDDDDDDDDDDD",
"DDDDDDDDDDDDDDDDDDDDDDDDDDDDDDDDDDDDDDDDDDDDDDDDDDDDDDDDDDDDDDDD",
"DDDDDDDDDDDDDDDDDDDDDDDDDDDDDDDDDDDDDDDDDDDDDDDDDDDDDDDDDDDDDDDD",
"DDDDDDDDDDDDDDDDDDDDDDDDDDDDDDDDDDDDDDDDDDDDDDDDDDDDDDDDDDDDDDDD",
"DDDDDDDDDDDDDDDDDDDDDDDDDDDDDDDDDDDDDDDDDDDDDDDDDDDDDDDDDDDDDDDD",
"DDDDDDDDDDDDDDDDDDDDDDDDDDDDDDDDDDDDDDDDDDDDDDDDDDDDDDDDDDDDDDDD",
"DDDDDDDDDDDDDDDDDDDDDDDDDDDDDDDDDDDDDDDDDDDDDDDDDDDDDDDDDDDDDDDD",
"DDDDDDDDDDDDDDDDDDDDDDDDDDDDDDDDDDDDDDDDDDDDDDDDDDDDDDDDDDDDDDDD",
"DDDDDDDDDDDDDDDDDDDDDDDDDDDDDDDDDDDDDDDDDDDDDDDDDDDDDDDDDDDDDDDD",
"DDDDDDDDDDDDDDDDDDDDDDDDDDDDDDDDDDDDDDDDDDDDDDDDDDDDDDDDDDDDDDDD",
"DDDDDDDDDDDDDDDDDDDDDDDDDDDDDDDDDDDDDDDDDDDDDDDDDDDDDDDDDDDDDDDD",
"DDDDDDDDDDDDDDDDDDDDDDDDDDDDDDDDDDDDDDDDDDDDDDDDDDDDDDDDDDDDDDDD",
"DDDDDDDDDDDDDDDDDDDDDDDDDDDDDDDDDDDDDDDDDDDDDDDDDDDDDDDDDDDDDDDD",
"DDDDDDDDDDDDDDDDDDDDDDDDDDDDDDDDDDDDDDDDDDDDDDDDDDDDDDDDDDDDDDDD",
"DDDDDDDDDDDDDDDDDDDDDDDDDDDDDDDDDDDDDDDDDDDDDDDDDDDDDDDDDDDDDDDD",
"DDDDDDDDDDDDDDDDDDDDDDDDDDDDDDDDDDDDDDDDDDDDDDDDDDDDDDDDDDDDDDDD",
"DDDDDDDDDDDDDDDDDDDDDDDDDDDDDDDDDDDDDDDDDDDDDDDDDDDDDDDDDDDDDDDD",
"DDDDDDDDDDDDDDDDDDDDDDDDDDDDDDDDDDDDDDDDDDDDDDDDDDDDDDDDDDDDDDDD",
"DDDDDDDDDDDDDDDDDDDDDDDDDDDDDDDDDDDDDDDDDDDDDDDDDDDDDDDDDDDDDDDD"
};
