/* XPM */
static char *result[] = {
/* columns rows colors chars-per-pixel */
"64 64 52 1 ",
"  c #34638E",
". c #366791",
"X c #376993",
"o c #386C95",
"O c #3A6F99",
"+ c #3C739C",
"@ c #3D789F",
"# c #3F7CA2",
"$ c #417EA5",
"% c #4383A6",
"& c #4586AC",
"* c #448AAE",
"= c #468BB0",
"- c #498CB3",
"; c #4791B3",
": c #4A92B6",
"> c #4D94BB",
", c #4E9EBB",
"< c #509EB9",
"1 c #4DA0BF",
"2 c #529EC4",
"3 c #4FA4C3",
"4 c #53A2C6",
"5 c #51A9C7",
"6 c #58AFC6",
"7 c #51AAC8",
"8 c #58B0C6",
"9 c #54B3CF",
"0 c #5AB4CA",
"q c #55B5D1",
"w c #57BAD4",
"e c #58BBD5",
"r c #59BFD8",
"t c #5CC7DF",
"y c #60C3D6",
"u c #61C6D8",
"i c #65CCDB",
"p c #68D2DF",
"a c #5FCCE4",
"s c #60CFE6",
"d c #61D1E7",
"f c #69D4E0",
"g c #62D3E8",
"h c #66D8EB",
"j c #6ADDEC",
"k c #6EE3EE",
"l c #70E5EE",
"z c #6DE3F0",
"x c #71E7F1",
"c c #73EBF3",
"v c #76F0F5",
"b c None",
/* pixels */
"bbbbbbbbbbbbbbbbbbbbbbbbbbbbbbbbbbbbbbbbbbbbbbbbbbbbbbbbbbbbbbbb",
"bbbbbbbbbbbbbbbbbbbbbbbbbbbbbbbbbbbbbbbbbbbbbbbbbbbbbbbbbbbbbbbb",
"bbbbbbbbbbbbbbbbbbbbbbbbbbbbbbbbbbbbbbbbbbbbbbbbbbbbbbbbbbbbbbbb",
"bbbbbbbbbbbbbbbbbbbbbbbbbbbbbbbbbbbbbbbbbbbbbbbbbbbbbbbbbbbbbbbb",
"bbbbbbbbbbbbbbbbbbbbbbbbbbbbbbbbbbbbbbbbbbbbbbbbbbbbbbbbbbbbbbbb",
"bbbbbbbbbbbbbbbbbbbbbbbbbbbbbbbbbbbbbbbbbbbbbbbbbbbbbbbbbbbbbbbb",
"bbbbbbbbbbbbbbbbbbbbbbbbbbbbbbbbbbbbbbbbbbbbbbbbbbbbbbbbbbbbbbbb",
"bbbbbbbbbbbbbbbbbbbbbbbbbbbbbbbbbbbbbbbbbbbbbbbbbbbbbbbbbbbbbbbb",
"bbbbbbbbbbbbbbbbbbbbbbbbbbbbbbbbbbbbbbbbbbbbbbbbbbbbbbbbbbbbbbbb",
"bbbbbbbbbbbbbbbbbbbbbbbbbbbbbbbbbbbbbbbbbbbbbbbbbbbbbbbbbbbbbbbb",
"bbbbbbbbbbbbbbbbbbbbbbbb        ..X.    bbbbbbbbbbbbbbbbbbbbbbbb",
"bbbbbbbbbbbbbbbbbbbbbbbb#%$#%%#%%%$#$$%#bbbbbbbbbbbbbbbbbbbbbbbb",
"bbbbbbbbbbbbbbbbbbbb...#3qq9999qryw99993$   bbbbbbbbbbbbbbbbbbbb",
"bbbbbbbbbbbbbbbbbbbbOOX%wgdddggkxxhssggw$o@#bbbbbbbbbbbbbbbbbbbb",
"bbbbbbbbbbbbbbbbbb +=&O#qddddgklcxhssggq$@13# bbbbbbbbbbbbbbbbbb",
"bbbbbbbbbbbbbbbbbbO#>2#%3qqq9qyiiyw99qq4*;tw:#bbbbbbbbbbbbbbbbbb",
"bbbbbbbbbbbbbbbb +=>22>-%$$$$$%%%%$####*5waaw3# bbbbbbbbbbbbbbbb",
"bbbbbbbbbbbbbbbb+$>2222>+o#%%%%@#$####X#9daadw*#bbbbbbbbbbbbbbbb",
"bbbbbbbbbbbbbb.+=>22222>O#6iiy09999993##9ddaaaw3@ bbbbbbbbbbbbbb",
"bbbbbbbbbbbbbb+$>222222-O%ivclhdsssss9##9ddaaadw;#bbbbbbbbbbbbbb",
"bbbbbbbbbbbb O&>2222222>+%ivclhasssss9##qgssadsaw3# bbbbbbbbbbbb",
"bbbbbbbbbbbb $>2222222>-&<pxxjdasaasaw;*3wasaaaddq# bbbbbbbbbbbb",
"bbbbbbbbbbbb $>222222>$&0plljddaaaaasaw3*;waaaaddq# bbbbbbbbbbbb",
"bbbbbbbbbbbbO$>222222>O%icljdaaasaassss9##9sdaasae:#bbbbbbbbbbbb",
"bbbbbbbbbb +&22222222>o%iljsaaaaaaaaass9##9ssaaaaat3% bbbbbbbbbb",
"bbbbbbbbbb.+&-->2222>-&<plfsadassaassssw;*3rassaw991@ bbbbbbbbbb",
"bbbbbbbbbb.Xo$O$>24>$&0fllgsaaaaaasaaaaar3*;rddw;#$@o.bbbbbbbbbb",
"bbbbbbbbbbXXo$+$=>>&O%ivxjgsaaaaaaaassasgq#+,995*#$@o.bbbbbbbbbb",
"bbbbbbbbbb.+&>>=$OoO &icjgssssaaaaaasssddq$X+##*3qq3# bbbbbbbbbb",
"bbbbbbbbbb +=>2>$O$O.$0yw90wtsdaasatw99qq3#X@##;rat3$ bbbbbbbbbb",
"bbbbbbbbbbbb+$>22->$oo$&$##;wgddssst;###$@X@199war;@bbbbbbbbbbbb",
"bbbbbbbbbbbb +=>2222$OXo#%#&49999qq3*##@XX@;rddar1@ bbbbbbbbbbbb",
"bbbbbbbbbbbbbb+$>222>$o$8uq5*######*3qq3+@1raagw;#bbbbbbbbbbbbbb",
"bbbbbbbbbbbbbb +&2224>+%ixje=######;wggq##qdsaw3# bbbbbbbbbbbbbb",
"bbbbbbbbbbbbbbbbO$>24>+%pxhtw99qq99wasgq##9dgw;@bbbbbbbbbbbbbbbb",
"bbbbbbbbbbbbbbbb $&>2>$&0pgdgassssssaaw3*:waw3# bbbbbbbbbbbbbbbb",
"bbbbbbbbbbbbbbbbbb+$>2>-&<ikgssasssssw;*3raw;#bbbbbbbbbbbbbbbbbb",
"bbbbbbbbbbbbbbbbbb.+=>2>O%ikgssiaasss9##qar3# bbbbbbbbbbbbbbbbbb",
"bbbbbbbbbbbbbbbbbbbb+$>:+%ilgsaiasassq##wr;#bbbbbbbbbbbbbbbbbbbb",
"bbbbbbbbbbbbbbbbbbbb +=&$*0iggssasstr3**33# bbbbbbbbbbbbbbbbbbbb",
"bbbbbbbbbbbbbbbbbbbbbb+$--&<ikgsaasw;*37=@bbbbbbbbbbbbbbbbbbbbbb",
"bbbbbbbbbbbbbbbbbbbbbb +=-$$0iggsaw3*=75$ bbbbbbbbbbbbbbbbbbbbbb",
"bbbbbbbbbbbbbbbbbbbbbbbbO$--&>ilgr;*37=#bbbbbbbbbbbbbbbbbbbbbbbb",
"bbbbbbbbbbbbbbbbbbbbbbbb +==$&0it3**75# bbbbbbbbbbbbbbbbbbbbbbbb",
"bbbbbbbbbbbbbbbbbbbbbbbbbb+$=-*%#*77;#bbbbbbbbbbbbbbbbbbbbbbbbbb",
"bbbbbbbbbbbbbbbbbbbbbbbbbb +=&+  #33# bbbbbbbbbbbbbbbbbbbbbbbbbb",
"bbbbbbbbbbbbbbbbbbbbbbbbbbbb++X  o#$bbbbbbbbbbbbbbbbbbbbbbbbbbbb",
"bbbbbbbbbbbbbbbbbbbbbbbbbbbb.....   bbbbbbbbbbbbbbbbbbbbbbbbbbbb",
"bbbbbbbbbbbbbbbbbbbbbbbbbbbbbbbbbbbbbbbbbbbbbbbbbbbbbbbbbbbbbbbb",
"bbbbbbbbbbbbbbbbbbbbbbbbbbbbbbbbbbbbbbbbbbbbbbbbbbbbbbbbbbbbbbbb",
"bbbbbbbbbbbbbbbbbbbbbbbbbbbbbbbbbbbbbbbbbbbbbbbbbbbbbbbbbbbbbbbb",
"bbbbbbbbbbbbbbbbbbbbbbbbbbbbbbbbbbbbbbbbbbbbbbbbbbbbbbbbbbbbbbbb",
"bbbbbbbbbbbbbbbbbbbbbbbbbbbbbbbbbbbbbbbbbbbbbbbbbbbbbbbbbbbbbbbb",
"bbbbbbbbbbbbbbbbbbbbbbbbbbbbbbbbbbbbbbbbbbbbbbbbbbbbbbbbbbbbbbbb",
"bbbbbbbbbbbbbbbbbbbbbbbbbbbbbbbbbbbbbbbbbbbbbbbbbbbbbbbbbbbbbbbb",
"bbbbbbbbbbbbbbbbbbbbbbbbbbbbbbbbbbbbbbbbbbbbbbbbbbbbbbbbbbbbbbbb",
"bbbbbbbbbbbbbbbbbbbbbbbbbbbbbbbbbbbbbbbbbbbbbbbbbbbbbbbbbbbbbbbb",
"bbbbbbbbbbbbbbbbbbbbbbbbbbbbbbbbbbbbbbbbbbbbbbbbbbbbbbbbbbbbbbbb",
"bbbbbbbbbbbbbbbbbbbbbbbbbbbbbbbbbbbbbbbbbbbbbbbbbbbbbbbbbbbbbbbb",
"bbbbbbbbbbbbbbbbbbbbbbbbbbbbbbbbbbbbbbbbbbbbbbbbbbbbbbbbbbbbbbbb",
"bbbbbbbbbbbbbbbbbbbbbbbbbbbbbbbbbbbbbbbbbbbbbbbbbbbbbbbbbbbbbbbb",
"bbbbbbbbbbbbbbbbbbbbbbbbbbbbbbbbbbbbbbbbbbbbbbbbbbbbbbbbbbbbbbbb",
"bbbbbbbbbbbbbbbbbbbbbbbbbbbbbbbbbbbbbbbbbbbbbbbbbbbbbbbbbbbbbbbb",
"bbbbbbbbbbbbbbbbbbbbbbbbbbbbbbbbbbbbbbbbbbbbbbbbbbbbbbbbbbbbbbbb"
};
