/* XPM */
static char *result[] = {
/* columns rows colors chars-per-pixel */
"64 64 55 1 ",
"  c #34638E",
". c #366791",
"X c #376993",
"o c #386C95",
"O c #3A6F99",
"+ c #3C739C",
"@ c #3D789F",
"# c #3F7CA2",
"$ c #407EA4",
"% c #4282A5",
"& c #4485AC",
"* c #448AAE",
"= c #468BB0",
"- c #488CB2",
"; c #4791B3",
": c #4992B4",
"> c #4B98B7",
", c #4D94BB",
"< c #4D9DBD",
"1 c #509FBA",
"2 c #4DA0BF",
"3 c #4F9CC0",
"4 c #529DC3",
"5 c #4EA4C3",
"6 c #51A4C5",
"7 c #51A9C7",
"8 c #54A6C9",
"9 c #55ABCC",
"0 c #59AFCE",
"q c #59B1C6",
"w c #55B3CF",
"e c #5BB6CB",
"r c #5CB8CC",
"t c #55B5D1",
"y c #59B7D5",
"u c #57BAD4",
"i c #58BBD6",
"p c #59BFD8",
"a c #5CC3DD",
"s c #61C4D7",
"d c #62C6D8",
"f c #65CCDB",
"g c #66D0DF",
"h c #5EC7E0",
"j c #5FCCE3",
"k c #60CFE5",
"l c #61D1E7",
"z c #68D4E5",
"x c #61D2E8",
"c c #66D8EA",
"v c #6DDFEC",
"b c #6CE1EE",
"n c #70E7F1",
"m c #73EBF3",
"M c None",
/* pixels */
"MMMMMMMMMMMMMMMMMMMMMMMMMMMMMMMMMMMMMMMMMMMMMMMMMMMMMMMMMMMMMMMM",
"MMMMMMMMMMMMMMMMMMMMMMMMMMMMMMMMMMMMMMMMMMMMMMMMMMMMMMMMMMMMMMMM",
"MMMMMMMMMMMMMMMMMMMMMMMMMMMMMMMMMMMMMMMMMMMMMMMMMMMMMMMMMMMMMMMM",
"MMMMMMMMMMMMMMMMMMMMMMMMMMMMMMMMMMMMMMMMMMMMMMMMMMMMMMMMMMMMMMMM",
"MMMMMMMMMMMMMMMMMMMMMMMMMMMMMMMMMMMMMMMMMMMMMMMMMMMMMMMMMMMMMMMM",
"MMMMMMMMMMMMMMMMMMMMMMMMMMMMMMMMMMMMMMMMMMMMMMMMMMMMMMMMMMMMMMMM",
"MMMMMMMMMMMMMMMMMMMMMMMMMMMMMMMMMMMMMMMMMMMMMMMMMMMMMMMMMMMMMMMM",
"MMMMMMMMMMMMMMMMMMMMMMMMMMMMMMMMMMMMMMMMMMMMMMMMMMMMMMMMMMMMMMMM",
"MMMMMMMMMMMMMMMMMMMMMMMMMMMMMMMMMMMMMMMMMMMMMMMMMMMMMMMMMMMMMMMM",
"MMMMMMMMMMMMMMMMMMMMMMMMMMMMMMMMMMMMMMMMMMMMMMMMMMMMMMMMMMMMMMMM",
"MMMMMMMMMMMMMMMMMMMMMMMMMMMMMMMMMMMMMMMMMMMMMMMMMMMMMMMMMMMMMMMM",
"MMMMMMMMMMMMMMMMMMMMMMMMMMMMMMMMMMMMMMMMMMMMMMMMMMMMMMMMMMMMMMMM",
"MMMMMMMMMMMMMMMMMMMMMMMM    .  .   .    MMMMMMMMMMMMMMMMMMMMMMMM",
"MMMMMMMMMMMMMMMMMMMMMMMM%%%%$#$$$%$$#%$#MMMMMMMMMMMMMMMMMMMMMMMM",
"MMMMMMMMMMMMMMMMMMMM . %5rdauwwwwtwwttt5$   MMMMMMMMMMMMMMMMMMMM",
"MMMMMMMMMMMMMMMMMMMM+OX$ibmncklllllllllu$o##MMMMMMMMMMMMMMMMMMMM",
"MMMMMMMMMMMMMMMMMM.+-&O%dmmncllxlllxlxxt#+25# MMMMMMMMMMMMMMMMMM",
"MMMMMMMMMMMMMMMMMM+$,,&-rffdrwwwtwttwtt7*;ai:#MMMMMMMMMMMMMMMMMM",
"MMMMMMMMMMMMMMMM +=,18w8;%%%$#%########*7iaji5@ MMMMMMMMMMMMMMMM",
"MMMMMMMMMMMMMMMM+$,48yki%.@##$#######@X#wllllu;@MMMMMMMMMMMMMMMM",
"MMMMMMMMMMMMMM O&,48ykvs%+2ttwwwtwwtt2@#wllkkaa2# MMMMMMMMMMMMMM",
"MMMMMMMMMMMMMM$$3449acnf%#wllljlkkkllw##tlkjjlja;@MMMMMMMMMMMMMM",
"MMMMMMMMMMMM.+&34449acnf%#wlljljkkkllw##wkkjkjlai5# MMMMMMMMMMMM",
"MMMMMMMMMMMM +,44449dzfe;;uljjljjjkkku;*5aakjjjklt# MMMMMMMMMMMM",
"MMMMMMMMMMMM +,44440zf>:7ialljjjjjjjkju5*;ukkjkklw# MMMMMMMMMMMM",
"MMMMMMMMMMMM+$,4448yvf%@wlljjjjjkjjkjkxw##wlkjkllp:#MMMMMMMMMMMM",
"MMMMMMMMMM +=34444yznf%@wlljjjjjjkjjjllw@@wlkjjkjjp5# MMMMMMMMMM",
"MMMMMMMMMM.+&,,,48klfe;;uljjjjljjjjjjjku;*5ajkkauwt5# MMMMMMMMMM",
"MMMMMMMMMM.X++O$,0hp>-7iakjjjjjjkjjjjjjji7*;ulxi;##@oXMMMMMMMMMM",
"MMMMMMMMMM.X++O$&39,+#txlkljljjjjjjjjljlxt#+<ut5*##@o.MMMMMMMMMM",
"MMMMMMMMMM.+&,,=$+$#X#uxllljjkjjjjjjljjxxt$X+$#*5tu5# MMMMMMMMMM",
"MMMMMMMMMM +=,4,&$$$o@5wwwwuallllxjjuwwtt5@X@##;pjp5# MMMMMMMMMM",
"MMMMMMMMMMMM+$,8widq@.#$###;illjjxxu;###$#X@5wwiji;#MMMMMMMMMMMM",
"MMMMMMMMMMMM.O=3ylbg2#Xo+##=5tttwtt5*##@XX+;ixlji5# MMMMMMMMMMMM",
"MMMMMMMMMMMMMM+$1ykzgq#+5tt7=######*5tt5+@2ihlxi;#MMMMMMMMMMMMMM",
"MMMMMMMMMMMMMM +&4rlbd%#txlu;######;axxw##tlxhi5# MMMMMMMMMMMMMM",
"MMMMMMMMMMMMMMMM+$4yju##txxhutwtwwwuajxt##wlxu;#MMMMMMMMMMMMMMMM",
"MMMMMMMMMMMMMMMM O&4yt-=5ihjxjjjjxjxjja5*;pjp2# MMMMMMMMMMMMMMMM",
"MMMMMMMMMMMMMMMMMM+$3ww7*;ikjxjxjlljju;*5pju;#MMMMMMMMMMMMMMMMMM",
"MMMMMMMMMMMMMMMMMM +&5au##wkxjjjjjjjlw@#wjp5@ MMMMMMMMMMMMMMMMMM",
"MMMMMMMMMMMMMMMMMMMM+*it$$tlxjjjjjjjlw##ua;@MMMMMMMMMMMMMMMMMMMM",
"MMMMMMMMMMMMMMMMMMMM $56&$3ihxjjjxjji5*;55@ MMMMMMMMMMMMMMMMMMMM",
"MMMMMMMMMMMMMMMMMMMMMM#&--&-ijjjjjxa;*77*#MMMMMMMMMMMMMMMMMMMMMM",
"MMMMMMMMMMMMMMMMMMMMMM +==$$5ijxlau5*=75# MMMMMMMMMMMMMMMMMMMMMM",
"MMMMMMMMMMMMMMMMMMMMMMMM+$--%=plxa;*77;#MMMMMMMMMMMMMMMMMMMMMMMM",
"MMMMMMMMMMMMMMMMMMMMMMMM +=-#&5tt5**75# MMMMMMMMMMMMMMMMMMMMMMMM",
"MMMMMMMMMMMMMMMMMMMMMMMMMMO$=-&##*77;#MMMMMMMMMMMMMMMMMMMMMMMMMM",
"MMMMMMMMMMMMMMMMMMMMMMMMMM.+==+  @57# MMMMMMMMMMMMMMMMMMMMMMMMMM",
"MMMMMMMMMMMMMMMMMMMMMMMMMMMM++o  o#$MMMMMMMMMMMMMMMMMMMMMMMMMMMM",
"MMMMMMMMMMMMMMMMMMMMMMMMMMMM ...X.  MMMMMMMMMMMMMMMMMMMMMMMMMMMM",
"MMMMMMMMMMMMMMMMMMMMMMMMMMMMMMMMMMMMMMMMMMMMMMMMMMMMMMMMMMMMMMMM",
"MMMMMMMMMMMMMMMMMMMMMMMMMMMMMMMMMMMMMMMMMMMMMMMMMMMMMMMMMMMMMMMM",
"MMMMMMMMMMMMMMMMMMMMMMMMMMMMMMMMMMMMMMMMMMMMMMMMMMMMMMMMMMMMMMMM",
"MMMMMMMMMMMMMMMMMMMMMMMMMMMMMMMMMMMMMMMMMMMMMMMMMMMMMMMMMMMMMMMM",
"MMMMMMMMMMMMMMMMMMMMMMMMMMMMMMMMMMMMMMMMMMMMMMMMMMMMMMMMMMMMMMMM",
"MMMMMMMMMMMMMMMMMMMMMMMMMMMMMMMMMMMMMMMMMMMMMMMMMMMMMMMMMMMMMMMM",
"MMMMMMMMMMMMMMMMMMMMMMMMMMMMMMMMMMMMMMMMMMMMMMMMMMMMMMMMMMMMMMMM",
"MMMMMMMMMMMMMMMMMMMMMMMMMMMMMMMMMMMMMMMMMMMMMMMMMMMMMMMMMMMMMMMM",
"MMMMMMMMMMMMMMMMMMMMMMMMMMMMMMMMMMMMMMMMMMMMMMMMMMMMMMMMMMMMMMMM",
"MMMMMMMMMMMMMMMMMMMMMMMMMMMMMMMMMMMMMMMMMMMMMMMMMMMMMMMMMMMMMMMM",
"MMMMMMMMMMMMMMMMMMMMMMMMMMMMMMMMMMMMMMMMMMMMMMMMMMMMMMMMMMMMMMMM",
"MMMMMMMMMMMMMMMMMMMMMMMMMMMMMMMMMMMMMMMMMMMMMMMMMMMMMMMMMMMMMMMM",
"MMMMMMMMMMMMMMMMMMMMMMMMMMMMMMMMMMMMMMMMMMMMMMMMMMMMMMMMMMMMMMMM",
"MMMMMMMMMMMMMMMMMMMMMMMMMMMMMMMMMMMMMMMMMMMMMMMMMMMMMMMMMMMMMMMM"
};
