/* XPM */
static char *result[] = {
/* columns rows colors chars-per-pixel */
"64 64 69 1 ",
"  c #34638E",
". c #366791",
"X c #376993",
"o c #386C95",
"O c #3A6F98",
"+ c #3C739C",
"@ c #3D799F",
"# c #3E7CA2",
"$ c #437E9F",
"% c #417EA5",
"& c #4483A5",
"* c #4989A6",
"= c #4484AC",
"- c #458BAE",
"; c #4889A8",
": c #4B92AF",
"> c #468AB0",
", c #498CB3",
"< c #4791B4",
"1 c #4A92B5",
"2 c #4E9BB7",
"3 c #4D94BB",
"4 c #4D9FBF",
"5 c #529EB7",
"6 c #4DA0BF",
"7 c #55A2B8",
"8 c #529EC4",
"9 c #4EA4C2",
"0 c #53A2C6",
"q c #51A9C6",
"w c #58AFC6",
"e c #52ABC8",
"r c #54B3CF",
"t c #5BB6CB",
"y c #5CB8CC",
"u c #55B5D1",
"i c #58B7D1",
"p c #57BAD4",
"a c #58BBD5",
"s c #59BFD8",
"d c #61B7C4",
"f c #62B9C6",
"g c #65BECA",
"h c #5FC2D6",
"j c #5CC6DF",
"k c #60C3D6",
"l c #61C6D8",
"z c #65CCDB",
"x c #68CDD9",
"c c #6ED4DA",
"v c #71D4D7",
"b c #72D6D9",
"n c #73DBDD",
"m c #5FCCE4",
"M c #60CFE6",
"N c #61D1E7",
"B c #68D6E5",
"V c #62D3E8",
"C c #66D8EA",
"Z c #69DCEB",
"A c #6EE3EF",
"S c #73E6EB",
"D c #75E9ED",
"F c #6DE3F0",
"G c #71E7F1",
"H c #74EBF2",
"J c #7BF3F2",
"K c #84FBF3",
"L c None",
/* pixels */
"LLLLLLLLLLLLLLLLLLLLLLLLLLLLLLLLLLLLLLLLLLLLLLLLLLLLLLLLLLLLLLLL",
"LLLLLLLLLLLLLLLLLLLLLLLLLLLLLLLLLLLLLLLLLLLLLLLLLLLLLLLLLLLLLLLL",
"LLLLLLLLLLLLLLLLLLLLLLLLLLLLLLLLLLLLLLLLLLLLLLLLLLLLLLLLLLLLLLLL",
"LLLLLLLLLLLLLLLLLLLLLLLLLLLLLLLLLLLLLLLLLLLLLLLLLLLLLLLLLLLLLLLL",
"LLLLLLLLLLLLLLLLLLLLLLLLLLLLLLLLLLLLLLLLLLLLLLLLLLLLLLLLLLLLLLLL",
"LLLLLLLLLLLLLLLLLLLLLLLLLLLLLLLLLLLLLLLLLLLLLLLLLLLLLLLLLLLLLLLL",
"LLLLLLLLLLLLLLLLLLLLLLLLLLLLLLLLLLLLLLLLLLLLLLLLLLLLLLLLLLLLLLLL",
"LLLLLLLLLLLLLLLLLLLLLLLLLLLLLLLLLLLLLLLLLLLLLLLLLLLLLLLLLLLLLLLL",
"LLLLLLLLLLLLLLLLLLLLLLLLLLLLLLLLLLLLLLLLLLLLLLLLLLLLLLLLLLLLLLLL",
"LLLLLLLLLLLLLLLLLLLLLLLLLLLLLLLLLLLLLLLLLLLLLLLLLLLLLLLLLLLLLLLL",
"LLLLLLLLLLLLLLLLLLLLLLLL   .  .      .  LLLLLLLLLLLLLLLLLLLLLLLL",
"LLLLLLLLLLLLLLLLLLLLLLLL#&%%%&#&&=#&%%&#LLLLLLLLLLLLLLLLLLLLLLLL",
"LLLLLLLLLLLLLLLLLLLL   %9uuruuruhhprrrr9%   LLLLLLLLLLLLLLLLLLLL",
"LLLLLLLLLLLLLLLLLLLL++X%pVNNVMMCGHZVVVVu#o##LLLLLLLLLLLLLLLLLLLL",
"LLLLLLLLLLLLLLLLLL +>=O#uVVNNMNCGHHAVNVu#@69# LLLLLLLLLLLLLLLLLL",
"LLLLLLLLLLLLLLLLLL+=33%=9uurrrrphzzhpruq-<ha1#LLLLLLLLLLLLLLLLLL",
"LLLLLLLLLLLLLLLL.+=3883,=#######&&&&#@&-qamja9@ LLLLLLLLLLLLLLLL",
"LLLLLLLLLLLLLLLL+%388883+X@#######&&*$X#rNNMNa<#LLLLLLLLLLLLLLLL",
"LLLLLLLLLLLLLL.O=8888883+@9uuuurrphxcd&@rNNmNja6@ LLLLLLLLLLLLLL",
"LLLLLLLLLLLLLL#%3888888,O#rVVMMMNCAJKb*@rNNmmMNp<#LLLLLLLLLLLLLL",
"LLLLLLLLLLLL $=888888803O#uMMMMMmVAJKv&@rNNmmNMjp9# LLLLLLLLLLLL",
"LLLLLLLLLLLL +388888883,=<pMMmmmmVZDJn7:qammmmmNNu# LLLLLLLLLLLL",
"LLLLLLLLLLLL O,8888883%%9pmMMmmmmMVZSDng<>uNmmmNNu# LLLLLLLLLLLL",
"LLLLLLLLLLLL+%38888883O#uMmMmmMmmmmNADJc&#rNNmmMma1#LLLLLLLLLLLL",
"LLLLLLLLLL +,88808888,O#uNmmmmmmmmMMNZDx&@wNNmmNmma9& LLLLLLLLLL",
"LLLLLLLLLL.+%3,388888,=,pmNmMmMmMmmmjCAc7:qajNNjprp9# LLLLLLLLLL",
"LLLLLLLLLL.XO#$%3808#=9amMmmmmmmmMmmMVASnh:<aVVa<##@o LLLLLLLLLL",
"LLLLLLLLLLXXOOO%,33%O#uVMmNmmMmMmmmmmVAJKb*+6rrq-###o.LLLLLLLLLL",
"LLLLLLLLLL.+=33>%O+O.%uVNmmMmmmmmmmmNCAJKb*.+##-9pu9# LLLLLLLLLL",
"LLLLLLLLLL +>383%O+O.#8uuurpmMMMNNNjprhcvt&.+##<amh9% LLLLLLLLLL",
"LLLLLLLLLLLL+%388,3%OX#%###<pMMMmNNa<##&-&X#9uupmp<#LLLLLLLLLLLL",
"LLLLLLLLLLLL +>38888%O.X###=9uuurrrq-#&#oX+<aNNmp9# LLLLLLLLLLLL",
"LLLLLLLLLLLLLL+%88883=o#9uu9-#%####-9phw$+6amNNa<@LLLLLLLLLLLLLL",
"LLLLLLLLLLLLLL.+%38883O%uVVp,##%###,pZHc&@uNNmp9# LLLLLLLLLLLLLL",
"LLLLLLLLLLLLLLLL+%8803+%uVNmpreurrrpjZJc&%rVNp<@LLLLLLLLLLLLLLLL",
"LLLLLLLLLLLLLLLL +=383%%9ajmNmMMNNMMNBbh<<pma9# LLLLLLLLLLLLLLLL",
"LLLLLLLLLLLLLLLLLL#%383,=<pmMMMMmNmVAx2:qama<#LLLLLLLLLLLLLLLLLL",
"LLLLLLLLLLLLLLLLLL O>383+#rNMmMmmmmBSx&#uma9# LLLLLLLLLLLLLLLLLL",
"LLLLLLLLLLLLLLLLLLLLO%31+#rNMMmMmmmZJv&@us<#LLLLLLLLLLLLLLLLLLLL",
"LLLLLLLLLLLLLLLLLLLL.+>>#=9ajMmmmNVcvh1-q9# LLLLLLLLLLLLLLLLLLLL",
"LLLLLLLLLLLLLLLLLLLLLL+%,,%,pNMMmVAz2:eq-@LLLLLLLLLLLLLLLLLLLLLL",
"LLLLLLLLLLLLLLLLLLLLLL.+,,%%0pmMVBzt<>qq# LLLLLLLLLLLLLLLLLLLLLL",
"LLLLLLLLLLLLLLLLLLLLLLLL+%>,&<pCAz2<qq-#LLLLLLLLLLLLLLLLLLLLLLLL",
"LLLLLLLLLLLLLLLLLLLLLLLL.+>>#%qpzt<-qq# LLLLLLLLLLLLLLLLLLLLLLLL",
"LLLLLLLLLLLLLLLLLLLLLLLLLL+%>,=&&<eq-#LLLLLLLLLLLLLLLLLLLLLLLLLL",
"LLLLLLLLLLLLLLLLLLLLLLLLLL +>=O  #9q# LLLLLLLLLLLLLLLLLLLLLLLLLL",
"LLLLLLLLLLLLLLLLLLLLLLLLLLLL#OX  o#%LLLLLLLLLLLLLLLLLLLLLLLLLLLL",
"LLLLLLLLLLLLLLLLLLLLLLLLLLLL..X..   LLLLLLLLLLLLLLLLLLLLLLLLLLLL",
"LLLLLLLLLLLLLLLLLLLLLLLLLLLLLLLLLLLLLLLLLLLLLLLLLLLLLLLLLLLLLLLL",
"LLLLLLLLLLLLLLLLLLLLLLLLLLLLLLLLLLLLLLLLLLLLLLLLLLLLLLLLLLLLLLLL",
"LLLLLLLLLLLLLLLLLLLLLLLLLLLLLLLLLLLLLLLLLLLLLLLLLLLLLLLLLLLLLLLL",
"LLLLLLLLLLLLLLLLLLLLLLLLLLLLLLLLLLLLLLLLLLLLLLLLLLLLLLLLLLLLLLLL",
"LLLLLLLLLLLLLLLLLLLLLLLLLLLLLLLLLLLLLLLLLLLLLLLLLLLLLLLLLLLLLLLL",
"LLLLLLLLLLLLLLLLLLLLLLLLLLLLLLLLLLLLLLLLLLLLLLLLLLLLLLLLLLLLLLLL",
"LLLLLLLLLLLLLLLLLLLLLLLLLLLLLLLLLLLLLLLLLLLLLLLLLLLLLLLLLLLLLLLL",
"LLLLLLLLLLLLLLLLLLLLLLLLLLLLLLLLLLLLLLLLLLLLLLLLLLLLLLLLLLLLLLLL",
"LLLLLLLLLLLLLLLLLLLLLLLLLLLLLLLLLLLLLLLLLLLLLLLLLLLLLLLLLLLLLLLL",
"LLLLLLLLLLLLLLLLLLLLLLLLLLLLLLLLLLLLLLLLLLLLLLLLLLLLLLLLLLLLLLLL",
"LLLLLLLLLLLLLLLLLLLLLLLLLLLLLLLLLLLLLLLLLLLLLLLLLLLLLLLLLLLLLLLL",
"LLLLLLLLLLLLLLLLLLLLLLLLLLLLLLLLLLLLLLLLLLLLLLLLLLLLLLLLLLLLLLLL",
"LLLLLLLLLLLLLLLLLLLLLLLLLLLLLLLLLLLLLLLLLLLLLLLLLLLLLLLLLLLLLLLL",
"LLLLLLLLLLLLLLLLLLLLLLLLLLLLLLLLLLLLLLLLLLLLLLLLLLLLLLLLLLLLLLLL",
"LLLLLLLLLLLLLLLLLLLLLLLLLLLLLLLLLLLLLLLLLLLLLLLLLLLLLLLLLLLLLLLL",
"LLLLLLLLLLLLLLLLLLLLLLLLLLLLLLLLLLLLLLLLLLLLLLLLLLLLLLLLLLLLLLLL"
};
