/* XPM */
static char *result[] = {
/* columns rows colors chars-per-pixel */
"64 64 51 1 ",
"  c #325F8B",
". c #34638D",
"X c #366791",
"o c #376993",
"O c #386D96",
"+ c #3A6F98",
"@ c #3C749C",
"# c #3D799F",
"$ c #3F7CA2",
"% c #407EA4",
"& c #4382A5",
"* c #4383AA",
"= c #448AAE",
"- c #468BB1",
"; c #498CB4",
": c #4791B3",
"> c #4A93B5",
", c #4B98B7",
"< c #4D94BA",
"1 c #4D9CBD",
"2 c #509EBA",
"3 c #4DA0BF",
"4 c #529DC4",
"5 c #4EA4C3",
"6 c #52A3C5",
"7 c #51A9C7",
"8 c #54A5C9",
"9 c #54AACC",
"0 c #59B1C7",
"q c #55B3CF",
"w c #5BB5CA",
"e c #5CB8CC",
"r c #56B5D1",
"t c #59B6D3",
"y c #57BAD4",
"u c #58BCD6",
"i c #5ABED9",
"p c #5DC4DE",
"a c #61C5D7",
"s c #62C6D9",
"d c #64CCDD",
"f c #66D0DF",
"g c #5DC6E0",
"h c #5FCCE3",
"j c #60CFE5",
"k c #61D1E7",
"l c #61D2E8",
"z c #66D9EC",
"x c #6DE2EE",
"c c #6EE5F1",
"v c None",
/* pixels */
"vvvvvvvvvvvvvvvvvvvvvvvvvvvvvvvvvvvvvvvvvvvvvvvvvvvvvvvvvvvvvvvv",
"vvvvvvvvvvvvvvvvvvvvvvvvvvvvvvvvvvvvvvvvvvvvvvvvvvvvvvvvvvvvvvvv",
"vvvvvvvvvvvvvvvvvvvvvvvvvvvvvvvvvvvvvvvvvvvvvvvvvvvvvvvvvvvvvvvv",
"vvvvvvvvvvvvvvvvvvvvvvvvvvvvvvvvvvvvvvvvvvvvvvvvvvvvvvvvvvvvvvvv",
"vvvvvvvvvvvvvvvvvvvvvvvvvvvvvvvvvvvvvvvvvvvvvvvvvvvvvvvvvvvvvvvv",
"vvvvvvvvvvvvvvvvvvvvvvvvvvvvvvvvvvvvvvvvvvvvvvvvvvvvvvvvvvvvvvvv",
"vvvvvvvvvvvvvvvvvvvvvvvvvvvvvvvvvvvvvvvvvvvvvvvvvvvvvvvvvvvvvvvv",
"vvvvvvvvvvvvvvvvvvvvvvvvvvvvvvvvvvvvvvvvvvvvvvvvvvvvvvvvvvvvvvvv",
"vvvvvvvvvvvvvvvvvvvvvvvvvvvvvvvvvvvvvvvvvvvvvvvvvvvvvvvvvvvvvvvv",
"vvvvvvvvvvvvvvvvvvvvvvvvvvvvvvvvvvvvvvvvvvvvvvvvvvvvvvvvvvvvvvvv",
"vvvvvvvvvvvvvvvvvvvvvvvvvvvvvvvvvvvvvvvvvvvvvvvvvvvvvvvvvvvvvvvv",
"vvvvvvvvvvvvvvvvvvvvvvvvvvvvvvvvvvvvvvvvvvvvvvvvvvvvvvvvvvvvvvvv",
"vvvvvvvvvvvvvvvvvvvvvvvvvvvvvvvvvvvvvvvvvvvvvvvvvvvvvvvvvvvvvvvv",
"vvvvvvvvvvvvvvvvvvvvvvvvvvvvvvvvvvvvvvvvvvvvvvvvvvvvvvvvvvvvvvvv",
"vvvvvvvvvvvvvvvvvvvvvvvv.....X.X.....X.Xvvvvvvvvvvvvvvvvvvvvvvvv",
"vvvvvvvvvvvvvvvvvvvvvvvv**&&&%%%&&&&&$%$vvvvvvvvvvvvvvvvvvvvvvvv",
"vvvvvvvvvvvvvvvvvvvv...&epeqqqqqqqqqqqq5%...vvvvvvvvvvvvvvvvvvvv",
"vvvvvvvvvvvvvvvvvvvv&%O&pczjlljlkkkkllly%o#$vvvvvvvvvvvvvvvvvvvv",
"vvvvvvvvvvvvvvvvvv.&e0%&yzlkjlljkklkkllr$#35%.vvvvvvvvvvvvvvvvvv",
"vvvvvvvvvvvvvvvvvv&1fd-&5rrqqqqqqqqqqqr7=:pu,#vvvvvvvvvvvvvvvvvv",
"vvvvvvvvvvvvvvvv %wjzs6;*$$$$$$$$%$$$$%=7uphp3# vvvvvvvvvvvvvvvv",
"vvvvvvvvvvvvvvvv#2dzdy9;@X#$%$$$%$%$%@o%qljjhp:#vvvvvvvvvvvvvvvv",
"vvvvvvvvvvvvvv.#2ajjt88;@#5rrrrqqqqrr3@$rkjjkpy3$ vvvvvvvvvvvvvv",
"vvvvvvvvvvvvvv&,ujgu848;+$qllhkjjkkllr$$qkjhhhkp:$vvvvvvvvvvvvvv",
"vvvvvvvvvvvv.&wdjj98444;+$rlkjjjjjkkkq$$qkjhhkjpy5$.vvvvvvvvvvvv",
"vvvvvvvvvvvv.&axzi84444-*;uhjjhhhhhjhy:=3ppkhhhjjr&.vvvvvvvvvvvv",
"vvvvvvvvvvvv.&tzls944<$*5ughhhhhhjhjhpp3=:yhjjhklq$.vvvvvvvvvvvv",
"vvvvvvvvvvvv&,ujgu848;+$rllhhjhjhhhhhjkq#$qjjhhjjy>$vvvvvvvvvvvv",
"vvvvvvvvvv.&ekkpt8444<+$rllhhhhhjhjhkkkq@$qjjjjjjhi5$.vvvvvvvvvv",
"vvvvvvvvvv.%wsu04444<;*:yhjhhhhjhhhhhjhy:=5pgjjgyrr5$.vvvvvvvvvv",
"vvvvvvvvvvXO&&&*4444%%8ughhhhhjhhhjhhhhpp5=:ullu:$$#OXvvvvvvvvvv",
"vvvvvvvvvvXO@$@#-;<*O%rllhjjhhhhhjhhjjkllr%@3rr5=$$#OXvvvvvvvvvv",
"vvvvvvvvvv.$592-%@$OX$rllhjhhhhhhhhhhjjkly$o#$$=5qr3#Xvvvvvvvvvv",
"vvvvvvvvvv.$6tt6%+++X$5rrqqyglhljjhgp7qry3#X#$#:php5&ovvvvvvvvvv",
"vvvvvvvvvvvv$>sd4<;-+o$$$$$:ilhhjjkp:#$$%#X#3qqphp:#vvvvvvvvvvvv",
"vvvvvvvvvvvv.*wat88<%+Xo$$$=5rqrrrr5=$$#oX#=phkpp3$ vvvvvvvvvvvv",
"vvvvvvvvvvvvvv&>ti84<=+$1rr5-$$$$$#=5qr3##3ppllp=#vvvvvvvvvvvvvv",
"vvvvvvvvvvvvvv.#6rq88;+%rlli;$$$$$$=pklr$$qklpy3# vvvvvvvvvvvvvv",
"vvvvvvvvvvvvvvvv$;ti9;+%rllgurrrqqqphhlr$$rllp:$vvvvvvvvvvvvvvvv",
"vvvvvvvvvvvvvvvv $4tr5**5ugjjhhlkhhhhgp5==ppy3$.vvvvvvvvvvvvvvvv",
"vvvvvvvvvvvvvvvvvv$>sd6-%:ujjjlhhkkhkp==5pgy,$vvvvvvvvvvvvvvvvvv",
"vvvvvvvvvvvvvvvvvv.&wst<@$rhlhjhhhhkhq##pgp3$ovvvvvvvvvvvvvvvvvv",
"vvvvvvvvvvvvvvvvvvvv&,t9$$tlhhhhhhhkhq$$yp=#vvvvvvvvvvvvvvvvvvvv",
"vvvvvvvvvvvvvvvvvvvv.$67*%5uhhhhhhhhp7==55$ vvvvvvvvvvvvvvvvvvvv",
"vvvvvvvvvvvvvvvvvvvvvv$*;;%;uhjhhkhp=&77=#vvvvvvvvvvvvvvvvvvvvvv",
"vvvvvvvvvvvvvvvvvvvvvv.@;;%%5yhlhhp3==77$ vvvvvvvvvvvvvvvvvvvvvv",
"vvvvvvvvvvvvvvvvvvvvvvvv+%-;*:yllp==57:$vvvvvvvvvvvvvvvvvvvvvvvv",
"vvvvvvvvvvvvvvvvvvvvvvvv.+--$*5tp3==75$ vvvvvvvvvvvvvvvvvvvvvvvv",
"vvvvvvvvvvvvvvvvvvvvvvvvvv@%-;*%$-77:$vvvvvvvvvvvvvvvvvvvvvvvvvv",
"vvvvvvvvvvvvvvvvvvvvvvvvvv.@;=+..$55$.vvvvvvvvvvvvvvvvvvvvvvvvvv",
"vvvvvvvvvvvvvvvvvvvvvvvvvvvv@@XX.O$&vvvvvvvvvvvvvvvvvvvvvvvvvvvv",
"vvvvvvvvvvvvvvvvvvvvvvvvvvvvXXXXXX..vvvvvvvvvvvvvvvvvvvvvvvvvvvv",
"vvvvvvvvvvvvvvvvvvvvvvvvvvvvvvvvvvvvvvvvvvvvvvvvvvvvvvvvvvvvvvvv",
"vvvvvvvvvvvvvvvvvvvvvvvvvvvvvvvvvvvvvvvvvvvvvvvvvvvvvvvvvvvvvvvv",
"vvvvvvvvvvvvvvvvvvvvvvvvvvvvvvvvvvvvvvvvvvvvvvvvvvvvvvvvvvvvvvvv",
"vvvvvvvvvvvvvvvvvvvvvvvvvvvvvvvvvvvvvvvvvvvvvvvvvvvvvvvvvvvvvvvv",
"vvvvvvvvvvvvvvvvvvvvvvvvvvvvvvvvvvvvvvvvvvvvvvvvvvvvvvvvvvvvvvvv",
"vvvvvvvvvvvvvvvvvvvvvvvvvvvvvvvvvvvvvvvvvvvvvvvvvvvvvvvvvvvvvvvv",
"vvvvvvvvvvvvvvvvvvvvvvvvvvvvvvvvvvvvvvvvvvvvvvvvvvvvvvvvvvvvvvvv",
"vvvvvvvvvvvvvvvvvvvvvvvvvvvvvvvvvvvvvvvvvvvvvvvvvvvvvvvvvvvvvvvv",
"vvvvvvvvvvvvvvvvvvvvvvvvvvvvvvvvvvvvvvvvvvvvvvvvvvvvvvvvvvvvvvvv",
"vvvvvvvvvvvvvvvvvvvvvvvvvvvvvvvvvvvvvvvvvvvvvvvvvvvvvvvvvvvvvvvv",
"vvvvvvvvvvvvvvvvvvvvvvvvvvvvvvvvvvvvvvvvvvvvvvvvvvvvvvvvvvvvvvvv",
"vvvvvvvvvvvvvvvvvvvvvvvvvvvvvvvvvvvvvvvvvvvvvvvvvvvvvvvvvvvvvvvv"
};
