/* XPM */
static char *result[] = {
/* columns rows colors chars-per-pixel */
"64 64 247 2 ",
"   c #0F040B",
".  c #0F050B",
"X  c #120904",
"o  c #120709",
"O  c #10060A",
"+  c #120809",
"@  c #120A08",
"#  c #130A08",
"$  c #130B08",
"%  c #140E0F",
"&  c #140F0F",
"*  c #161217",
"=  c #161715",
"-  c #17151D",
";  c #181D18",
":  c #181D19",
">  c #181E19",
",  c #191F19",
"<  c #181E1A",
"1  c #191E1A",
"2  c #191F1A",
"3  c #191F1B",
"4  c #1F2616",
"5  c #1B2219",
"6  c #19201B",
"7  c #1A241F",
"8  c #181622",
"9  c #1A1C29",
"0  c #1A1A2C",
"q  c #1C1E31",
"w  c #1C1E32",
"e  c #1C1F34",
"r  c #1C1D3B",
"t  c #1B2325",
"y  c #1C2526",
"u  c #1E342F",
"i  c #1F382E",
"p  c #1C2333",
"a  c #1C2034",
"s  c #1E2932",
"d  c #1E273D",
"f  c #20392D",
"g  c #491C1C",
"h  c #711F1F",
"j  c #2A4327",
"k  c #314B22",
"l  c #314A23",
"z  c #264634",
"x  c #2C1D48",
"c  c #212A4A",
"v  c #222D4E",
"b  c #202951",
"n  c #243255",
"m  c #253654",
"M  c #253A55",
"N  c #263B55",
"B  c #26375E",
"V  c #27395F",
"C  c #293361",
"Z  c #283362",
"A  c #293461",
"S  c #2C3461",
"D  c #2B3F79",
"F  c #452149",
"G  c #4D384A",
"H  c #4A3954",
"J  c #264646",
"K  c #2D4E42",
"L  c #25484A",
"P  c #265140",
"I  c #275745",
"U  c #285340",
"Y  c #295742",
"T  c #285744",
"R  c #275945",
"E  c #295842",
"W  c #295843",
"Q  c #295A43",
"!  c #295844",
"~  c #2B5B49",
"^  c #2F415D",
"/  c #3C4E5C",
"(  c #3A5B5A",
")  c #3C5C5B",
"_  c #2E6951",
"`  c #2F655E",
"'  c #327659",
"]  c #327759",
"[  c #32775A",
"{  c #33775A",
"}  c #32785A",
"|  c #33795B",
" . c #31785C",
".. c #33785C",
"X. c #337B5C",
"o. c #274465",
"O. c #284966",
"+. c #2B4769",
"@. c #2D5F65",
"#. c #2C556C",
"$. c #2B4375",
"%. c #2D4877",
"&. c #2D4977",
"*. c #2D4B76",
"=. c #2D4D75",
"-. c #2E4D75",
";. c #2D4D76",
":. c #2E4C76",
">. c #2E4D76",
",. c #2E4E77",
"<. c #2B4179",
"1. c #2C4379",
"2. c #2C4578",
"3. c #2C447B",
"4. c #2F5673",
"5. c #2F5676",
"6. c #305572",
"7. c #305D71",
"8. c #326964",
"9. c #31676B",
"0. c #33656E",
"q. c #326D69",
"w. c #32696E",
"e. c #336B6E",
"r. c #357C63",
"t. c #357E63",
"y. c #327966",
"u. c #347A66",
"i. c #357E67",
"p. c #34776A",
"a. c #32706D",
"s. c #357F69",
"d. c #367F68",
"f. c #367F69",
"g. c #35796C",
"h. c #316472",
"j. c #316174",
"k. c #326775",
"l. c #56444D",
"z. c #4E5E58",
"x. c #44756C",
"c. c #9A6B22",
"v. c #8B6C3E",
"b. c #368366",
"n. c #368467",
"m. c #378766",
"M. c #378A65",
"N. c #378866",
"B. c #378966",
"V. c #368A66",
"C. c #378A66",
"Z. c #378B66",
"A. c #3D8D61",
"S. c #3D8E61",
"D. c #3C8D62",
"F. c #3D8E62",
"G. c #3D8F62",
"H. c #3C8E63",
"J. c #388865",
"K. c #398A65",
"L. c #388B65",
"P. c #388C65",
"I. c #388C66",
"U. c #388D66",
"Y. c #3D8F67",
"T. c #358068",
"R. c #368068",
"E. c #368168",
"W. c #368369",
"Q. c #36806B",
"!. c #37866B",
"~. c #358969",
"^. c #388B68",
"/. c #388C69",
"(. c #388E68",
"). c #398E69",
"_. c #408650",
"`. c #4E8651",
"'. c #438C50",
"]. c #508B5B",
"[. c #508C5B",
"{. c #508F5A",
"}. c #528F5F",
"|. c #439057",
" X c #46935E",
".X c #48925C",
"XX c #469A5C",
"oX c #519159",
"OX c #5AA041",
"+X c #5EA74C",
"@X c #5EB14D",
"#X c #5FB34C",
"$X c #5FB24D",
"%X c #5CB04E",
"&X c #4BA15A",
"*X c #54A753",
"=X c #54A355",
"-X c #54A554",
";X c #54A654",
":X c #54A853",
">X c #56A852",
",X c #57AB53",
"<X c #55AA56",
"1X c #59AC51",
"2X c #5CB251",
"3X c #66BB47",
"4X c #66BC47",
"5X c #68BB47",
"6X c #62B14A",
"7X c #63B64B",
"8X c #65B749",
"9X c #65B948",
"0X c #64B849",
"qX c #65B849",
"wX c #65B949",
"eX c #66B948",
"rX c #66B949",
"tX c #66BA48",
"yX c #66BB48",
"uX c #66BA49",
"iX c #67BC48",
"pX c #69B84A",
"aX c #6ABA4A",
"sX c #6BBB4A",
"dX c #6EBD48",
"fX c #6FB94F",
"gX c #77BE4D",
"hX c #60A85C",
"jX c #6AAF5D",
"kX c #63B258",
"lX c #71B457",
"zX c #7EB352",
"xX c #7AB857",
"cX c #408766",
"vX c #418866",
"bX c #4B8C6B",
"nX c #409062",
"mX c #439364",
"MX c #5AA562",
"NX c #5CA761",
"BX c #74C049",
"VX c #7FC14F",
"CX c #A88129",
"ZX c #8A8143",
"AX c #8DC84F",
"SX c #8BC650",
"DX c None",
/* pixels */
"DXDXDXDXDXDXDXDXDXDXDXDXDXDXDXDXDXDXDXDXDXDXDXDXDXDXDXDXDXDXDXDXDXDXDXDXDXDXDXDXDXDXDXDXDXDXDXDXDXDXDXDXDXDXDXDXDXDXDXDXDXDXDXDX",
"DXDXDXDXDXDXDXDXDXDXDXDXDXDXDXDXDXDXDXDXDXDXDXDXDXDXDXDXDXDXDXDXDXDXDXDXDXDXDXDXDXDXDXDXDXDXDXDXDXDXDXDXDXDXDXDXDXDXDXDXDXDXDXDX",
"DXDXDXDXDXDXDXDXDXDXDXDXDXDXDXDXDXDXDXDXDXDXDXDXDXDXDXDXDXDXDXDXDXDXDXDXDXDXDXDXDXDXDXDXDXDXDXDXDXDXDXDXDXDXDXDXDXDXDXDXDXDXDXDX",
"DXDXDXDXDXDXDXDXDXDXDXDXDXDXDXDXDXDXDXDXDXDXDXDXDXDXDXDXDXDXDXDXDXDXDXDXDXDXDXDXDXDXDXDXDXDXDXDXDXDXDXDXDXDXDXDXDXDXDXDXDXDXDXDX",
"DXDXDXDXDXDXDXDXDXDXDXDXDXDXDXDXDXDXDXDXDXDXDXDXDXDXDXDXDXDXDXDXDXDXDXDXDXDXDXDXDXDXDXDXDXDXDXDXDXDXDXDXDXDXDXDXDXDXDXDXDXDXDXDX",
"DXDXDXDXDXDXDXDXDXDXDXDXDXDXDXDXDXDXDXDXDXDXDXDXDXDXDXDXDXDXDXDXDXDXDXDXDXDXDXDXDXDXDXDXDXDXDXDXDXDXDXDXDXDXDXDXDXDXDXDXDXDXDXDX",
"DXDXDXDXDXDXDXDXDXDXDXDXDXDXDXDXDXDXDXDXDXDXDXDXDXDXDXDXDXDXDXDXDXDXDXDXDXDXDXDXDXDXDXDXDXDXDXDXDXDXDXDXDXDXDXDXDXDXDXDXDXDXDXDX",
"DXDXDXDXDXDXDXDXDXDXDXDXDXDXDXDXDXDXDXDXDXDXDXDXDXDXDXDXDXDXDXDXDXDXDXDXDXDXDXDXDXDXDXDXDXDXDXDXDXDXDXDXDXDXDXDXDXDXDXDXDXDXDXDX",
"DXDXDXDXDXDXDXDXDXDXDXDXDXDXDXDXDXDXDXDXDXDXDXDXDXDXDXDXDXDXDXDXDXDXDXDXDXDXDXDXDXDXDXDXDXDXDXDXDXDXDXDXDXDXDXDXDXDXDXDXDXDXDXDX",
"DXDXDXDXDXDXDXDXDXDXDXDXDXDXDXDXDXDXDXDXDXDXDXDXDXDXDXo o O   . .   O o o DXDXDXDXDXDXDXDXDXDXDXDXDXDXDXDXDXDXDXDXDXDXDXDXDXDXDX",
"DXDXDXDXDXDXDXDXDXDXDXDXDXDXDXDXDXDXDXDXDXDXDXDXDXDX7 i i j k l l k j i i 7 DXDXDXDXDXDXDXDXDXDXDXDXDXDXDXDXDXDXDXDXDXDXDXDXDXDX",
"DXDXDXDXDXDXDXDXDXDXDXDXDXDXDXDXDXDXDXDXDXDXDXDXDX= z A.G.>XeX8X8XeX>XG.A.z = DXDXDXDXDXDXDXDXDXDXDXDXDXDXDXDXDXDXDXDXDXDXDXDXDX",
"DXDXDXDXDXDXDXDXDXDXDXDXDXDXDXDXDXDXDXDXDXDXDXDX& P |.$X$X7XrXwXwXrX7X$X$X|.P & DXDXDXDXDXDXDXDXDXDXDXDXDXDXDXDXDXDXDXDXDXDXDXDX",
"DXDXDXDXDXDXDXDXDXDXDXDXDXDXDXDXDXDXDXDXDXDXDX: U '.2XeXeXqXqXqXqXqXqXeXeX2X'.U : DXDXDXDXDXDXDXDXDXDXDXDXDXDXDXDXDXDXDXDXDXDXDX",
"DXDXDXDXDXDXDXDXDXDXDXDXDXDXDXDXDXDXDXDXDXDXDX< X.kXBX0XyXuXqXqXqXqXuXyX0XBXkXX.< DXDXDXDXDXDXDXDXDXDXDXDXDXDXDXDXDXDXDXDXDXDXDX",
"DXDXDXDXDXDXDXDXDXDXDXDXDXDXDXDXDXDXDXDXDXDXDX< { jXVXpX+X6XrXwXwXrX6X+XpXVXjX{ < DXDXDXDXDXDXDXDXDXDXDXDXDXDXDXDXDXDXDXDXDXDXDX",
"DXDXDXDXDXDXDXDXDXDXDXDXDXDXDXDXDXDXDXDXDXDXDX1 [ Y.hXzX/ `.iX8X8XiX`./ zXhXY.[ 1 DXDXDXDXDXDXDXDXDXDXDXDXDXDXDXDXDXDXDXDXDXDXDX",
"DXDXDXDXDXDXDXDXDXDXDXDXDXDXDXDXDXDXDXDXDXDXDX2 [ ~.mX}.S ^ ( ) ) ( ^ S }.mX~.[ 2 DXDXDXDXDXDXDXDXDXDXDXDXDXDXDXDXDXDXDXDXDXDXDX",
"DXDXDXDXDXDXDXDXDXDXDXDXDXDXDXDXDXDXDXDXDXDXDX; ] ^.V.y.Z H G x x G H Z y.V.^.] ; DXDXDXDXDXDXDXDXDXDXDXDXDXDXDXDXDXDXDXDXDXDXDX",
"DXDXDXDXDXDXDXDXDXDXDXDXDXDXDXDXDXDXDXDXDXDXDXy ..^.Z.u.C v.c.g g c.v.C u.Z.^...y DXDXDXDXDXDXDXDXDXDXDXDXDXDXDXDXDXDXDXDXDXDXDX",
"DXDXDXDXDXDXDXDXDXDXDXDXDXDXDXDXDXDXDXDXDX$ w +.i.C.Z.u.A ZXCXh h CXZXA u.Z.C.i.+.w $ DXDXDXDXDXDXDXDXDXDXDXDXDXDXDXDXDXDXDXDXDX",
"DXDXDXDXDXDXDXDXDXDXDXDXDXDXDXDXDXDXDXDXDX$ a ,.f.M.B.b.8.z.l.F F l.z.8.b.B.M.f.,.a $ DXDXDXDXDXDXDXDXDXDXDXDXDXDXDXDXDXDXDXDXDX",
"DXDXDXDXDXDXDXDXDXDXDXDXDXDXDXDXDXDXDXDXDX$ e =.f.C.N.B.I.@.o.O.O.o.@.I.B.N.C.f.=.e $ DXDXDXDXDXDXDXDXDXDXDXDXDXDXDXDXDXDXDXDXDX",
"DXDXDXDXDXDXDXDXDXDXDXDXDXDXDXDXDXDXDXDXDX$ e =.f.C.N.m.R.n.K.F.F.K.n.R.m.N.C.f.=.e $ DXDXDXDXDXDXDXDXDXDXDXDXDXDXDXDXDXDXDXDXDX",
"DXDXDXDXDXDXDXDXDXDXDXDXDXDXDXDXDXDXDXDXDX$ e =.f.C.B.R.4.a.XX$X$XXXa.4.R.B.C.f.=.e $ DXDXDXDXDXDXDXDXDXDXDXDXDXDXDXDXDXDXDXDXDX",
"DXDXDXDXDXDXDXDXDXDXDXDXDXDXDXDXDXDXDXDXDX$ e =.f.L.g.j.e..X@X5X5X@X.Xe.j.g.L.f.=.e $ DXDXDXDXDXDXDXDXDXDXDXDXDXDXDXDXDXDXDXDXDX",
"DXDXDXDXDXDXDXDXDXDXDXDXDXDXDXDXDXDXDXDXDX$ e =.f.U.` N t.&X,X<X<X,X&Xt.N ` U.f.=.e $ DXDXDXDXDXDXDXDXDXDXDXDXDXDXDXDXDXDXDXDXDX",
"DXDXDXDXDXDXDXDXDXDXDXDXDXDXDXDXDXDXDXDXDX$ e =.f.).! 3 [ !.r.} } r.!.[ 3 ! ).f.=.e $ DXDXDXDXDXDXDXDXDXDXDXDXDXDXDXDXDXDXDXDXDX",
"DXDXDXDXDXDXDXDXDXDXDXDXDXDXDXDXDXDXDXDXDX$ e =.f.).W 2 [ k.M 3 3 M k.[ 2 W ).f.=.e $ DXDXDXDXDXDXDXDXDXDXDXDXDXDXDXDXDXDXDXDXDX",
"DXDXDXDXDXDXDXDXDXDXDXDXDXDXDXDXDXDXDXDXDXX q =.f.).W 6 ' J r b b r J ' 6 W ).f.=.q X DXDXDXDXDXDXDXDXDXDXDXDXDXDXDXDXDXDXDXDXDX",
"DXDXDXDXDXDXDXDXDXDXDXDXDXDXDXDXDXDXDXDXDX9 v =.f.).Y , | Q K x.x.K Q | , Y ).f.=.v 9 DXDXDXDXDXDXDXDXDXDXDXDXDXDXDXDXDXDXDXDXDX",
"DXDXDXDXDXDXDXDXDXDXDXDXDXDXDXDXDXDXDXDX- n 3.;.d.(.~ t _  ._.OXOX_. ._ t ~ (.d.;.3.n - DXDXDXDXDXDXDXDXDXDXDXDXDXDXDXDXDXDXDXDX",
"DXDXDXDXDXDXDXDXDXDXDXDXDXDXDXDXDXDXDX- B $.1.;.d.P.q.V t > 5 4 4 5 > t V q.P.d.;.1.$.B - DXDXDXDXDXDXDXDXDXDXDXDXDXDXDXDXDXDXDX",
"DXDXDXDXDXDXDXDXDXDXDXDXDXDXDXDXDXDX0 m 9.5.<.-.E.P.Q.q.~ E ! T T ! E ~ q.Q.P.E.-.<.5.9.m 0 DXDXDXDXDXDXDXDXDXDXDXDXDXDXDXDXDXDX",
"DXDXDXDXDXDXDXDXDXDXDXDXDXDXDXDXDX@ s h.W.7.D %.w.E.P.P././././././././.P.P.E.w.%.D 7.W.h.s @ DXDXDXDXDXDXDXDXDXDXDXDXDXDXDXDXDX",
"DXDXDXDXDXDXDXDXDXDXDXDXDXDXDXDXDXo f J.H.0.*.*.2.w.R.T.m.N.N.N.N.N.N.m.T.R.w.2.*.*.0.H.J.f o DXDXDXDXDXDXDXDXDXDXDXDXDXDXDXDXDX",
"DXDXDXDXDXDXDXDXDXDXDXDXDXDXDXDXDXo i D.1X Xs.p.:.&.>.4.R.M.N.N.N.N.M.R.4.>.&.:.p.s. X1XD.i o DXDXDXDXDXDXDXDXDXDXDXDXDXDXDXDXDX",
"DXDXDXDXDXDXDXDXDXDXDXDXDXDXDXDXDXo i S.#X%X:X-XoX[.].{.=X*X;X;X;X;X*X=X{.].[.oX-X:X%X#XS.i o DXDXDXDXDXDXDXDXDXDXDXDXDXDXDXDXDX",
"DXDXDXDXDXDXDXDXDXDXDXDXDXDXDXDXDXo i nXfXdX9XtX3X4X4X3XtX9X9X9X9X9X9XtX3X4X4X3XtX9XdXfXnXi o DXDXDXDXDXDXDXDXDXDXDXDXDXDXDXDXDX",
"DXDXDXDXDXDXDXDXDXDXDXDXDXDXDXDXDX+ u cXxXgXaXsXsXsXsXsXsXsXsXsXsXsXsXsXsXsXsXsXsXaXgXxXcXu + DXDXDXDXDXDXDXDXDXDXDXDXDXDXDXDXDX",
"DXDXDXDXDXDXDXDXDXDXDXDXDXDXDXDXDX# p 6.vXlXAXSXSXSXSXSXSXSXSXSXSXSXSXSXSXSXSXSXSXAXlXvX6.p # DXDXDXDXDXDXDXDXDXDXDXDXDXDXDXDXDX",
"DXDXDXDXDXDXDXDXDXDXDXDXDXDXDXDXDXDX8 d #.bXNXMXMXMXMXMXMXMXMXMXMXMXMXMXMXMXMXMXMXNXbX#.d 8 DXDXDXDXDXDXDXDXDXDXDXDXDXDXDXDXDXDX",
"DXDXDXDXDXDXDXDXDXDXDXDXDXDXDXDXDXDXDX* c L R I I I I I I I I I I I I I I I I I I R L c * DXDXDXDXDXDXDXDXDXDXDXDXDXDXDXDXDXDXDX",
"DXDXDXDXDXDXDXDXDXDXDXDXDXDXDXDXDXDXDXDX% & & & & & & & & & & & & & & & & & & & & & & % DXDXDXDXDXDXDXDXDXDXDXDXDXDXDXDXDXDXDXDX",
"DXDXDXDXDXDXDXDXDXDXDXDXDXDXDXDXDXDXDXDXDXDXDXDXDXDXDXDXDXDXDXDXDXDXDXDXDXDXDXDXDXDXDXDXDXDXDXDXDXDXDXDXDXDXDXDXDXDXDXDXDXDXDXDX",
"DXDXDXDXDXDXDXDXDXDXDXDXDXDXDXDXDXDXDXDXDXDXDXDXDXDXDXDXDXDXDXDXDXDXDXDXDXDXDXDXDXDXDXDXDXDXDXDXDXDXDXDXDXDXDXDXDXDXDXDXDXDXDXDX",
"DXDXDXDXDXDXDXDXDXDXDXDXDXDXDXDXDXDXDXDXDXDXDXDXDXDXDXDXDXDXDXDXDXDXDXDXDXDXDXDXDXDXDXDXDXDXDXDXDXDXDXDXDXDXDXDXDXDXDXDXDXDXDXDX",
"DXDXDXDXDXDXDXDXDXDXDXDXDXDXDXDXDXDXDXDXDXDXDXDXDXDXDXDXDXDXDXDXDXDXDXDXDXDXDXDXDXDXDXDXDXDXDXDXDXDXDXDXDXDXDXDXDXDXDXDXDXDXDXDX",
"DXDXDXDXDXDXDXDXDXDXDXDXDXDXDXDXDXDXDXDXDXDXDXDXDXDXDXDXDXDXDXDXDXDXDXDXDXDXDXDXDXDXDXDXDXDXDXDXDXDXDXDXDXDXDXDXDXDXDXDXDXDXDXDX",
"DXDXDXDXDXDXDXDXDXDXDXDXDXDXDXDXDXDXDXDXDXDXDXDXDXDXDXDXDXDXDXDXDXDXDXDXDXDXDXDXDXDXDXDXDXDXDXDXDXDXDXDXDXDXDXDXDXDXDXDXDXDXDXDX",
"DXDXDXDXDXDXDXDXDXDXDXDXDXDXDXDXDXDXDXDXDXDXDXDXDXDXDXDXDXDXDXDXDXDXDXDXDXDXDXDXDXDXDXDXDXDXDXDXDXDXDXDXDXDXDXDXDXDXDXDXDXDXDXDX",
"DXDXDXDXDXDXDXDXDXDXDXDXDXDXDXDXDXDXDXDXDXDXDXDXDXDXDXDXDXDXDXDXDXDXDXDXDXDXDXDXDXDXDXDXDXDXDXDXDXDXDXDXDXDXDXDXDXDXDXDXDXDXDXDX",
"DXDXDXDXDXDXDXDXDXDXDXDXDXDXDXDXDXDXDXDXDXDXDXDXDXDXDXDXDXDXDXDXDXDXDXDXDXDXDXDXDXDXDXDXDXDXDXDXDXDXDXDXDXDXDXDXDXDXDXDXDXDXDXDX",
"DXDXDXDXDXDXDXDXDXDXDXDXDXDXDXDXDXDXDXDXDXDXDXDXDXDXDXDXDXDXDXDXDXDXDXDXDXDXDXDXDXDXDXDXDXDXDXDXDXDXDXDXDXDXDXDXDXDXDXDXDXDXDXDX",
"DXDXDXDXDXDXDXDXDXDXDXDXDXDXDXDXDXDXDXDXDXDXDXDXDXDXDXDXDXDXDXDXDXDXDXDXDXDXDXDXDXDXDXDXDXDXDXDXDXDXDXDXDXDXDXDXDXDXDXDXDXDXDXDX",
"DXDXDXDXDXDXDXDXDXDXDXDXDXDXDXDXDXDXDXDXDXDXDXDXDXDXDXDXDXDXDXDXDXDXDXDXDXDXDXDXDXDXDXDXDXDXDXDXDXDXDXDXDXDXDXDXDXDXDXDXDXDXDXDX",
"DXDXDXDXDXDXDXDXDXDXDXDXDXDXDXDXDXDXDXDXDXDXDXDXDXDXDXDXDXDXDXDXDXDXDXDXDXDXDXDXDXDXDXDXDXDXDXDXDXDXDXDXDXDXDXDXDXDXDXDXDXDXDXDX",
"DXDXDXDXDXDXDXDXDXDXDXDXDXDXDXDXDXDXDXDXDXDXDXDXDXDXDXDXDXDXDXDXDXDXDXDXDXDXDXDXDXDXDXDXDXDXDXDXDXDXDXDXDXDXDXDXDXDXDXDXDXDXDXDX",
"DXDXDXDXDXDXDXDXDXDXDXDXDXDXDXDXDXDXDXDXDXDXDXDXDXDXDXDXDXDXDXDXDXDXDXDXDXDXDXDXDXDXDXDXDXDXDXDXDXDXDXDXDXDXDXDXDXDXDXDXDXDXDXDX",
"DXDXDXDXDXDXDXDXDXDXDXDXDXDXDXDXDXDXDXDXDXDXDXDXDXDXDXDXDXDXDXDXDXDXDXDXDXDXDXDXDXDXDXDXDXDXDXDXDXDXDXDXDXDXDXDXDXDXDXDXDXDXDXDX",
"DXDXDXDXDXDXDXDXDXDXDXDXDXDXDXDXDXDXDXDXDXDXDXDXDXDXDXDXDXDXDXDXDXDXDXDXDXDXDXDXDXDXDXDXDXDXDXDXDXDXDXDXDXDXDXDXDXDXDXDXDXDXDXDX",
"DXDXDXDXDXDXDXDXDXDXDXDXDXDXDXDXDXDXDXDXDXDXDXDXDXDXDXDXDXDXDXDXDXDXDXDXDXDXDXDXDXDXDXDXDXDXDXDXDXDXDXDXDXDXDXDXDXDXDXDXDXDXDXDX",
"DXDXDXDXDXDXDXDXDXDXDXDXDXDXDXDXDXDXDXDXDXDXDXDXDXDXDXDXDXDXDXDXDXDXDXDXDXDXDXDXDXDXDXDXDXDXDXDXDXDXDXDXDXDXDXDXDXDXDXDXDXDXDXDX",
"DXDXDXDXDXDXDXDXDXDXDXDXDXDXDXDXDXDXDXDXDXDXDXDXDXDXDXDXDXDXDXDXDXDXDXDXDXDXDXDXDXDXDXDXDXDXDXDXDXDXDXDXDXDXDXDXDXDXDXDXDXDXDXDX"
};
