/* XPM */
static char *result[] = {
/* columns rows colors chars-per-pixel */
"64 64 230 2 ",
"   c #0F040B",
".  c #0F050B",
"X  c #120904",
"o  c #120709",
"O  c #10060A",
"+  c #120809",
"@  c #120A08",
"#  c #130A08",
"$  c #130B08",
"%  c #12080F",
"&  c #140E0F",
"*  c #140F0F",
"=  c #161217",
"-  c #161715",
";  c #181D17",
":  c #17151D",
">  c #181D19",
",  c #181E1A",
"<  c #191E1A",
"1  c #191F1A",
"2  c #191F1B",
"3  c #1A241F",
"4  c #181523",
"5  c #181622",
"6  c #1A1C29",
"7  c #19182D",
"8  c #1A1A2C",
"9  c #1C1E31",
"0  c #1C1F34",
"q  c #1E3429",
"w  c #1E352C",
"e  c #1E342F",
"r  c #1F382C",
"t  c #1F382E",
"y  c #1C2333",
"u  c #1E2932",
"i  c #1E273D",
"p  c #222C23",
"a  c #263E25",
"s  c #263F27",
"d  c #20392D",
"f  c #20392F",
"g  c #202F3C",
"h  c #203039",
"j  c #20303B",
"k  c #491C1C",
"l  c #711F1F",
"z  c #2A4327",
"x  c #324B20",
"c  c #314B22",
"v  c #314A23",
"b  c #324C22",
"n  c #264634",
"m  c #2C1D48",
"M  c #212A4A",
"N  c #222D4E",
"B  c #243255",
"V  c #253654",
"C  c #263A54",
"Z  c #26375E",
"A  c #293361",
"S  c #283362",
"D  c #293461",
"F  c #2C3461",
"G  c #2B3F79",
"H  c #441F4A",
"J  c #4D384A",
"K  c #4A3954",
"L  c #264447",
"P  c #25484A",
"I  c #265140",
"U  c #275745",
"Y  c #285340",
"T  c #285744",
"R  c #285745",
"E  c #275945",
"W  c #295A43",
"Q  c #2A5B44",
"!  c #2A5C45",
"~  c #2A5C46",
"^  c #2F415D",
"/  c #3C4E5C",
"(  c #3A5B5A",
")  c #3B5D5A",
"_  c #3C5C5B",
"`  c #2F674A",
"'  c #2D6255",
"]  c #2F6E52",
"[  c #2F6F54",
"{  c #2E6558",
"}  c #327759",
"|  c #32775A",
" . c #33775A",
".. c #337B5C",
"X. c #337A5F",
"o. c #2E4B60",
"O. c #314E65",
"+. c #2C5F65",
"@. c #2C556C",
"#. c #2B4375",
"$. c #2D4777",
"%. c #2D4877",
"&. c #2D4B76",
"*. c #2D4D75",
"=. c #2E4D75",
"-. c #2D4D76",
";. c #2E4C76",
":. c #2B4179",
">. c #2C4379",
",. c #2C4578",
"<. c #2C447B",
"1. c #2F5573",
"2. c #2F5676",
"3. c #305572",
"4. c #305D71",
"5. c #326964",
"6. c #31676B",
"7. c #33656E",
"8. c #32686E",
"9. c #32696E",
"0. c #347C63",
"q. c #327966",
"w. c #347A66",
"e. c #34776A",
"r. c #33716C",
"t. c #357F69",
"y. c #367F68",
"u. c #367F69",
"i. c #316470",
"p. c #316472",
"a. c #326473",
"s. c #387B70",
"d. c #56434D",
"f. c #4E5E58",
"g. c #9A6B22",
"h. c #8B6C3E",
"j. c #368366",
"k. c #368467",
"l. c #378766",
"z. c #378B65",
"x. c #378866",
"c. c #378966",
"v. c #368A66",
"b. c #378A66",
"n. c #378B66",
"m. c #3D8D61",
"M. c #3D8E61",
"N. c #3C8D62",
"B. c #3D8E62",
"V. c #3D8F62",
"C. c #3C8E63",
"Z. c #388865",
"A. c #388A67",
"S. c #388B67",
"D. c #3A8D64",
"F. c #388C66",
"G. c #3D8F67",
"H. c #368068",
"J. c #368168",
"K. c #358368",
"L. c #368368",
"P. c #368369",
"I. c #358969",
"U. c #388B68",
"Y. c #4E8651",
"T. c #438C50",
"R. c #508B5B",
"E. c #528F5F",
"W. c #439057",
"Q. c #45955B",
"!. c #46935E",
"~. c #45975D",
"^. c #519159",
"/. c #519558",
"(. c #5AA143",
"). c #5CA74D",
"_. c #5EA74C",
"`. c #5FB14D",
"'. c #5FB34C",
"]. c #5FB24D",
"[. c #5CB04E",
"{. c #54A554",
"}. c #54A654",
"|. c #54A754",
" X c #54A853",
".X c #56A852",
"XX c #59AC51",
"oX c #5CB251",
"OX c #66BB47",
"+X c #66BC47",
"@X c #62B14A",
"#X c #63B64B",
"$X c #65B749",
"%X c #65B948",
"&X c #64B849",
"*X c #65B849",
"=X c #65B949",
"-X c #66B948",
";X c #66B949",
":X c #66BA48",
">X c #66BB48",
",X c #66BA49",
"<X c #67BC48",
"1X c #69B84A",
"2X c #6ABA4A",
"3X c #6BBB4A",
"4X c #6EBD48",
"5X c #6FB94F",
"6X c #77BE4D",
"7X c #60A85C",
"8X c #6AAF5D",
"9X c #63B258",
"0X c #71B457",
"qX c #7EB352",
"wX c #7AB857",
"eX c #408766",
"rX c #418866",
"tX c #4B8C6B",
"yX c #409062",
"uX c #439364",
"iX c #469861",
"pX c #5AA562",
"aX c #5CA761",
"sX c #74C049",
"dX c #7FC14F",
"fX c #A88129",
"gX c #8A8143",
"hX c #8DC84F",
"jX c #8BC650",
"kX c None",
/* pixels */
"kXkXkXkXkXkXkXkXkXkXkXkXkXkXkXkXkXkXkXkXkXkXkXkXkXkXkXkXkXkXkXkXkXkXkXkXkXkXkXkXkXkXkXkXkXkXkXkXkXkXkXkXkXkXkXkXkXkXkXkXkXkXkXkX",
"kXkXkXkXkXkXkXkXkXkXkXkXkXkXkXkXkXkXkXkXkXkXkXkXkXkXkXkXkXkXkXkXkXkXkXkXkXkXkXkXkXkXkXkXkXkXkXkXkXkXkXkXkXkXkXkXkXkXkXkXkXkXkXkX",
"kXkXkXkXkXkXkXkXkXkXkXkXkXkXkXkXkXkXkXkXkXkXkXkXkXkXkXkXkXkXkXkXkXkXkXkXkXkXkXkXkXkXkXkXkXkXkXkXkXkXkXkXkXkXkXkXkXkXkXkXkXkXkXkX",
"kXkXkXkXkXkXkXkXkXkXkXkXkXkXkXkXkXkXkXkXkXkXkXkXkXkXkXkXkXkXkXkXkXkXkXkXkXkXkXkXkXkXkXkXkXkXkXkXkXkXkXkXkXkXkXkXkXkXkXkXkXkXkXkX",
"kXkXkXkXkXkXkXkXkXkXkXkXkXkXkXkXkXkXkXkXkXkXkXkXkXkXkXkXkXkXkXkXkXkXkXkXkXkXkXkXkXkXkXkXkXkXkXkXkXkXkXkXkXkXkXkXkXkXkXkXkXkXkXkX",
"kXkXkXkXkXkXkXkXkXkXkXkXkXkXkXkXkXkXkXkXkXkXkXkXkXkXkXkXkXkXkXkXkXkXkXkXkXkXkXkXkXkXkXkXkXkXkXkXkXkXkXkXkXkXkXkXkXkXkXkXkXkXkXkX",
"kXkXkXkXkXkXkXkXkXkXkXkXkXkXkXkXkXkXkXkXkXkXkXkXkXkXkXkXkXkXkXkXkXkXkXkXkXkXkXkXkXkXkXkXkXkXkXkXkXkXkXkXkXkXkXkXkXkXkXkXkXkXkXkX",
"kXkXkXkXkXkXkXkXkXkXkXkXkXkXkXkXkXkXkXkXkXkXkXkXkXkXkXkXkXkXkXkXkXkXkXkXkXkXkXkXkXkXkXkXkXkXkXkXkXkXkXkXkXkXkXkXkXkXkXkXkXkXkXkX",
"kXkXkXkXkXkXkXkXkXkXkXkXkXkXkXkXkXkXkXkXkXkXkXkXkXkXkXkXkXkXkXkXkXkXkXkXkXkXkXkXkXkXkXkXkXkXkXkXkXkXkXkXkXkXkXkXkXkXkXkXkXkXkXkX",
"kXkXkXkXkXkXkXkXkXkXkXkXkXkXkXkXkXkXkXkXkXkXkXkXkXkXkXkXkXkXkXkXkXkXkXkXkXkXkXkXkXkXkXkXkXkXkXkXkXkXkXkXkXkXkXkXkXkXkXkXkXkXkXkX",
"kXkXkXkXkXkXkXkXkXkXkXkXkXkXkXkXkXkXkXkXkXkXkXkXkXkXkXkXkXkXkXkXkXkXkXkXkXkXkXkXkXkXkXkXkXkXkXkXkXkXkXkXkXkXkXkXkXkXkXkXkXkXkXkX",
"kXkXkXkXkXkXkXkXkXkXkXkXkXkXkXkXkXkXkXkXkXkXkXkXkXkXkXkXkXkXkXkXkXkXkXkXkXkXkXkXkXkXkXkXkXkXkXkXkXkXkXkXkXkXkXkXkXkXkXkXkXkXkXkX",
"kXkXkXkXkXkXkXkXkXkXkXkXkXkXkXkXkXkXkXkXkXkXkXkXkXkXkXkXkXkXkXkXkXkXkXkXkXkXkXkXkXkXkXkXkXkXkXkXkXkXkXkXkXkXkXkXkXkXkXkXkXkXkXkX",
"kXkXkXkXkXkXkXkXkXkXkXkXkXkXkXkXkXkXkXkXkXkXkXkXkXkXkXo o O   . .   O o o kXkXkXkXkXkXkXkXkXkXkXkXkXkXkXkXkXkXkXkXkXkXkXkXkXkXkX",
"kXkXkXkXkXkXkXkXkXkXkXkXkXkXkXkXkXkXkXkXkXkXkXkXkXkX3 t t z c v v c z t t 3 kXkXkXkXkXkXkXkXkXkXkXkXkXkXkXkXkXkXkXkXkXkXkXkXkXkX",
"kXkXkXkXkXkXkXkXkXkXkXkXkXkXkXkXkXkXkXkXkXkXkXkXkX- n m.V..X-X$X$X-X.XV.m.n - kXkXkXkXkXkXkXkXkXkXkXkXkXkXkXkXkXkXkXkXkXkXkXkXkX",
"kXkXkXkXkXkXkXkXkXkXkXkXkXkXkXkXkXkXkXkXkXkXkXkX* I W.].].#X;X=X=X;X#X].].W.I * kXkXkXkXkXkXkXkXkXkXkXkXkXkXkXkXkXkXkXkXkXkXkXkX",
"kXkXkXkXkXkXkXkXkXkXkXkXkXkXkXkXkXkXkXkXkXkXkX> Y T.oX-X-X*X*X*X*X*X*X-X-XoXT.Y > kXkXkXkXkXkXkXkXkXkXkXkXkXkXkXkXkXkXkXkXkXkXkX",
"kXkXkXkXkXkXkXkXkXkXkXkXkXkXkXkXkXkXkXkXkXkXkX, ..9XsX&X>X,X*X*X*X*X,X>X&XsX9X.., kXkXkXkXkXkXkXkXkXkXkXkXkXkXkXkXkXkXkXkXkXkXkX",
"kXkXkXkXkXkXkXkXkXkXkXkXkXkXkXkXkXkXkXkXkXkXkX,  .8XdX1X_.@X;X=X=X;X@X_.1XdX8X ., kXkXkXkXkXkXkXkXkXkXkXkXkXkXkXkXkXkXkXkXkXkXkX",
"kXkXkXkXkXkXkXkXkXkXkXkXkXkXkXkXkXkXkXkXkXkXkX< | G.7XqX/ Y.<X$X$X<XY./ qX7XG.| < kXkXkXkXkXkXkXkXkXkXkXkXkXkXkXkXkXkXkXkXkXkXkX",
"kXkXkXkXkXkXkXkXkXkXkXkXkXkXkXkXkXkXkXkXkXkXkX1 | I.uXE.F ^ ( _ _ ( ^ F E.uXI.| 1 kXkXkXkXkXkXkXkXkXkXkXkXkXkXkXkXkXkXkXkXkXkXkX",
"kXkXkXkXkXkXkXkXkXkXkXkXkXkXkXkXkXkXkXkXkXkXkX1 | U.v.q.S K J m m J K S q.v.U.| 1 kXkXkXkXkXkXkXkXkXkXkXkXkXkXkXkXkXkXkXkXkXkXkX",
"kXkXkXkXkXkXkXkXkXkXkXkXkXkXkXkXkXkXkXkXkXkXkX1 | U.n.w.A h.g.k k g.h.A w.n.U.| 1 kXkXkXkXkXkXkXkXkXkXkXkXkXkXkXkXkXkXkXkXkXkXkX",
"kXkXkXkXkXkXkXkXkXkXkXkXkXkXkXkXkXkXkXkXkXkXkX1 | U.n.w.D gXfXl l fXgXD w.n.U.| 1 kXkXkXkXkXkXkXkXkXkXkXkXkXkXkXkXkXkXkXkXkXkXkX",
"kXkXkXkXkXkXkXkXkXkXkXkXkXkXkXkXkXkXkXkXkXkXkX; } U.c.j.5.f.d.H H d.f.5.j.c.U.} ; kXkXkXkXkXkXkXkXkXkXkXkXkXkXkXkXkXkXkXkXkXkXkX",
"kXkXkXkXkXkXkXkXkXkXkXkXkXkXkXkXkXkXkXkXkXkX4 j X.S.x.c.F.+.o.) ) o.+.F.c.x.S.X.j 4 kXkXkXkXkXkXkXkXkXkXkXkXkXkXkXkXkXkXkXkXkXkX",
"kXkXkXkXkXkXkXkXkXkXkXkXkXkXkXkXkXkXkXkXkX$ 0 *.u.b.x.l.H.K.~.`.`.~.K.H.l.x.b.u.*.0 $ kXkXkXkXkXkXkXkXkXkXkXkXkXkXkXkXkXkXkXkXkX",
"kXkXkXkXkXkXkXkXkXkXkXkXkXkXkXkXkXkXkXkXkX$ 0 *.u.b.b.H.1.r.D.B.B.D.r.1.H.b.b.u.*.0 $ kXkXkXkXkXkXkXkXkXkXkXkXkXkXkXkXkXkXkXkXkX",
"kXkXkXkXkXkXkXkXkXkXkXkXkXkXkXkXkXkXkXkXkXX 9 *.u.b.S.X.g ' [ f r ] ' g X.S.b.u.*.9 X kXkXkXkXkXkXkXkXkXkXkXkXkXkXkXkXkXkXkXkXkX",
"kXkXkXkXkXkXkXkXkXkXkXkXkXkXkXkXkXkXkXkXkX6 N *.u.b.U.} ; ! ~ % 7 { Q ; } U.b.u.*.N 6 kXkXkXkXkXkXkXkXkXkXkXkXkXkXkXkXkXkXkXkXkX",
"kXkXkXkXkXkXkXkXkXkXkXkXkXkXkXkXkXkXkXkX: B <.-.y.b.U.| 1 ~ ` p O.s.W 1 | U.b.y.-.<.B : kXkXkXkXkXkXkXkXkXkXkXkXkXkXkXkXkXkXkXkX",
"kXkXkXkXkXkXkXkXkXkXkXkXkXkXkXkXkXkXkX: Z #.>.-.y.b.U.| 2 R Q.(.).iXT 2 | U.b.y.-.>.#.Z : kXkXkXkXkXkXkXkXkXkXkXkXkXkXkXkXkXkXkX",
"kXkXkXkXkXkXkXkXkXkXkXkXkXkXkXkXkXkX8 V 6.2.:.=.J.z.A.0.C h s b x a h C 0.A.z.J.=.:.2.6.V 8 kXkXkXkXkXkXkXkXkXkXkXkXkXkXkXkXkXkX",
"kXkXkXkXkXkXkXkXkXkXkXkXkXkXkXkXkX@ u p.P.4.G %.9.J.z.L.a.L q w w q L a.L.z.J.9.%.G 4.P.p.u @ kXkXkXkXkXkXkXkXkXkXkXkXkXkXkXkXkX",
"kXkXkXkXkXkXkXkXkXkXkXkXkXkXkXkXkXo d Z.C.7.&.&.,.8.k.x.x.l.l.l.l.l.l.x.x.k.8.,.&.&.7.C.Z.d o kXkXkXkXkXkXkXkXkXkXkXkXkXkXkXkXkX",
"kXkXkXkXkXkXkXkXkXkXkXkXkXkXkXkXkXo t N.XX!.t.e.;.$.i.x.c.c.c.c.c.c.c.c.x.i.$.;.e.t.!.XXN.t o kXkXkXkXkXkXkXkXkXkXkXkXkXkXkXkXkX",
"kXkXkXkXkXkXkXkXkXkXkXkXkXkXkXkXkXo t M.'.[. X{.^.R./.}.|.}.}.}.}.}.}.|.}./.R.^.{. X[.'.M.t o kXkXkXkXkXkXkXkXkXkXkXkXkXkXkXkXkX",
"kXkXkXkXkXkXkXkXkXkXkXkXkXkXkXkXkXo t yX5X4X%X:XOX+XOX%X%X%X%X%X%X%X%X%X%XOX+XOX:X%X4X5XyXt o kXkXkXkXkXkXkXkXkXkXkXkXkXkXkXkXkX",
"kXkXkXkXkXkXkXkXkXkXkXkXkXkXkXkXkX+ e eXwX6X2X3X3X3X3X3X3X3X3X3X3X3X3X3X3X3X3X3X3X2X6XwXeXe + kXkXkXkXkXkXkXkXkXkXkXkXkXkXkXkXkX",
"kXkXkXkXkXkXkXkXkXkXkXkXkXkXkXkXkX# y 3.rX0XhXjXjXjXjXjXjXjXjXjXjXjXjXjXjXjXjXjXjXhX0XrX3.y # kXkXkXkXkXkXkXkXkXkXkXkXkXkXkXkXkX",
"kXkXkXkXkXkXkXkXkXkXkXkXkXkXkXkXkXkX5 i @.tXaXpXpXpXpXpXpXpXpXpXpXpXpXpXpXpXpXpXpXaXtX@.i 5 kXkXkXkXkXkXkXkXkXkXkXkXkXkXkXkXkXkX",
"kXkXkXkXkXkXkXkXkXkXkXkXkXkXkXkXkXkXkX= M P E U U U U U U U U U U U U U U U U U U E P M = kXkXkXkXkXkXkXkXkXkXkXkXkXkXkXkXkXkXkX",
"kXkXkXkXkXkXkXkXkXkXkXkXkXkXkXkXkXkXkXkX& * * * * * * * * * * * * * * * * * * * * * * & kXkXkXkXkXkXkXkXkXkXkXkXkXkXkXkXkXkXkXkX",
"kXkXkXkXkXkXkXkXkXkXkXkXkXkXkXkXkXkXkXkXkXkXkXkXkXkXkXkXkXkXkXkXkXkXkXkXkXkXkXkXkXkXkXkXkXkXkXkXkXkXkXkXkXkXkXkXkXkXkXkXkXkXkXkX",
"kXkXkXkXkXkXkXkXkXkXkXkXkXkXkXkXkXkXkXkXkXkXkXkXkXkXkXkXkXkXkXkXkXkXkXkXkXkXkXkXkXkXkXkXkXkXkXkXkXkXkXkXkXkXkXkXkXkXkXkXkXkXkXkX",
"kXkXkXkXkXkXkXkXkXkXkXkXkXkXkXkXkXkXkXkXkXkXkXkXkXkXkXkXkXkXkXkXkXkXkXkXkXkXkXkXkXkXkXkXkXkXkXkXkXkXkXkXkXkXkXkXkXkXkXkXkXkXkXkX",
"kXkXkXkXkXkXkXkXkXkXkXkXkXkXkXkXkXkXkXkXkXkXkXkXkXkXkXkXkXkXkXkXkXkXkXkXkXkXkXkXkXkXkXkXkXkXkXkXkXkXkXkXkXkXkXkXkXkXkXkXkXkXkXkX",
"kXkXkXkXkXkXkXkXkXkXkXkXkXkXkXkXkXkXkXkXkXkXkXkXkXkXkXkXkXkXkXkXkXkXkXkXkXkXkXkXkXkXkXkXkXkXkXkXkXkXkXkXkXkXkXkXkXkXkXkXkXkXkXkX",
"kXkXkXkXkXkXkXkXkXkXkXkXkXkXkXkXkXkXkXkXkXkXkXkXkXkXkXkXkXkXkXkXkXkXkXkXkXkXkXkXkXkXkXkXkXkXkXkXkXkXkXkXkXkXkXkXkXkXkXkXkXkXkXkX",
"kXkXkXkXkXkXkXkXkXkXkXkXkXkXkXkXkXkXkXkXkXkXkXkXkXkXkXkXkXkXkXkXkXkXkXkXkXkXkXkXkXkXkXkXkXkXkXkXkXkXkXkXkXkXkXkXkXkXkXkXkXkXkXkX",
"kXkXkXkXkXkXkXkXkXkXkXkXkXkXkXkXkXkXkXkXkXkXkXkXkXkXkXkXkXkXkXkXkXkXkXkXkXkXkXkXkXkXkXkXkXkXkXkXkXkXkXkXkXkXkXkXkXkXkXkXkXkXkXkX",
"kXkXkXkXkXkXkXkXkXkXkXkXkXkXkXkXkXkXkXkXkXkXkXkXkXkXkXkXkXkXkXkXkXkXkXkXkXkXkXkXkXkXkXkXkXkXkXkXkXkXkXkXkXkXkXkXkXkXkXkXkXkXkXkX",
"kXkXkXkXkXkXkXkXkXkXkXkXkXkXkXkXkXkXkXkXkXkXkXkXkXkXkXkXkXkXkXkXkXkXkXkXkXkXkXkXkXkXkXkXkXkXkXkXkXkXkXkXkXkXkXkXkXkXkXkXkXkXkXkX",
"kXkXkXkXkXkXkXkXkXkXkXkXkXkXkXkXkXkXkXkXkXkXkXkXkXkXkXkXkXkXkXkXkXkXkXkXkXkXkXkXkXkXkXkXkXkXkXkXkXkXkXkXkXkXkXkXkXkXkXkXkXkXkXkX",
"kXkXkXkXkXkXkXkXkXkXkXkXkXkXkXkXkXkXkXkXkXkXkXkXkXkXkXkXkXkXkXkXkXkXkXkXkXkXkXkXkXkXkXkXkXkXkXkXkXkXkXkXkXkXkXkXkXkXkXkXkXkXkXkX",
"kXkXkXkXkXkXkXkXkXkXkXkXkXkXkXkXkXkXkXkXkXkXkXkXkXkXkXkXkXkXkXkXkXkXkXkXkXkXkXkXkXkXkXkXkXkXkXkXkXkXkXkXkXkXkXkXkXkXkXkXkXkXkXkX",
"kXkXkXkXkXkXkXkXkXkXkXkXkXkXkXkXkXkXkXkXkXkXkXkXkXkXkXkXkXkXkXkXkXkXkXkXkXkXkXkXkXkXkXkXkXkXkXkXkXkXkXkXkXkXkXkXkXkXkXkXkXkXkXkX",
"kXkXkXkXkXkXkXkXkXkXkXkXkXkXkXkXkXkXkXkXkXkXkXkXkXkXkXkXkXkXkXkXkXkXkXkXkXkXkXkXkXkXkXkXkXkXkXkXkXkXkXkXkXkXkXkXkXkXkXkXkXkXkXkX",
"kXkXkXkXkXkXkXkXkXkXkXkXkXkXkXkXkXkXkXkXkXkXkXkXkXkXkXkXkXkXkXkXkXkXkXkXkXkXkXkXkXkXkXkXkXkXkXkXkXkXkXkXkXkXkXkXkXkXkXkXkXkXkXkX",
"kXkXkXkXkXkXkXkXkXkXkXkXkXkXkXkXkXkXkXkXkXkXkXkXkXkXkXkXkXkXkXkXkXkXkXkXkXkXkXkXkXkXkXkXkXkXkXkXkXkXkXkXkXkXkXkXkXkXkXkXkXkXkXkX",
"kXkXkXkXkXkXkXkXkXkXkXkXkXkXkXkXkXkXkXkXkXkXkXkXkXkXkXkXkXkXkXkXkXkXkXkXkXkXkXkXkXkXkXkXkXkXkXkXkXkXkXkXkXkXkXkXkXkXkXkXkXkXkXkX",
"kXkXkXkXkXkXkXkXkXkXkXkXkXkXkXkXkXkXkXkXkXkXkXkXkXkXkXkXkXkXkXkXkXkXkXkXkXkXkXkXkXkXkXkXkXkXkXkXkXkXkXkXkXkXkXkXkXkXkXkXkXkXkXkX",
"kXkXkXkXkXkXkXkXkXkXkXkXkXkXkXkXkXkXkXkXkXkXkXkXkXkXkXkXkXkXkXkXkXkXkXkXkXkXkXkXkXkXkXkXkXkXkXkXkXkXkXkXkXkXkXkXkXkXkXkXkXkXkXkX"
};
